<?xml version="1.0" standalone="no"?><!DOCTYPE svg PUBLIC "-//W3C//DTD SVG 1.1//EN" "http://www.w3.org/Graphics/SVG/1.1/DTD/svg11.dtd"><svg height="65" node-id="1" sillyvg="true" template-height="65" template-width="65" version="1.1" viewBox="0 0 65 65" width="65" xmlns="http://www.w3.org/2000/svg" xmlns:xlink="http://www.w3.org/1999/xlink"><defs node-id="94"></defs><path d="M 52.00 10.90 C 47.00 10.90 43.00 14.90 43.00 19.90 L 43.00 33.40 L 61.00 33.40 L 61.00 19.90 C 61.00 15.00 57.00 10.90 52.00 10.90 Z" fill="#5c9eff" fill-rule="nonzero" node-id="97" stroke="none" target-height="22.500002" target-width="18" target-x="43" target-y="10.9"></path><path d="M 61.50 31.50 C 61.10 31.40 59.60 30.20 59.00 30.00 L 52.00 30.00 L 52.00 30.00 L 45.00 30.00 C 44.40 30.20 42.90 31.40 42.50 31.50 C 40.80 32.10 40.00 32.80 40.00 34.50 C 40.00 36.20 40.00 37.00 40.00 37.00 L 64.00 37.00 C 64.00 37.00 64.00 36.20 64.00 34.50 C 64.10 32.70 63.20 32.10 61.50 31.50 Z" fill="#94c1ff" fill-rule="nonzero" node-id="99" stroke="none" target-height="7" target-width="24.099998" target-x="40" target-y="30"></path><path d="M 44.50 31.50 C 44.90 31.40 46.40 30.20 47.00 30.00 L 45.00 30.00 C 44.40 30.20 42.90 31.40 42.50 31.50 C 40.80 32.10 40.00 32.80 40.00 34.50 C 40.00 36.20 40.00 37.00 40.00 37.00 L 42.00 37.00 C 42.00 37.00 42.00 36.20 42.00 34.50 C 42.00 32.70 42.90 32.10 44.50 31.50 Z" fill="#d7e9ff" fill-rule="nonzero" node-id="101" stroke="none" target-height="7" target-width="7" target-x="40" target-y="30"></path><path d="M 61.50 31.50 C 61.10 31.40 59.60 30.20 59.00 30.00 L 57.00 30.00 C 57.60 30.20 59.10 31.40 59.50 31.50 C 61.20 32.10 62.00 32.80 62.00 34.50 C 62.00 36.20 62.00 37.00 62.00 37.00 L 64.00 37.00 C 64.00 37.00 64.00 36.20 64.00 34.50 C 64.10 32.70 63.20 32.10 61.50 31.50 Z" fill="#5c9eff" fill-rule="nonzero" node-id="103" stroke="none" target-height="7" target-width="7.0999985" target-x="57" target-y="30"></path><path d="M 48.10 27.80 L 56.10 27.80 L 56.10 31.40 L 48.10 31.40 Z" fill="#d7e9ff" fill-rule="nonzero" node-id="105" stroke="none" target-height="3.6000004" target-width="8" target-x="48.1" target-y="27.8"></path><path d="M 59.00 29.90 L 56.00 27.80 L 53.10 36.90 L 57.00 32.90 L 56.00 31.90 Z" fill="#ffffff" fill-rule="nonzero" node-id="107" stroke="none" target-height="9.100002" target-width="5.9000015" target-x="53.1" target-y="27.8"></path><path d="M 45.00 29.90 L 48.10 27.80 L 51.00 36.90 L 47.00 32.90 L 48.00 31.90 Z" fill="#ffffff" fill-rule="nonzero" node-id="109" stroke="none" target-height="9.100002" target-width="6" target-x="45" target-y="27.8"></path><g node-id="285"><path d="M 52.00 31.90 L 52.00 36.90 L 53.10 36.90 L 55.00 30.90 Z" fill="#94c1ff" fill-rule="nonzero" group-id="1" node-id="113" stroke="none" target-height="6.000002" target-width="3" target-x="52" target-y="30.9"></path><path d="M 51.00 36.90 L 52.00 36.90 L 52.00 31.90 L 49.00 30.90 Z" fill="#94c1ff" fill-rule="nonzero" group-id="1" node-id="115" stroke="none" target-height="6.000002" target-width="3" target-x="49" target-y="30.9"></path></g><path d="M 56.60 16.10 C 56.50 16.10 53.90 16.00 52.10 16.00 C 50.30 16.00 47.70 16.10 47.60 16.10 C 47.50 16.10 45.10 20.30 45.10 20.30 L 45.10 21.40 C 45.10 25.90 49.40 30.00 52.10 30.00 C 54.80 30.00 59.10 25.90 59.10 21.40 L 59.10 20.30 C 59.00 20.30 56.60 16.10 56.60 16.10 Z" fill="#d7e9ff" fill-rule="nonzero" node-id="118" stroke="none" target-height="14" target-width="14" target-x="45.1" target-y="16"></path><path d="M 56.60 16.10 C 56.50 16.10 53.90 16.00 52.10 16.00 C 51.80 16.00 51.40 16.00 51.10 16.00 C 52.70 16.00 54.60 16.10 54.60 16.10 C 54.70 16.10 57.10 20.30 57.10 20.30 L 57.10 21.40 C 57.10 25.30 53.70 29.00 51.10 29.80 C 51.40 29.90 51.80 30.00 52.10 30.00 C 54.80 30.00 59.10 25.90 59.10 21.40 L 59.10 20.30 C 59.00 20.30 56.60 16.10 56.60 16.10 Z" fill="#94c1ff" fill-rule="nonzero" node-id="120" stroke="none" target-height="14" target-width="8" target-x="51.1" target-y="16"></path><path d="M 47.10 21.30 L 47.10 20.20 C 47.10 20.20 49.50 16.10 49.60 16.00 C 49.70 16.00 51.50 15.90 53.10 15.90 C 52.80 15.90 52.40 15.90 52.10 15.90 C 50.30 15.90 47.70 16.00 47.60 16.00 C 47.50 16.00 45.10 20.20 45.10 20.20 L 45.10 21.30 C 45.10 25.80 49.40 29.90 52.10 29.90 C 52.40 29.90 52.80 29.80 53.10 29.70 C 50.40 28.90 47.10 25.30 47.10 21.30 Z" fill="#ffffff" fill-rule="nonzero" node-id="122" stroke="none" target-height="14" target-width="8" target-x="45.1" target-y="15.9"></path><path d="M 43.20 21.40 C 45.90 20.60 52.20 18.30 54.10 17.20 C 57.00 15.60 58.80 14.00 58.80 14.00 C 57.20 12.20 54.80 11.00 52.10 11.00 C 47.10 11.00 43.10 15.00 43.10 20.00 C 43.00 20.40 43.10 20.90 43.20 21.40 Z" fill="#94c1ff" fill-rule="nonzero" node-id="124" stroke="none" target-height="10.4" target-width="15.799999" target-x="43" target-y="11"></path><path d="M 44.00 19.90 C 44.00 15.10 47.80 11.20 52.50 10.90 C 52.30 10.90 52.20 10.90 52.00 10.90 C 47.00 10.90 43.00 14.90 43.00 19.90 C 43.00 20.40 43.10 20.90 43.10 21.40 C 43.40 21.30 43.70 21.20 44.10 21.10 C 44.10 20.70 44.00 20.30 44.00 19.90 Z" fill="#d7e9ff" fill-rule="nonzero" node-id="126" stroke="none" target-height="10.5" target-width="9.5" target-x="43" target-y="10.9"></path><path d="M 61.00 19.90 C 61.00 17.50 60.00 15.30 58.50 13.70 L 54.00 17.20 C 54.00 17.20 56.20 19.70 60.90 20.90 C 61.00 20.60 61.00 20.30 61.00 19.90 Z" fill="#94c1ff" fill-rule="nonzero" node-id="128" stroke="none" target-height="7.2" target-width="7" target-x="54" target-y="13.7"></path><path d="M 58.70 13.90 C 58.70 13.90 58.70 13.90 58.70 13.90 C 58.70 13.90 58.70 13.90 58.70 13.90 C 58.60 13.80 58.50 13.70 58.50 13.70 C 58.50 13.70 58.50 13.70 58.50 13.70 C 56.90 12.00 54.60 10.90 52.00 10.90 C 51.80 10.90 51.70 10.90 51.50 10.90 C 53.90 11.00 56.00 12.10 57.50 13.70 C 57.50 13.70 57.50 13.70 57.50 13.70 C 57.50 13.70 57.60 13.80 57.60 13.80 C 57.60 13.80 57.70 13.90 57.70 13.90 C 57.70 13.90 57.70 13.90 57.70 13.90 C 59.10 15.50 60.00 17.60 60.00 19.90 C 60.00 20.10 60.00 20.40 60.00 20.60 C 60.30 20.70 60.60 20.80 61.00 20.90 C 61.00 20.60 61.10 20.20 61.10 19.90 C 61.00 17.60 60.20 15.50 58.70 13.90 Z" fill="#5c9eff" fill-rule="nonzero" group-id="2" node-id="132" stroke="none" target-height="10" target-width="9.599998" target-x="51.5" target-y="10.9"></path><path d="M 53.00 49.90 C 53.00 52.60 53.00 54.90 53.00 54.90 L 12.00 54.90 C 12.00 54.90 12.00 52.60 12.00 49.90 C 12.00 47.20 13.40 46.10 16.10 45.10 C 17.50 44.60 21.00 43.20 23.00 42.20 L 24.30 41.20 L 28.00 45.90 L 32.00 43.90 L 33.00 43.90 L 37.00 45.90 L 40.70 41.20 L 42.00 42.20 C 44.00 43.20 47.50 44.60 48.90 45.10 C 51.70 46.20 53.00 47.20 53.00 49.90 Z" fill="#94c1ff" fill-rule="nonzero" node-id="135" stroke="none" target-height="13.700001" target-width="41" target-x="12" target-y="41.2"></path><path d="M 18.10 45.20 C 19.50 44.70 23.00 43.30 25.00 42.30 L 25.10 42.30 L 24.30 41.30 L 23.00 42.30 C 21.00 43.30 17.50 44.70 16.10 45.20 C 13.40 46.20 12.00 47.20 12.00 50.00 C 12.00 52.70 12.00 55.00 12.00 55.00 L 14.00 55.00 C 14.00 55.00 14.00 52.70 14.00 50.00 C 14.00 47.20 15.40 46.20 18.10 45.20 Z" fill="#d7e9ff" fill-rule="nonzero" group-id="3" node-id="139" stroke="none" target-height="13.700001" target-width="13.1" target-x="12" target-y="41.3"></path><path d="M 46.90 45.20 C 45.50 44.70 42.00 43.30 40.00 42.30 L 39.90 42.30 L 40.70 41.30 L 42.00 42.30 C 44.00 43.30 47.50 44.70 48.90 45.20 C 51.60 46.20 53.00 47.20 53.00 50.00 C 53.00 52.70 53.00 55.00 53.00 55.00 L 51.00 55.00 C 51.00 55.00 51.00 52.70 51.00 50.00 C 51.00 47.20 49.70 46.20 46.90 45.20 Z" fill="#5c9eff" fill-rule="nonzero" group-id="4" node-id="144" stroke="none" target-height="13.700001" target-width="13.099998" target-x="39.9" target-y="41.3"></path><path d="M 25.10 36.90 L 1.10 36.90 L 1.10 35.90 C 1.10 35.90 1.10 35.20 1.10 33.60 C 1.10 31.90 1.90 31.30 3.60 30.70 C 4.40 30.40 5.90 29.80 7.10 29.30 L 8.30 28.10 L 11.10 31.00 L 13.10 30.00 L 15.10 31.00 L 17.90 28.20 L 19.00 29.30 C 20.20 29.90 21.70 30.40 22.50 30.80 C 24.20 31.40 25.00 32.10 25.00 33.70 C 25.00 35.40 25.00 36.00 25.00 36.00 L 25.00 36.90 Z" fill="#d7e9ff" fill-rule="nonzero" node-id="147" stroke="none" target-height="8.800001" target-width="24" target-x="1.1" target-y="28.1"></path><path d="M 3.10 33.60 C 3.10 31.90 3.90 31.30 5.60 30.70 C 6.40 30.40 7.90 29.80 9.10 29.30 L 9.30 29.10 L 8.30 28.10 L 7.10 29.30 C 5.90 29.90 4.40 30.40 3.60 30.70 C 1.90 31.30 1.10 32.00 1.10 33.60 C 1.10 35.30 1.10 35.90 1.10 35.90 L 1.10 36.90 L 3.10 36.90 L 3.10 35.90 C 3.10 35.90 3.10 35.30 3.10 33.60 Z" fill="#ffffff" fill-rule="nonzero" group-id="5" node-id="151" stroke="none" target-height="8.800001" target-width="8.2" target-x="1.1" target-y="28.1"></path><path d="M 23.10 33.60 C 23.10 31.90 22.30 31.30 20.60 30.70 C 19.80 30.40 18.30 29.80 17.10 29.30 L 16.90 29.10 L 17.90 28.10 L 19.10 29.30 C 20.30 29.90 21.80 30.40 22.60 30.70 C 24.30 31.30 25.10 32.00 25.10 33.60 C 25.10 35.30 25.10 35.90 25.10 35.90 L 25.10 36.90 L 23.10 36.90 L 23.10 35.90 C 23.10 35.90 23.10 35.30 23.10 33.60 Z" fill="#94c1ff" fill-rule="nonzero" group-id="6" node-id="156" stroke="none" target-height="8.800001" target-width="8.200001" target-x="16.9" target-y="28.1"></path><path d="M 14.10 36.90 L 12.10 36.90 L 12.60 31.50 L 13.60 31.50 Z" fill="#5c9eff" fill-rule="nonzero" node-id="159" stroke="none" target-height="5.4000015" target-width="2" target-x="12.1" target-y="31.5"></path><path d="M 12.20 30.10 L 14.00 30.10 L 14.00 31.50 L 12.20 31.50 Z" fill="#5c9eff" fill-rule="nonzero" node-id="161" stroke="none" target-height="1.3999996" target-width="1.8000002" target-x="12.2" target-y="30.1"></path><path d="M 11.10 31.00 L 8.10 28.00 L 9.10 27.00 L 13.10 29.10 L 13.10 30.00 Z" fill="#ffffff" fill-rule="nonzero" node-id="163" stroke="none" target-height="4" target-width="5" target-x="8.1" target-y="27"></path><path d="M 15.10 31.00 L 18.10 28.00 L 17.10 27.00 L 13.10 29.10 L 13.10 30.00 Z" fill="#ffffff" fill-rule="nonzero" node-id="165" stroke="none" target-height="4" target-width="5" target-x="13.1" target-y="27"></path><path d="M 7.10 11.00 C 7.10 11.00 21.10 6.00 20.10 19.00 L 18.00 16.00 C 13.60 15.70 8.80 17.70 6.10 19.00 C 4.80 19.60 4.10 20.00 4.10 20.00 C 4.10 13.70 8.20 12.00 8.20 12.00 L 7.10 11.00 Z" fill="#5c9eff" fill-rule="nonzero" node-id="167" stroke="none" target-height="14" target-width="17" target-x="4.1" target-y="6"></path><path d="M 12.10 10.10 C 15.50 10.20 19.10 11.70 19.20 17.70 L 20.20 19.10 C 20.70 11.30 16.00 9.90 12.10 10.10 Z" fill="#2287ff" fill-rule="nonzero" group-id="7" node-id="171" stroke="none" target-height="9.200001" target-width="8.6" target-x="12.1" target-y="9.9"></path><path d="M 9.20 12.20 L 8.10 11.00 C 8.10 11.00 10.40 10.20 13.10 10.10 C 10.00 10.00 7.10 11.00 7.10 11.00 L 8.20 12.00 C 8.20 12.00 4.10 13.80 4.10 20.00 C 4.10 20.00 4.50 19.80 5.10 19.50 C 5.30 13.70 9.20 12.20 9.20 12.20 Z" fill="#94c1ff" fill-rule="nonzero" group-id="8" node-id="176" stroke="none" target-height="10" target-width="9" target-x="4.1" target-y="10"></path><path d="M 20.10 19.00 L 20.10 20.00 C 20.10 24.80 15.80 29.10 13.10 29.10 C 10.40 29.10 6.10 24.70 6.10 20.00 L 6.10 19.00 L 6.10 19.00 C 8.80 17.70 13.60 15.80 18.00 16.00 L 20.10 19.00 Z" fill="#d7e9ff" fill-rule="nonzero" node-id="179" stroke="none" target-height="13.3" target-width="14" target-x="6.1" target-y="15.8"></path><path d="M 18.00 16.00 C 17.30 16.00 16.70 16.00 16.00 16.00 L 18.10 19.00 L 18.10 20.00 C 18.10 24.20 14.70 28.10 12.10 29.00 C 12.40 29.10 12.80 29.20 13.10 29.20 C 15.80 29.20 20.10 24.80 20.10 20.10 L 20.10 19.10 L 18.00 16.00 Z" fill="#94c1ff" fill-rule="nonzero" node-id="181" stroke="none" target-height="13.200001" target-width="8" target-x="12.1" target-y="16"></path><path d="M 8.10 20.00 L 8.10 19.00 L 8.10 19.00 C 10.40 17.90 14.20 16.40 18.00 16.10 L 18.00 16.10 C 13.60 15.80 8.80 17.80 6.10 19.10 L 6.10 19.10 L 6.10 20.10 C 6.10 24.90 10.40 29.20 13.10 29.20 C 13.40 29.20 13.80 29.10 14.10 29.00 C 11.50 28.10 8.10 24.20 8.10 20.00 Z" fill="#ffffff" fill-rule="nonzero" node-id="183" stroke="none" target-height="13.400001" target-width="11.9" target-x="6.1" target-y="15.8"></path><path d="M 39.00 16.90 C 39.00 16.90 46.20 15.90 44.50 26.90 L 41.00 21.90 C 41.00 21.90 36.90 23.90 32.50 23.90 C 28.10 23.90 24.00 21.90 24.00 21.90 L 20.50 26.90 C 20.10 23.00 20.80 20.10 22.10 17.90 C 27.00 9.60 41.00 11.90 41.00 11.90 C 37.80 13.30 39.00 16.90 39.00 16.90 Z" fill="#94c1ff" fill-rule="nonzero" node-id="185" stroke="none" target-height="17.3" target-width="26.1" target-x="20.1" target-y="9.6"></path><path d="M 39.00 16.90 C 39.00 16.90 43.10 16.00 42.80 24.40 L 44.60 26.90 C 46.30 15.90 39.00 16.90 39.00 16.90 Z" fill="#5c9eff" fill-rule="nonzero" group-id="9" node-id="189" stroke="none" target-height="11" target-width="7.299999" target-x="39" target-y="15.9"></path><path d="M 24.20 18.00 C 27.20 13.00 33.40 11.80 37.90 11.70 C 33.50 11.60 25.60 12.20 22.20 18.00 C 20.90 20.20 20.20 23.10 20.60 27.00 L 22.50 24.30 C 22.60 21.60 23.20 19.60 24.20 18.00 Z" fill="#d7e9ff" fill-rule="nonzero" group-id="10" node-id="194" stroke="none" target-height="15.4" target-width="17.7" target-x="20.2" target-y="11.6"></path><path d="M 44.50 26.90 L 44.50 27.90 C 44.50 35.70 37.10 42.90 32.50 42.90 C 29.50 42.90 25.30 39.80 22.70 35.50 C 21.40 33.20 20.50 30.60 20.50 27.90 L 20.50 26.90 L 24.00 21.90 C 24.00 21.90 28.10 23.90 32.50 23.90 C 36.90 23.90 41.00 21.90 41.00 21.90 L 44.50 26.90 Z" fill="#d7e9ff" fill-rule="nonzero" node-id="197" stroke="none" target-height="21.000002" target-width="24" target-x="20.5" target-y="21.9"></path><path d="M 24.80 35.50 C 23.50 33.20 22.60 30.60 22.60 27.90 L 22.60 26.90 L 25.70 22.50 C 24.70 22.10 24.10 21.90 24.10 21.90 L 20.60 26.90 L 20.60 27.90 C 20.60 30.60 21.50 33.20 22.80 35.50 C 25.30 39.80 29.60 42.90 32.60 42.90 C 32.90 42.90 33.30 42.90 33.60 42.80 C 30.70 42.20 27.00 39.40 24.80 35.50 Z" fill="#ffffff" fill-rule="nonzero" group-id="11" node-id="201" stroke="none" target-height="21.000002" target-width="12.999998" target-x="20.6" target-y="21.9"></path><path d="M 40.20 35.50 C 41.50 33.20 42.40 30.60 42.40 27.90 L 42.40 26.90 L 39.30 22.50 C 40.30 22.10 40.90 21.90 40.90 21.90 L 44.40 26.90 L 44.40 27.90 C 44.40 30.60 43.50 33.20 42.20 35.50 C 39.70 39.80 35.40 42.90 32.40 42.90 C 32.10 42.90 31.70 42.90 31.40 42.80 C 34.30 42.20 37.90 39.40 40.20 35.50 Z" fill="#94c1ff" fill-rule="nonzero" group-id="12" node-id="206" stroke="none" target-height="21.000002" target-width="13.000002" target-x="31.4" target-y="21.9"></path><path d="M 28.00 45.90 L 24.00 40.90 L 24.00 39.90 L 26.40 39.90 L 29.10 41.90 L 32.50 42.90 L 32.60 43.90 Z" fill="#ffffff" fill-rule="nonzero" node-id="209" stroke="none" target-height="6" target-width="8.599998" target-x="24" target-y="39.9"></path><path d="M 37.10 45.90 L 41.10 40.90 L 41.10 39.90 L 38.70 39.90 L 36.00 41.90 L 32.60 42.90 L 32.50 43.90 Z" fill="#ffffff" fill-rule="nonzero" node-id="211" stroke="none" target-height="6" target-width="8.599998" target-x="32.5" target-y="39.9"></path><path d="M 32.60 47.40 C 32.30 47.40 32.10 47.20 32.10 46.90 C 32.10 46.60 32.30 46.40 32.60 46.40 L 32.60 46.40 C 32.90 46.40 33.10 46.60 33.10 46.90 C 33.10 47.20 32.80 47.40 32.60 47.40 Z" fill="#116fff" fill-rule="nonzero" group-id="13" node-id="215" stroke="none" target-height="1" target-width="1" target-x="32.1" target-y="46.4"></path><path d="M 32.60 50.40 C 32.30 50.40 32.10 50.20 32.10 49.90 C 32.10 49.60 32.30 49.40 32.60 49.40 L 32.60 49.40 C 32.90 49.40 33.10 49.60 33.10 49.90 C 33.10 50.20 32.80 50.40 32.60 50.40 Z" fill="#116fff" fill-rule="nonzero" group-id="13" node-id="217" stroke="none" target-height="1" target-width="1" target-x="32.1" target-y="49.4"></path><path d="M 32.60 53.40 C 32.30 53.40 32.10 53.20 32.10 52.90 C 32.10 52.60 32.30 52.40 32.60 52.40 L 32.60 52.40 C 32.90 52.40 33.10 52.60 33.10 52.90 C 33.10 53.20 32.80 53.40 32.60 53.40 Z" fill="#116fff" fill-rule="nonzero" group-id="13" node-id="219" stroke="none" target-height="1" target-width="1" target-x="32.1" target-y="52.4"></path><path d="M 52.10 34.40 C 51.80 34.40 51.60 34.20 51.60 33.90 C 51.60 33.60 51.80 33.40 52.10 33.40 L 52.10 33.40 C 52.40 33.40 52.60 33.60 52.60 33.90 C 52.60 34.20 52.30 34.40 52.10 34.40 Z" fill="#116fff" fill-rule="nonzero" group-id="13" node-id="221" stroke="none" target-height="1" target-width="1" target-x="51.6" target-y="33.4"></path><path d="M 53.00 55.40 L 12.00 55.40 C 11.70 55.40 11.50 55.20 11.50 54.90 L 11.50 49.90 C 11.50 46.90 13.10 45.70 15.90 44.70 C 17.60 44.10 20.90 42.80 22.80 41.80 C 23.00 41.70 23.30 41.80 23.50 42.00 C 23.70 42.20 23.50 42.50 23.30 42.70 C 21.00 43.90 16.80 45.40 16.40 45.60 C 13.80 46.60 12.60 47.40 12.60 49.90 L 12.60 54.40 L 52.60 54.40 L 52.60 49.90 C 52.60 47.40 51.40 46.50 48.80 45.60 C 47.10 45.00 43.80 43.60 41.80 42.70 C 41.60 42.60 41.50 42.30 41.60 42.00 C 41.70 41.70 42.00 41.70 42.30 41.80 C 44.20 42.70 47.50 44.00 49.20 44.70 C 52.10 45.80 53.60 46.90 53.60 49.90 L 53.60 54.90 C 53.50 55.20 53.30 55.40 53.00 55.40 Z" fill="#116fff" fill-rule="nonzero" group-id="13,14" node-id="225" stroke="none" target-height="13.700001" target-width="42.1" target-x="11.5" target-y="41.7"></path><path d="M 32.50 43.40 C 29.30 43.40 24.90 40.10 22.30 35.70 C 20.80 33.20 20.00 30.50 20.00 27.90 C 20.00 27.60 20.20 27.40 20.50 27.40 C 20.80 27.40 21.00 27.60 21.00 27.90 C 21.00 30.30 21.70 32.80 23.20 35.20 C 25.60 39.20 29.70 42.40 32.50 42.40 C 36.80 42.40 44.00 35.40 44.00 27.90 C 44.00 27.60 44.20 27.40 44.50 27.40 C 44.80 27.40 45.00 27.60 45.00 27.90 C 45.00 36.20 37.30 43.40 32.50 43.40 Z" fill="#116fff" fill-rule="nonzero" group-id="13,14" node-id="227" stroke="none" target-height="16.000002" target-width="25" target-x="20" target-y="27.4"></path><path d="M 20.50 27.40 C 20.50 27.40 20.40 27.40 20.40 27.40 C 20.20 27.30 20.00 27.20 20.00 27.00 C 19.70 23.30 20.20 20.20 21.70 17.70 C 26.80 9.20 40.50 11.30 41.10 11.40 C 41.30 11.40 41.50 11.60 41.50 11.80 C 41.50 12.00 41.40 12.20 41.20 12.30 C 38.90 13.20 39.20 15.40 39.40 16.30 C 40.20 16.30 42.00 16.40 43.40 17.90 C 45.10 19.70 45.70 22.70 45.00 26.90 C 45.00 27.10 44.80 27.30 44.60 27.30 C 44.40 27.30 44.20 27.30 44.10 27.10 L 40.80 22.40 C 39.70 22.90 36.20 24.30 32.50 24.30 C 28.80 24.30 25.30 22.90 24.20 22.40 L 21.00 27.20 C 20.90 27.30 20.70 27.40 20.50 27.40 Z M 41.00 21.40 C 41.20 21.40 41.30 21.50 41.40 21.60 L 44.20 25.50 C 44.50 22.30 44.00 19.90 42.70 18.60 C 41.20 17.10 39.10 17.30 39.10 17.30 C 38.90 17.30 38.60 17.20 38.60 17.00 C 38.20 15.80 38.00 13.60 39.60 12.20 C 36.00 11.90 26.50 11.80 22.60 18.20 C 21.40 20.10 20.90 22.60 21.00 25.40 L 23.70 21.60 C 23.80 21.40 24.10 21.30 24.30 21.40 C 24.30 21.40 28.40 23.30 32.60 23.30 C 36.80 23.30 40.90 21.40 40.90 21.30 C 40.90 21.40 41.00 21.40 41.00 21.40 Z" fill="#116fff" fill-rule="nonzero" group-id="13,14" node-id="229" stroke="none" target-height="18.2" target-width="26" target-x="19.7" target-y="9.2"></path><path d="M 52.00 30.40 C 50.40 30.40 48.20 29.00 46.60 27.00 C 46.40 26.80 46.50 26.50 46.70 26.30 C 46.90 26.10 47.20 26.20 47.40 26.40 C 48.80 28.20 50.70 29.40 52.00 29.40 C 54.40 29.40 58.50 25.50 58.50 21.30 C 58.50 21.00 58.70 20.80 59.00 20.80 C 59.30 20.80 59.50 21.00 59.50 21.30 C 59.50 26.20 54.90 30.40 52.00 30.40 Z" fill="#116fff" fill-rule="nonzero" group-id="13,14" node-id="231" stroke="none" target-height="9.6" target-width="13.099998" target-x="46.4" target-y="20.8"></path><path d="M 64.10 37.40 L 44.00 37.40 C 43.70 37.40 43.50 37.20 43.50 36.90 C 43.50 36.60 43.70 36.40 44.00 36.40 L 63.50 36.40 L 63.50 34.40 C 63.50 33.10 63.00 32.60 61.30 31.90 C 61.00 31.80 60.70 31.70 60.30 31.60 L 59.80 31.40 C 59.50 31.30 59.40 31.00 59.50 30.80 C 59.60 30.50 59.90 30.40 60.10 30.50 L 60.60 30.70 C 61.00 30.80 61.30 30.90 61.60 31.00 C 63.40 31.70 64.50 32.40 64.50 34.40 L 64.50 36.90 C 64.60 37.20 64.30 37.40 64.10 37.40 Z" fill="#116fff" fill-rule="nonzero" group-id="13,14" node-id="233" stroke="none" target-height="7.000002" target-width="21.099998" target-x="43.5" target-y="30.4"></path><path d="M 13.10 37.40 L 1.10 37.40 C 0.80 37.40 0.60 37.20 0.60 36.90 L 0.60 33.60 C 0.60 31.70 1.60 30.90 3.40 30.20 C 4.20 29.90 5.70 29.40 6.90 28.80 C 7.10 28.70 7.40 28.80 7.60 29.00 C 7.70 29.20 7.60 29.50 7.40 29.70 C 6.20 30.30 4.60 30.90 3.90 31.20 C 2.20 31.80 1.70 32.40 1.70 33.70 L 1.70 36.50 L 13.20 36.50 C 13.50 36.50 13.70 36.70 13.70 37.00 C 13.70 37.30 13.30 37.40 13.10 37.40 Z" fill="#116fff" fill-rule="nonzero" group-id="13,14" node-id="235" stroke="none" target-height="8.700001" target-width="13.099999" target-x="0.6" target-y="28.7"></path><path d="M 21.00 37.40 L 13.00 37.40 C 12.70 37.40 12.50 37.20 12.50 36.90 C 12.50 36.60 12.70 36.40 13.00 36.40 L 21.00 36.40 C 21.30 36.40 21.50 36.60 21.50 36.90 C 21.50 37.20 21.30 37.40 21.00 37.40 Z" fill="#116fff" fill-rule="nonzero" group-id="13,14" node-id="237" stroke="none" target-height="1" target-width="9" target-x="12.5" target-y="36.4"></path><path d="M 13.10 29.60 C 10.30 29.60 5.60 25.10 5.60 20.00 C 5.60 19.70 5.80 19.50 6.10 19.50 C 6.40 19.50 6.60 19.70 6.60 20.00 C 6.60 24.40 10.70 28.60 13.10 28.60 C 14.40 28.60 16.30 27.30 17.70 25.40 C 17.90 25.20 18.20 25.10 18.40 25.30 C 18.60 25.50 18.70 25.80 18.50 26.00 C 16.90 28.10 14.70 29.60 13.10 29.60 Z" fill="#116fff" fill-rule="nonzero" group-id="13,14" node-id="239" stroke="none" target-height="10.1" target-width="13.1" target-x="5.6" target-y="19.5"></path><path d="M 11.10 31.40 C 11.00 31.40 10.80 31.30 10.70 31.30 L 7.70 28.30 C 7.50 28.10 7.50 27.80 7.70 27.60 C 7.90 27.40 8.20 27.40 8.40 27.60 L 11.10 30.30 L 12.80 29.50 C 13.00 29.40 13.20 29.40 13.40 29.60 C 13.60 29.80 13.60 30.10 13.40 30.30 C 13.40 30.30 13.30 30.40 13.30 30.40 L 11.30 31.40 C 11.20 31.40 11.20 31.40 11.10 31.40 Z" fill="#116fff" fill-rule="nonzero" group-id="13,14" node-id="241" stroke="none" target-height="4" target-width="6.1000004" target-x="7.5" target-y="27.4"></path><path d="M 15.10 31.40 C 15.00 31.40 14.90 31.40 14.90 31.30 L 12.90 30.30 L 13.30 29.40 L 15.00 30.20 L 17.70 27.50 C 17.90 27.30 18.20 27.30 18.40 27.50 C 18.60 27.70 18.60 28.00 18.40 28.20 L 15.40 31.20 C 15.30 31.40 15.20 31.40 15.10 31.40 Z" fill="#116fff" fill-rule="nonzero" group-id="13,14" node-id="243" stroke="none" target-height="4.1000004" target-width="5.700001" target-x="12.9" target-y="27.3"></path><path d="M 4.10 20.40 C 4.00 20.40 3.90 20.40 3.90 20.30 C 3.70 20.20 3.60 20.00 3.60 19.90 C 3.60 14.90 6.10 12.60 7.30 11.80 L 6.70 11.30 C 6.60 11.20 6.50 11.00 6.60 10.80 C 6.60 10.60 6.80 10.50 6.90 10.40 C 7.20 10.30 13.60 8.10 17.60 10.70 C 19.40 11.90 20.50 14.00 20.60 16.80 C 20.60 17.10 20.40 17.30 20.10 17.30 C 19.80 17.30 19.60 17.10 19.60 16.80 C 19.50 14.30 18.60 12.50 17.00 11.50 C 14.20 9.60 9.80 10.50 8.00 11.00 L 8.40 11.40 C 8.50 11.50 8.60 11.70 8.60 11.90 C 8.60 12.10 8.50 12.20 8.30 12.30 C 8.20 12.40 4.90 13.90 4.50 19.00 C 6.60 17.90 12.60 15.10 17.90 15.40 C 18.10 15.40 18.20 15.50 18.30 15.70 L 19.40 17.70 C 19.50 17.90 19.40 18.20 19.20 18.40 C 19.00 18.50 18.70 18.40 18.50 18.20 L 17.60 16.40 C 11.50 16.20 4.30 20.30 4.20 20.30 C 4.20 20.40 4.10 20.40 4.10 20.40 Z" fill="#116fff" fill-rule="nonzero" group-id="13,14" node-id="245" stroke="none" target-height="12.299999" target-width="17" target-x="3.6" target-y="8.1"></path><path d="M 13.10 32.40 C 13.00 32.40 12.80 32.40 12.70 32.30 L 11.70 31.30 C 11.50 31.10 11.50 30.80 11.70 30.60 C 11.90 30.40 12.20 30.40 12.40 30.60 L 13.40 31.60 C 13.60 31.80 13.60 32.10 13.40 32.30 C 13.30 32.40 13.20 32.40 13.10 32.40 Z" fill="#116fff" fill-rule="nonzero" group-id="13,14" node-id="247" stroke="none" target-height="2.000002" target-width="2.1000004" target-x="11.5" target-y="30.4"></path><path d="M 13.10 32.40 C 13.00 32.40 12.80 32.40 12.70 32.30 C 12.50 32.10 12.50 31.80 12.70 31.60 L 13.70 30.60 C 13.90 30.40 14.20 30.40 14.40 30.60 C 14.60 30.80 14.60 31.10 14.40 31.30 L 13.40 32.30 C 13.30 32.40 13.20 32.40 13.10 32.40 Z" fill="#116fff" fill-rule="nonzero" group-id="13,14" node-id="249" stroke="none" target-height="2.000002" target-width="2.1000004" target-x="12.5" target-y="30.4"></path><path d="M 12.10 36.40 C 12.00 36.40 12.00 36.40 12.10 36.40 C 11.80 36.40 11.60 36.10 11.60 35.80 L 12.10 31.30 C 12.10 31.00 12.40 30.80 12.70 30.90 C 13.00 30.90 13.20 31.20 13.10 31.50 L 12.60 36.00 C 12.50 36.20 12.30 36.40 12.10 36.40 Z" fill="#116fff" fill-rule="nonzero" group-id="13,14" node-id="251" stroke="none" target-height="5.6000023" target-width="1.5999994" target-x="11.6" target-y="30.8"></path><path d="M 14.10 36.40 C 13.80 36.40 13.60 36.20 13.60 36.00 L 13.10 31.50 C 13.10 31.20 13.30 31.00 13.50 30.90 C 13.80 30.90 14.00 31.10 14.10 31.30 L 14.60 35.80 C 14.60 36.10 14.40 36.40 14.10 36.40 C 14.10 36.40 14.10 36.40 14.10 36.40 Z" fill="#116fff" fill-rule="nonzero" group-id="13,14" node-id="253" stroke="none" target-height="5.500002" target-width="1.5" target-x="13.1" target-y="30.9"></path><path d="M 61.00 29.80 C 60.70 29.80 60.50 29.60 60.50 29.30 L 60.50 19.90 C 60.50 19.60 60.70 19.40 61.00 19.40 C 61.30 19.40 61.50 19.60 61.50 19.90 L 61.50 29.30 C 61.50 29.60 61.30 29.80 61.00 29.80 Z" fill="#116fff" fill-rule="nonzero" group-id="13,14" node-id="255" stroke="none" target-height="10.4" target-width="1" target-x="60.5" target-y="19.4"></path><path d="M 44.00 16.40 C 43.90 16.40 43.80 16.40 43.80 16.30 C 43.60 16.20 43.50 15.90 43.60 15.60 C 45.20 12.30 48.50 10.30 52.10 10.30 C 52.40 10.30 52.60 10.50 52.60 10.80 C 52.60 11.10 52.40 11.30 52.10 11.30 C 48.80 11.30 45.90 13.10 44.50 16.00 C 44.30 16.30 44.20 16.40 44.00 16.40 Z" fill="#116fff" fill-rule="nonzero" group-id="13,14" node-id="257" stroke="none" target-height="6.0999994" target-width="9.099998" target-x="43.5" target-y="10.3"></path><path d="M 61.00 20.40 C 60.70 20.40 60.50 20.20 60.50 19.90 C 60.50 17.80 59.70 15.80 58.30 14.20 C 56.70 12.40 54.40 11.40 52.00 11.40 C 51.70 11.40 51.50 11.20 51.50 10.90 C 51.50 10.60 51.70 10.40 52.00 10.40 C 54.70 10.40 57.30 11.60 59.10 13.60 C 60.70 15.30 61.50 17.60 61.50 19.90 C 61.50 20.20 61.30 20.40 61.00 20.40 Z" fill="#116fff" fill-rule="nonzero" group-id="13,14" node-id="259" stroke="none" target-height="10" target-width="10" target-x="51.5" target-y="10.4"></path><path d="M 47.00 20.60 C 46.80 20.60 46.60 20.50 46.50 20.20 C 46.40 19.90 46.60 19.70 46.80 19.60 C 49.10 19.00 51.40 18.00 53.70 16.70 C 56.60 15.10 58.30 13.50 58.30 13.50 C 58.50 13.30 58.80 13.30 59.00 13.50 C 59.20 13.70 59.20 14.00 59.00 14.20 C 58.90 14.30 57.20 15.80 54.20 17.50 C 51.90 18.80 49.50 19.80 47.10 20.50 C 47.10 20.60 47.10 20.60 47.00 20.60 Z" fill="#116fff" fill-rule="nonzero" group-id="13,14" node-id="261" stroke="none" target-height="7.3" target-width="12.799999" target-x="46.4" target-y="13.3"></path><path d="M 61.00 21.40 C 61.00 21.40 60.90 21.40 60.90 21.40 C 56.10 20.10 53.80 17.60 53.70 17.50 C 53.50 17.30 53.50 17.00 53.70 16.80 C 53.90 16.60 54.20 16.60 54.40 16.80 C 54.40 16.80 56.60 19.20 61.20 20.40 C 61.50 20.50 61.60 20.70 61.60 21.00 C 61.50 21.30 61.30 21.40 61.00 21.40 Z" fill="#116fff" fill-rule="nonzero" group-id="13,14" node-id="263" stroke="none" target-height="4.799999" target-width="8.099998" target-x="53.5" target-y="16.6"></path><path d="M 59.00 21.80 C 58.70 21.80 58.50 21.60 58.50 21.30 L 58.50 20.20 C 58.50 19.90 58.70 19.70 59.00 19.70 C 59.30 19.70 59.50 19.90 59.50 20.20 L 59.50 21.30 C 59.50 21.60 59.30 21.80 59.00 21.80 Z" fill="#116fff" fill-rule="nonzero" group-id="13,14" node-id="265" stroke="none" target-height="2.0999985" target-width="1" target-x="58.5" target-y="19.7"></path><path d="M 54.10 36.40 C 54.00 36.40 53.80 36.40 53.70 36.30 C 53.50 36.10 53.50 35.80 53.70 35.60 L 56.30 33.00 L 55.70 32.40 C 55.60 32.30 55.50 32.10 55.60 32.00 C 55.60 31.90 55.70 31.70 55.80 31.60 L 58.20 30.00 L 56.80 29.00 C 56.60 28.80 56.50 28.50 56.70 28.30 C 56.90 28.10 57.20 28.00 57.40 28.20 L 59.40 29.60 C 59.50 29.70 59.60 29.90 59.60 30.00 C 59.60 30.10 59.50 30.30 59.40 30.40 L 56.80 32.00 L 57.40 32.60 C 57.60 32.80 57.60 33.10 57.40 33.30 L 54.40 36.30 C 54.30 36.40 54.20 36.40 54.10 36.40 Z" fill="#116fff" fill-rule="nonzero" group-id="13,14" node-id="267" stroke="none" target-height="8.400002" target-width="6.0999985" target-x="53.5" target-y="28"></path><path d="M 50.00 36.40 C 49.90 36.40 49.70 36.40 49.60 36.30 L 46.60 33.30 C 46.40 33.10 46.40 32.80 46.60 32.60 L 47.20 32.00 L 46.70 31.70 C 46.50 31.50 46.40 31.20 46.60 31.00 C 46.80 30.80 47.10 30.70 47.30 30.90 L 48.30 31.60 C 48.40 31.70 48.50 31.80 48.50 32.00 C 48.50 32.20 48.50 32.30 48.40 32.40 L 47.80 33.00 L 50.40 35.60 C 50.60 35.80 50.60 36.10 50.40 36.30 C 50.30 36.40 50.20 36.40 50.00 36.40 Z" fill="#116fff" fill-rule="nonzero" group-id="13,14" node-id="269" stroke="none" target-height="5.700001" target-width="4.199997" target-x="46.4" target-y="30.7"></path><path d="M 52.00 32.40 C 49.80 32.40 48.70 31.30 48.60 31.30 C 48.40 31.10 48.40 30.80 48.60 30.60 C 48.80 30.40 49.10 30.40 49.30 30.60 L 49.30 30.60 C 49.30 30.60 50.20 31.50 51.90 31.50 C 53.60 31.50 54.50 30.70 54.50 30.70 C 54.70 30.50 55.00 30.50 55.20 30.70 C 55.40 30.90 55.40 31.20 55.20 31.40 C 55.40 31.30 54.20 32.40 52.00 32.40 Z" fill="#116fff" fill-rule="nonzero" group-id="13,14" node-id="271" stroke="none" target-height="2.000002" target-width="7" target-x="48.4" target-y="30.4"></path><path d="M 24.00 41.40 C 23.70 41.40 23.50 41.20 23.50 40.90 L 23.50 39.90 C 23.50 39.60 23.70 39.40 24.00 39.40 C 24.30 39.40 24.50 39.60 24.50 39.90 L 24.50 40.90 C 24.50 41.20 24.30 41.40 24.00 41.40 Z" fill="#116fff" fill-rule="nonzero" group-id="13,14" node-id="273" stroke="none" target-height="2" target-width="1" target-x="23.5" target-y="39.4"></path><path d="M 28.00 46.40 C 27.90 46.40 27.70 46.30 27.60 46.20 L 23.60 41.20 C 23.40 41.00 23.50 40.70 23.70 40.50 C 23.90 40.30 24.20 40.40 24.40 40.60 L 28.40 45.60 C 28.60 45.80 28.50 46.10 28.30 46.30 C 28.30 46.40 28.20 46.40 28.00 46.40 Z" fill="#116fff" fill-rule="nonzero" group-id="13,14" node-id="275" stroke="none" target-height="6.1000023" target-width="5.200001" target-x="23.4" target-y="40.3"></path><path d="M 28.00 46.40 C 27.80 46.40 27.60 46.30 27.60 46.10 C 27.50 45.90 27.60 45.60 27.80 45.40 L 31.80 43.40 C 32.00 43.30 32.30 43.40 32.50 43.60 C 32.60 43.80 32.50 44.10 32.30 44.30 L 28.30 46.30 C 28.20 46.40 28.10 46.40 28.00 46.40 Z" fill="#116fff" fill-rule="nonzero" group-id="13,14" node-id="277" stroke="none" target-height="3.1000023" target-width="5.0999985" target-x="27.5" target-y="43.3"></path><path d="M 41.00 41.40 C 40.70 41.40 40.50 41.20 40.50 40.90 L 40.50 39.90 C 40.50 39.60 40.70 39.40 41.00 39.40 C 41.30 39.40 41.50 39.60 41.50 39.90 L 41.50 40.90 C 41.50 41.20 41.30 41.40 41.00 41.40 Z" fill="#116fff" fill-rule="nonzero" group-id="13,14" node-id="279" stroke="none" target-height="2" target-width="1" target-x="40.5" target-y="39.4"></path><path d="M 37.00 46.40 C 36.90 46.40 36.80 46.40 36.70 46.30 C 36.50 46.10 36.40 45.80 36.60 45.60 L 40.60 40.60 C 40.80 40.40 41.10 40.30 41.30 40.50 C 41.50 40.70 41.60 41.00 41.40 41.20 L 37.40 46.20 C 37.30 46.40 37.20 46.40 37.00 46.40 Z" fill="#116fff" fill-rule="nonzero" group-id="13,14" node-id="281" stroke="none" target-height="6.1000023" target-width="5.199997" target-x="36.4" target-y="40.3"></path><path d="M 37.00 46.40 C 36.90 46.40 36.80 46.40 36.80 46.30 L 32.80 44.30 C 32.60 44.20 32.50 43.90 32.60 43.60 C 32.70 43.40 33.00 43.30 33.30 43.40 L 37.30 45.40 C 37.50 45.50 37.60 45.80 37.50 46.10 C 37.40 46.30 37.20 46.40 37.00 46.40 Z" fill="#116fff" fill-rule="nonzero" group-id="13,14" node-id="283" stroke="none" target-height="3.1000023" target-width="5.0999985" target-x="32.5" target-y="43.3"></path></svg>