<?xml version="1.0" standalone="no"?><!DOCTYPE svg PUBLIC "-//W3C//DTD SVG 1.1//EN" "http://www.w3.org/Graphics/SVG/1.1/DTD/svg11.dtd"><svg height="255" node-id="1" sillyvg="true" template-height="255" template-width="113" version="1.1" viewBox="0 0 113 255" width="113" xmlns="http://www.w3.org/2000/svg" xmlns:xlink="http://www.w3.org/1999/xlink"><defs node-id="39"></defs><g node-id="119"><path d="M 82.35 242.08 C 98.76 235.19 108.84 221.92 104.86 212.44 C 100.88 202.97 84.35 200.87 67.94 207.76 C 51.53 214.66 41.45 227.92 45.43 237.40 C 49.41 246.88 65.94 248.97 82.35 242.08 Z" fill="#d6d8e5" fill-opacity="0.4" fill-rule="nonzero" group-id="1" node-id="43" stroke="none" target-height="48.100998" target-width="67.3912" target-x="41.4488" target-y="200.871"></path></g><g node-id="120"><path d="M 38.44 215.41 C 52.74 209.40 61.52 197.84 58.06 189.59 C 54.59 181.33 40.19 179.51 25.89 185.51 C 11.59 191.52 2.81 203.08 6.28 211.33 C 9.74 219.59 24.14 221.41 38.44 215.41 Z" fill="#d6d8e5" fill-opacity="0.4" fill-rule="nonzero" group-id="2" node-id="48" stroke="none" target-height="41.899994" target-width="58.712162" target-x="2.81004" target-y="179.511"></path></g><path d="M 32.00 2.88 C 30.52 0.51 19.23 -1.00 15.52 8.51 C 14.11 12.14 14.33 21.41 13.15 27.24 C 11.97 33.07 9.15 36.36 8.15 41.09 C 7.15 45.82 8.78 53.74 20.15 55.09 C 31.52 56.44 40.30 52.49 42.99 48.86 C 45.68 45.23 45.73 37.51 42.94 33.37 C 40.15 29.23 38.02 25.85 38.09 20.45 L 32.00 2.88 Z" fill="#3a2c6d" fill-rule="nonzero" node-id="51" stroke="none" target-height="57.440025" target-width="38.57999" target-x="7.15281" target-y="-0.999922"></path><path d="M 45.53 42.92 C 45.53 42.92 48.21 61.80 43.15 75.21 C 38.09 88.62 39.49 71.76 39.49 71.76 L 40.71 67.76 C 40.71 67.76 41.71 52.32 41.31 48.54 C 40.91 44.76 40.98 41.54 40.71 41.20 C 40.44 40.86 41.71 40.29 42.25 40.20 C 42.79 40.11 45.53 42.92 45.53 42.92 Z" fill="#ffcea9" fill-rule="nonzero" node-id="53" stroke="none" target-height="48.510002" target-width="10.119999" target-x="38.0926" target-y="40.11"></path><path d="M 24.55 1.23 C 24.55 1.23 33.05 -1.22 38.20 3.38 C 39.91 4.95 41.15 6.95 41.79 9.18 C 42.43 11.41 42.45 13.77 41.84 16.00 C 41.15 18.69 39.78 22.35 37.64 22.56 C 35.50 22.77 24.55 1.23 24.55 1.23 Z" fill="#3a2c6d" fill-rule="nonzero" node-id="55" stroke="none" target-height="23.98996" target-width="17.898998" target-x="24.5527" target-y="-1.21996"></path><path d="M 21.30 24.42 C 21.30 24.42 21.86 33.89 21.68 34.59 C 21.50 35.29 17.96 35.96 16.97 36.79 C 15.98 37.62 22.12 47.22 25.25 48.65 C 28.38 50.08 38.05 46.43 38.72 41.65 C 39.34 37.22 35.95 33.77 34.65 32.57 C 33.77 32.49 32.87 32.46 31.98 32.50 L 31.69 27.91 C 27.43 26.53 21.30 24.42 21.30 24.42 Z" fill="#ffcea9" fill-rule="nonzero" node-id="57" stroke="none" target-height="25.660002" target-width="23.359999" target-x="15.983" target-y="24.42"></path><path d="M 41.31 56.37 C 41.31 58.37 41.06 61.43 40.87 63.63 C 40.77 64.84 40.68 65.81 40.64 66.21 C 40.65 66.27 40.65 66.34 40.64 66.40 C 31.35 72.16 19.85 67.22 19.85 67.22 C 19.47 66.47 19.07 65.63 18.65 64.66 C 17.57 62.22 16.31 58.98 14.65 54.66 C 12.33 48.51 13.43 40.50 13.87 38.80 C 14.29 37.34 17.34 35.92 20.00 35.51 C 23.09 37.23 25.00 41.57 34.65 44.51 C 39.15 40.15 32.65 32.51 32.65 32.51 C 33.52 32.44 34.40 32.44 35.27 32.51 C 42.56 39.67 49.87 48.88 41.31 56.37 Z" fill="#f4f4f4" fill-rule="nonzero" node-id="59" stroke="none" target-height="39.719803" target-width="37.54" target-x="12.333" target-y="32.4402"></path><path d="M 39.00 12.68 C 38.00 6.59 33.64 1.99 27.37 2.36 C 25.78 2.45 24.23 2.86 22.80 3.55 C 21.37 4.24 20.09 5.21 19.03 6.40 C 17.97 7.59 17.16 8.97 16.64 10.48 C 16.12 11.98 15.90 13.57 15.99 15.16 C 16.10 17.01 16.64 18.81 17.56 20.41 C 18.48 22.02 19.76 23.39 21.30 24.42 C 21.53 25.34 21.87 26.23 22.30 27.08 C 24.53 29.67 30.44 31.31 32.39 31.34 C 34.07 31.34 35.53 29.78 37.11 27.17 C 40.35 21.72 39.52 15.68 39.00 12.68 Z" fill="#ffcea9" fill-rule="nonzero" node-id="61" stroke="none" target-height="29.35002" target-width="24.454601" target-x="15.898" target-y="1.99008"></path><path d="M 25.43 2.47 C 21.03 3.33 17.43 4.57 16.21 8.90 C 15.39 11.90 14.32 17.55 15.34 19.90 L 15.97 21.63 L 21.31 24.38 C 21.31 24.38 23.80 22.30 23.02 16.23 C 23.05 15.41 23.31 14.61 23.77 13.92 C 24.10 13.35 24.35 12.73 24.51 12.09 C 25.14 10.45 26.38 9.11 27.96 8.35 C 31.96 6.12 37.75 8.04 38.56 8.85 C 37.44 6.44 35.52 4.49 33.13 3.33 C 30.74 2.17 28.02 1.87 25.43 2.47 L 25.43 2.47 Z" fill="#3a2c6d" fill-rule="nonzero" node-id="63" stroke="none" target-height="22.513119" target-width="24.24" target-x="14.323" target-y="1.86688"></path><path d="M 13.57 79.78 C 12.57 73.61 10.73 69.61 11.57 66.22 C 13.48 59.35 15.99 52.65 19.07 46.22 C 21.02 42.38 20.42 39.71 18.40 38.22 C 16.13 36.52 13.96 37.22 11.92 41.51 C 9.37 46.85 6.43 52.34 5.06 60.30 C 4.37 64.16 4.06 67.91 5.25 75.84 C 6.12 81.39 7.89 84.50 9.97 89.71 C 10.54 91.13 14.43 85.00 13.57 79.78 Z" fill="#ffcea9" fill-rule="nonzero" node-id="65" stroke="none" target-height="54.609997" target-width="16.96004" target-x="4.06286" target-y="36.52"></path><path d="M 17.43 194.82 C 19.66 196.64 23.13 195.38 23.29 195.55 C 25.56 197.82 28.94 199.80 31.46 201.78 C 32.85 202.88 35.01 204.34 34.62 206.44 C 33.92 210.19 27.91 209.04 25.62 207.89 C 23.33 206.74 21.50 204.84 19.35 203.50 C 17.82 202.55 16.35 202.06 16.08 200.13 C 15.94 199.00 17.03 194.78 17.43 194.82 Z" fill="#38226d" fill-rule="nonzero" node-id="67" stroke="none" target-height="15.410004" target-width="19.07" target-x="15.9426" target-y="194.78"></path><path d="M 16.12 199.35 C 16.41 201.20 17.90 201.71 19.42 202.65 C 21.60 204.01 23.52 205.96 25.79 207.11 C 27.88 208.17 33.11 209.22 34.58 206.54 C 33.78 210.16 27.87 209.03 25.63 207.89 C 23.39 206.75 21.51 204.84 19.36 203.50 C 17.83 202.55 16.36 202.06 16.09 200.13 C 16.07 199.87 16.08 199.61 16.12 199.35 L 16.12 199.35 Z" fill="#9c73ff" fill-rule="nonzero" node-id="69" stroke="none" target-height="10.809998" target-width="18.513" target-x="16.0696" target-y="199.35"></path><path d="M 33.06 191.70 C 35.06 193.36 38.18 192.43 38.33 192.58 C 40.41 194.66 43.49 196.45 45.79 198.27 C 47.06 199.27 49.05 200.61 48.69 202.53 C 48.05 205.97 42.54 204.91 40.46 203.86 C 38.38 202.81 36.69 201.06 34.72 199.86 C 33.32 198.99 31.94 198.54 31.72 196.77 C 31.59 195.68 32.69 191.66 33.06 191.70 Z" fill="#38226d" fill-rule="nonzero" node-id="71" stroke="none" target-height="14.309998" target-width="17.460001" target-x="31.593" target-y="191.66"></path><path d="M 31.75 196.00 C 32.02 197.70 33.38 198.17 34.75 199.00 C 36.75 200.24 38.51 202.00 40.59 203.08 C 42.50 204.08 47.29 205.02 48.59 202.57 C 47.86 205.88 42.45 204.84 40.39 203.80 C 38.33 202.76 36.62 201.00 34.65 199.80 C 33.25 198.93 31.87 198.48 31.65 196.71 C 31.66 196.47 31.70 196.23 31.75 196.00 L 31.75 196.00 Z" fill="#9c73ff" fill-rule="nonzero" node-id="73" stroke="none" target-height="9.880005" target-width="16.94" target-x="31.6528" target-y="196"></path><path d="M 45.07 88.00 C 44.07 80.32 41.26 69.16 41.26 69.16 C 38.58 70.41 35.69 71.13 32.73 71.28 C 27.73 71.53 19.83 70.02 19.83 70.02 C 18.45 72.43 16.93 74.77 15.29 77.02 C 13.08 80.10 8.77 86.84 9.81 98.61 C 10.49 106.30 14.81 138.97 14.81 138.97 C 13.13 144.49 12.23 150.23 12.15 156.00 C 12.15 160.75 13.45 168.83 14.85 176.30 L 17.43 194.82 C 17.43 194.82 20.85 197.29 23.29 195.55 L 22.99 177.40 C 23.28 172.96 23.72 166.40 23.99 162.22 C 24.45 155.41 25.67 144.58 25.99 141.88 C 26.31 139.18 27.21 134.46 27.62 129.16 C 28.03 123.86 30.07 97.00 30.07 97.00 L 30.34 102.00 C 30.34 102.00 30.61 110.17 31.78 120.26 C 32.95 130.35 33.37 134.82 33.37 134.82 C 32.26 136.86 31.49 139.06 31.07 141.34 C 30.86 143.52 28.37 160.77 29.86 169.54 L 32.92 191.85 C 33.69 192.38 34.56 192.71 35.48 192.83 C 36.40 192.95 37.33 192.85 38.20 192.54 L 40.00 170.06 C 41.20 161.50 43.76 143.37 44.15 141.06 C 44.66 137.96 45.09 136.43 45.68 126.68 C 46.27 116.93 46.05 95.71 45.07 88.00 Z" fill="#ffcea9" fill-rule="nonzero" node-id="75" stroke="none" target-height="128.12999" target-width="37.500008" target-x="8.77259" target-y="69.16"></path><path d="M 7.95 49.00 C 7.95 49.00 12.55 53.57 18.00 53.00 L 20.61 44.09 C 20.61 44.09 22.32 39.43 18.34 37.39 C 14.36 35.35 10.23 39.83 7.95 49.00 Z" fill="#ededed" fill-rule="nonzero" node-id="77" stroke="none" target-height="18.220001" target-width="14.369959" target-x="7.95264" target-y="35.35"></path><path d="M 35.29 32.50 C 35.29 32.50 40.55 30.90 46.13 42.55 L 44.04 43.81 C 44.04 43.81 38.55 35.50 35.29 32.50 Z" fill="#ededed" fill-rule="nonzero" node-id="79" stroke="none" target-height="12.91" target-width="10.84" target-x="35.293" target-y="30.9001"></path><path d="M 45.15 140.91 C 44.86 143.47 44.66 145.00 44.66 145.00 C 42.59 146.99 40.12 148.51 37.41 149.48 C 34.71 150.45 31.83 150.84 28.96 150.62 C 19.68 150.18 11.60 145.00 11.60 145.00 L 12.20 141.39 L 13.57 133.27 C 3.10 95.27 13.20 80.51 13.20 80.51 L 18.72 69.43 L 19.83 67.22 L 20.70 67.41 C 37.00 69.73 40.49 66.41 40.64 66.21 C 40.64 66.21 40.91 67.02 41.35 68.55 C 43.72 76.81 45.55 85.21 46.81 93.71 C 48.75 106.52 46.27 131.19 45.15 140.91 Z" fill="#8c50ff" fill-rule="nonzero" node-id="81" stroke="none" target-height="84.6279" target-width="45.64999" target-x="3.10301" target-y="66.2101"></path><path d="M 17.43 194.82 C 18.54 195.62 19.86 196.08 21.22 196.17 C 21.97 196.23 22.70 196.01 23.29 195.55 L 23.19 189.31 C 22.17 189.70 21.09 189.88 20.00 189.85 C 18.87 189.92 17.73 189.73 16.67 189.31 L 17.43 194.82 Z" fill="#f4f6f9" fill-rule="nonzero" node-id="83" stroke="none" target-height="6.9179993" target-width="6.620001" target-x="16.6729" target-y="189.31"></path><path d="M 32.90 191.94 C 33.89 192.59 35.04 192.93 36.21 192.94 C 36.90 193.00 37.58 192.88 38.21 192.60 L 38.70 186.47 C 37.66 186.86 36.55 187.04 35.43 187.00 C 34.31 187.07 33.18 186.89 32.13 186.46 L 32.90 191.94 Z" fill="#f4f6f9" fill-rule="nonzero" node-id="85" stroke="none" target-height="6.5349884" target-width="6.5699997" target-x="32.1328" target-y="186.46"></path><path d="M 41.36 68.54 C 37.65 70.17 33.63 70.95 29.58 70.84 C 25.92 70.84 22.27 70.36 18.72 69.43 L 19.83 67.22 C 19.45 66.47 19.05 65.63 18.63 64.66 C 24.13 66.42 35.07 67.53 40.86 63.66 C 40.76 64.87 40.67 65.84 40.63 66.24 C 40.63 66.24 40.92 67.00 41.36 68.54 Z" fill="#dd7a7a" fill-rule="nonzero" node-id="87" stroke="none" target-height="7.291401" target-width="22.730001" target-x="18.6328" target-y="63.66"></path><path d="M 104.07 72.25 C 104.47 75.72 108.60 90.68 107.71 95.80 C 106.82 100.92 92.71 109.50 92.71 109.50 L 90.71 100.73 L 98.53 93.06 L 96.43 78.53 L 104.07 72.25 Z" fill="#ffcea9" fill-rule="nonzero" node-id="89" stroke="none" target-height="37.25" target-width="17.890099" target-x="90.7129" target-y="72.25"></path><path d="M 105.43 77.16 C 105.14 77.52 104.83 77.85 104.49 78.16 L 104.49 78.21 C 103.51 79.16 102.32 79.87 101.01 80.29 L 101.01 80.29 C 100.11 80.55 99.16 80.62 98.23 80.47 L 97.60 77.62 L 93.22 57.46 C 94.60 56.82 96.15 56.71 97.60 57.15 C 99.05 57.59 100.29 58.54 101.08 59.83 C 102.25 61.75 103.43 66.26 104.28 70.24 C 104.88 73.45 105.35 76.26 105.43 77.16 Z" fill="#434b5b" fill-rule="nonzero" node-id="91" stroke="none" target-height="23.904797" target-width="12.210297" target-x="93.2227" target-y="56.7111"></path><path d="M 76.99 224.32 C 73.92 225.17 70.63 224.77 67.84 223.21 C 65.64 223.28 53.68 218.21 52.05 222.46 C 50.63 226.22 55.81 229.71 58.58 230.38 C 64.58 231.84 69.09 234.86 71.51 235.38 C 73.32 235.76 75.66 236.01 77.10 234.59 C 78.83 232.87 78.68 226.56 76.99 224.32 Z" fill="#c1c4d3" fill-rule="nonzero" node-id="93" stroke="none" target-height="17.799988" target-width="28.2" target-x="50.6328" target-y="218.21"></path><path d="M 71.51 234.32 C 69.09 233.81 64.62 230.80 58.58 229.32 C 56.26 228.75 52.26 226.22 51.86 223.19 C 51.32 226.66 55.99 229.73 58.58 230.36 C 64.58 231.82 69.09 234.84 71.51 235.36 C 73.32 235.74 75.66 235.99 77.10 234.57 C 77.48 234.16 77.76 233.66 77.90 233.12 C 77.00 233.80 75.96 234.27 74.85 234.48 C 73.74 234.69 72.60 234.63 71.51 234.32 L 71.51 234.32 Z" fill="#a7abb7" fill-rule="nonzero" node-id="95" stroke="none" target-height="12.800003" target-width="26.580002" target-x="51.3229" target-y="223.19"></path><path d="M 96.43 215.61 C 93.36 216.46 90.07 216.06 87.28 214.50 C 85.08 214.57 73.12 209.45 71.49 213.74 C 70.07 217.51 75.25 221.00 78.02 221.67 C 84.02 223.13 88.53 226.15 90.95 226.67 C 92.76 227.05 95.10 227.30 96.54 225.88 C 98.23 224.16 98.08 217.85 96.43 215.61 Z" fill="#c1c4d3" fill-rule="nonzero" node-id="97" stroke="none" target-height="17.850006" target-width="28.160004" target-x="70.0728" target-y="209.45"></path><path d="M 90.91 225.61 C 88.49 225.10 84.02 222.09 77.98 220.61 C 75.66 220.04 71.66 217.50 71.26 214.48 C 70.72 218.00 75.43 221.00 77.98 221.67 C 83.98 223.13 88.49 226.15 90.91 226.67 C 92.72 227.05 95.06 227.30 96.50 225.88 C 96.88 225.47 97.15 224.97 97.30 224.43 C 96.40 225.11 95.36 225.57 94.25 225.78 C 93.14 225.98 92.00 225.92 90.91 225.61 L 90.91 225.61 Z" fill="#a7abb7" fill-rule="nonzero" node-id="99" stroke="none" target-height="12.820007" target-width="26.580002" target-x="70.7229" target-y="214.48"></path><path d="M 96.63 183.11 C 96.12 178.66 95.19 174.28 93.87 170.00 C 93.87 170.00 94.69 158.69 95.10 148.00 C 95.57 135.83 99.79 125.12 96.46 115.42 L 58.93 123.76 C 58.93 123.76 61.20 172.25 61.70 178.12 C 62.00 182.69 62.58 187.23 63.43 191.73 C 65.14 201.15 67.92 223.54 67.92 223.54 C 71.92 225.85 77.10 224.54 77.10 224.54 C 77.10 224.54 76.82 196.22 76.56 189.44 C 76.25 181.16 76.00 181.79 76.00 181.79 L 77.24 161.16 L 78.05 150.90 C 78.05 150.90 79.05 158.43 79.76 165.16 C 80.35 171.02 81.76 176.33 83.35 187.25 C 84.72 196.72 86.95 215.76 86.95 215.76 C 90.95 218.06 96.31 216.15 96.31 216.15 C 96.31 216.15 97.70 191.33 96.63 183.11 Z" fill="#916f5d" fill-rule="nonzero" node-id="101" stroke="none" target-height="110.43001" target-width="40.860004" target-x="58.9326" target-y="115.42"></path><path d="M 91.15 57.71 C 88.29 57.85 86.15 58.58 85.80 57.71 C 85.49 56.23 85.28 54.74 85.15 53.24 C 85.48 52.42 85.76 51.52 85.76 51.52 C 89.35 49.32 90.49 45.44 90.96 40.92 C 91.76 33.20 87.59 26.44 79.87 25.63 C 72.61 24.88 67.27 29.98 65.87 36.98 C 65.10 40.44 63.57 46.98 65.64 52.66 C 66.79 55.84 68.28 58.37 69.77 58.86 C 71.21 58.82 72.64 58.70 74.06 58.48 L 74.06 58.48 C 74.06 58.48 74.44 60.62 74.71 62.00 C 74.98 63.38 74.87 64.10 72.13 65.79 C 69.39 67.48 76.27 70.95 80.77 70.61 C 85.27 70.27 90.33 67.55 91.77 64.61 C 93.24 61.44 93.11 57.61 91.15 57.71 Z" fill="#ffcea9" fill-rule="nonzero" node-id="103" stroke="none" target-height="46.070004" target-width="29.669998" target-x="63.5726" target-y="24.8801"></path><path d="M 105.43 77.16 C 105.14 77.52 104.83 77.85 104.49 78.16 L 104.49 78.21 C 103.45 79.09 102.28 79.79 101.01 80.29 L 101.01 80.29 C 100.23 80.59 99.42 80.79 98.58 80.88 L 95.97 78.55 C 96.54 78.28 97.08 77.97 97.60 77.62 C 99.36 76.46 100.91 75.02 102.20 73.36 C 103.00 72.39 103.69 71.35 104.28 70.24 C 104.88 73.45 105.35 76.26 105.43 77.16 Z" fill="#d5d7e2" fill-rule="nonzero" node-id="105" stroke="none" target-height="10.639999" target-width="9.460297" target-x="95.9727" target-y="70.24"></path><path d="M 96.89 97.00 C 95.08 103.43 96.39 105.25 96.48 116.41 C 93.33 121.69 80.36 128.50 72.66 129.14 C 64.96 129.78 58.94 123.76 58.94 123.76 C 58.50 120.50 58.55 101.61 59.05 88.88 C 59.49 77.88 60.91 71.36 64.14 69.11 C 65.91 68.00 67.74 67.00 69.62 66.11 C 72.02 64.92 74.26 63.90 74.54 63.77 C 74.54 63.79 74.54 63.81 74.54 63.83 L 74.54 63.83 C 74.67 64.16 75.54 65.77 80.37 64.25 C 85.67 62.59 87.69 60.20 86.98 58.25 C 86.99 58.23 86.99 58.20 86.98 58.18 C 87.23 58.18 89.15 57.86 91.34 57.68 C 92.20 57.60 93.11 57.55 93.96 57.52 C 97.16 57.44 99.47 58.44 101.13 66.52 C 103.20 76.24 101.02 82.27 96.89 97.00 Z" fill="#434b5b" fill-rule="nonzero" node-id="107" stroke="none" target-height="72.34" target-width="44.7004" target-x="58.5026" target-y="57.44"></path><path d="M 46.94 99.40 C 53.26 100.99 54.75 97.01 55.58 93.71 C 57.58 85.71 58.68 78.49 60.18 73.96 C 61.94 68.60 63.79 67.75 66.39 66.71 C 69.45 65.49 72.07 68.07 71.06 74.88 C 69.85 82.93 68.28 88.59 65.26 98.12 C 64.48 100.61 62.71 105.04 60.07 107.12 C 56.81 109.76 51.89 109.65 44.46 107.80 C 41.29 107.01 37.81 105.11 31.81 102.32 C 30.20 101.57 28.95 101.07 25.86 99.63 C 22.76 98.24 20.04 96.11 17.94 93.44 C 16.31 91.09 16.10 89.99 16.43 89.44 C 16.76 88.89 17.58 88.92 18.43 89.90 C 19.68 91.57 21.22 92.99 22.98 94.11 C 22.98 94.11 20.98 92.05 19.90 90.71 C 18.94 89.52 18.13 88.20 17.51 86.80 C 16.94 85.43 18.12 83.58 19.01 84.55 C 19.90 85.52 20.34 86.55 22.01 88.48 C 22.88 89.52 23.86 90.46 24.94 91.27 C 23.93 89.90 23.03 88.45 22.24 86.93 C 21.53 85.75 21.19 84.39 21.24 83.01 C 21.24 82.29 22.29 81.44 23.24 82.80 C 24.09 84.01 24.65 85.92 26.63 87.98 C 28.08 89.48 29.31 90.34 29.34 89.93 C 29.37 89.52 28.47 88.69 27.95 86.93 C 27.43 85.17 27.95 83.34 28.95 83.13 C 29.95 82.92 29.73 82.99 30.50 84.62 C 31.27 86.25 32.50 87.46 33.37 89.84 C 33.87 91.52 34.76 93.06 35.97 94.32 C 37.49 96.06 40.93 97.89 46.94 99.40 Z" fill="#ffcea9" fill-rule="nonzero" node-id="109" stroke="none" target-height="44.270004" target-width="55.97" target-x="16.1028" target-y="65.49"></path><path d="M 66.09 36.00 C 66.09 36.00 59.43 25.85 73.88 23.78 C 84.30 22.29 91.00 28.99 91.78 36.26 C 92.52 43.20 88.24 50.41 85.15 53.26 C 83.65 53.80 80.40 54.11 76.15 52.18 C 75.98 50.29 75.91 48.39 75.95 46.49 C 75.95 46.49 81.02 35.81 66.09 36.00 Z" fill="#3a4151" fill-rule="nonzero" node-id="111" stroke="none" target-height="31.82" target-width="33.089996" target-x="59.4328" target-y="22.29"></path><path d="M 91.12 61.13 C 89.80 63.78 86.22 66.20 81.55 67.59 C 79.93 68.10 78.25 68.37 76.55 68.39 C 74.07 68.21 71.66 67.42 69.55 66.09 C 71.95 64.90 74.19 63.88 74.47 63.75 C 75.28 64.29 77.01 64.95 80.24 63.99 C 83.98 62.86 86.93 61.27 86.91 58.16 L 86.91 58.09 C 87.16 58.09 89.08 57.77 91.27 57.59 C 91.51 58.16 91.62 58.77 91.59 59.38 C 91.56 59.99 91.40 60.59 91.12 61.13 L 91.12 61.13 Z" fill="#d5d7e2" fill-rule="nonzero" node-id="113" stroke="none" target-height="10.799999" target-width="22.063507" target-x="69.5527" target-y="57.59"></path><path d="M 72.71 77.18 C 72.26 79.55 71.71 82.51 71.19 84.80 C 70.77 86.92 70.44 88.45 70.44 88.45 C 70.44 88.45 68.63 90.87 63.57 89.64 C 60.70 89.03 58.17 87.35 56.49 84.94 C 56.49 84.94 56.82 83.63 57.37 81.55 C 57.92 79.47 58.73 76.55 59.66 73.30 C 61.53 66.90 64.51 64.99 68.74 65.62 C 73.96 66.39 73.59 72.61 72.71 77.18 Z" fill="#434b5b" fill-rule="nonzero" node-id="115" stroke="none" target-height="25.880005" target-width="17.470001" target-x="56.4927" target-y="64.9901"></path><path d="M 71.19 84.80 C 70.77 86.92 70.44 88.45 70.44 88.45 C 70.44 88.45 68.63 90.87 63.57 89.64 C 60.70 89.03 58.17 87.35 56.49 84.94 C 56.49 84.94 56.82 83.63 57.37 81.55 C 59.27 83.54 61.74 84.90 64.43 85.44 C 66.70 85.97 69.07 85.75 71.19 84.80 Z" fill="#d5d7e2" fill-rule="nonzero" node-id="117" stroke="none" target-height="9.32" target-width="14.700005" target-x="56.4927" target-y="81.55"></path></svg>