<?xml version="1.0" standalone="no"?><!DOCTYPE svg PUBLIC "-//W3C//DTD SVG 1.1//EN" "http://www.w3.org/Graphics/SVG/1.1/DTD/svg11.dtd"><svg height="126" node-id="1" sillyvg="true" template-height="126" template-width="126" version="1.1" viewBox="0 0 126 126" width="126" xmlns="http://www.w3.org/2000/svg" xmlns:xlink="http://www.w3.org/1999/xlink"><defs node-id="556"></defs><path d="M 106.75 58.97 C 105.34 59.17 91.93 54.78 90.50 48.77 C 89.08 42.75 78.35 36.48 73.78 38.03 C 69.21 39.58 63.22 37.92 63.22 37.92 L 59.44 36.10 L 58.58 35.69 L 58.58 35.69 L 1.00 68.93 L 65.03 106.15 L 120.98 73.85 C 122.55 72.94 123.85 71.60 124.53 69.93 C 128.31 60.70 108.05 58.79 106.75 58.97 Z" fill="#f3f6fd" fill-rule="nonzero" node-id="562" stroke="none" target-height="70.4629" target-width="127.30611" target-x="1" target-y="35.6873"></path><g node-id="1977"><path d="M 57.48 98.32 C 58.91 96.96 59.78 96.12 61.30 95.22 C 61.31 95.21 61.31 95.20 61.31 95.19 C 61.47 95.20 61.63 95.22 61.73 95.27 C 61.92 95.35 62.02 95.38 62.17 95.39 C 62.31 95.40 62.52 95.44 62.61 95.48 C 62.71 95.52 62.79 95.60 62.82 95.58 C 62.99 95.45 62.58 95.20 62.48 95.16 C 62.39 95.12 62.29 95.12 62.21 95.07 C 62.14 95.02 62.29 94.95 62.46 94.93 C 62.63 94.91 63.21 94.77 63.34 94.71 C 63.47 94.65 63.48 94.57 63.33 94.53 C 63.19 94.49 62.60 94.61 62.47 94.62 C 62.35 94.64 62.37 94.58 62.39 94.57 C 62.63 94.51 63.14 94.32 63.30 94.22 C 63.46 94.12 63.31 94.04 63.28 94.05 C 63.04 94.09 62.46 94.25 62.31 94.28 C 62.15 94.30 62.21 94.25 62.22 94.25 C 62.36 94.15 62.74 94.02 62.87 93.95 C 63.00 93.88 63.06 93.90 62.93 93.74 C 62.80 93.58 62.10 93.97 62.02 94.01 C 61.94 94.06 61.87 94.04 61.92 93.97 C 61.97 93.91 62.36 93.71 62.42 93.64 C 62.47 93.58 62.53 93.51 62.37 93.48 C 62.21 93.46 61.87 93.70 61.69 93.80 C 61.51 93.89 61.25 94.02 61.13 94.18 C 61.07 94.25 61.01 94.30 60.94 94.34 C 60.93 94.34 60.92 94.33 60.92 94.32 C 59.97 94.41 59.22 94.81 58.49 95.21 C 58.77 94.72 58.98 94.32 59.08 94.11 L 59.08 94.11 C 59.08 94.11 60.74 92.11 61.33 88.53 C 61.40 88.08 61.54 87.67 61.73 87.28 C 62.14 86.43 63.90 83.11 63.71 82.86 C 64.67 82.57 65.28 82.86 66.46 82.46 C 67.73 82.02 67.39 81.58 67.39 81.58 C 67.24 81.09 63.40 80.91 63.02 80.99 C 62.94 81.00 62.75 81.19 62.66 81.32 C 62.63 81.35 62.61 81.38 62.60 81.40 C 62.43 81.66 62.41 82.01 62.41 82.18 C 62.39 82.17 62.38 82.16 62.37 82.15 C 62.37 82.15 62.36 82.16 62.34 82.17 C 62.15 82.03 61.77 81.73 61.61 81.60 C 61.63 81.59 61.72 81.46 61.74 81.44 C 61.77 81.41 60.49 80.16 60.11 80.24 C 60.03 80.26 59.84 80.45 59.75 80.58 C 59.72 80.60 59.70 80.63 59.69 80.65 C 59.53 80.89 59.50 81.21 59.50 81.39 C 59.49 81.39 59.48 81.38 59.48 81.38 C 59.48 81.38 57.21 83.25 56.47 85.15 C 56.23 85.77 55.94 86.36 55.54 86.87 C 55.05 87.49 54.36 88.25 53.54 88.74 C 52.72 89.23 52.39 89.89 52.27 90.46 C 52.26 90.46 52.26 90.46 52.26 90.46 C 51.88 90.84 50.53 94.30 48.76 96.12 C 48.61 96.21 48.47 96.32 48.33 96.44 L 58.24 102.20 C 57.74 101.46 57.05 100.60 56.33 99.76 C 56.81 99.16 57.21 98.58 57.48 98.32 Z M 58.84 86.50 C 59.38 85.39 60.45 83.21 60.82 82.76 C 60.82 82.76 60.81 82.75 60.81 82.75 C 61.09 82.79 61.32 82.85 61.52 82.94 C 60.81 83.64 59.85 84.74 59.39 85.86 C 59.30 86.09 59.01 86.52 58.63 87.01 C 58.70 86.84 58.76 86.67 58.84 86.50 Z" fill="#e1e9f4" fill-rule="nonzero" group-id="1" node-id="566" stroke="none" target-height="22.039604" target-width="19.398705" target-x="48.3332" target-y="80.1633"></path></g><g node-id="1978"><path d="M 93.18 79.80 L 93.18 81.55 L 88.33 84.36 L 78.29 78.53 L 78.29 76.77 Z" fill="#e1e9f4" fill-rule="nonzero" group-id="2" node-id="571" stroke="none" target-height="7.5899963" target-width="14.892998" target-x="78.2911" target-y="76.7683"></path></g><path d="M 53.10 63.27 C 53.09 63.42 41.33 64.70 41.33 64.55 L 41.33 64.93 C 41.33 65.09 41.43 65.24 41.64 65.36 L 46.35 68.08 C 46.75 68.32 47.42 68.31 47.82 68.08 L 54.24 64.35 C 54.41 64.25 54.53 64.11 54.54 63.96 L 54.78 61.09 L 54.78 60.71 L 53.10 63.27 Z" fill="#e1e9f4" fill-rule="nonzero" node-id="574" stroke="none" target-height="7.6096992" target-width="13.4501" target-x="41.3287" target-y="60.7075"></path><path d="M 50.94 53.28 L 48.20 54.15 L 46.49 54.70 L 43.76 55.57 L 40.41 53.43 L 37.62 57.52 L 35.91 58.06 L 33.18 58.93 L 26.00 60.15 L 26.16 69.53 L 30.62 68.11 L 31.53 67.82 L 30.30 69.28 L 30.29 74.34 L 33.02 73.47 L 34.73 72.93 L 37.47 72.06 L 44.48 66.52 L 44.48 66.02 L 50.93 58.34 Z" fill="#e1e9f4" fill-rule="nonzero" group-id="3,6,15,36,75" node-id="586" stroke="none" target-height="21.0621" target-width="24.9407" target-x="26.0015" target-y="53.2801"></path><path d="M 114.38 77.66 L 77.93 56.76 L 69.21 61.80 L 105.66 82.69 L 105.13 83.00 L 68.69 62.10 L 41.49 77.80 L 77.93 98.70 L 77.41 99.00 L 40.96 78.10 L 32.25 83.14 L 68.69 104.04 L 68.17 104.34 L 3.89 67.26 L 4.41 66.96 L 31.83 82.90 L 40.55 77.87 L 13.13 61.93 L 13.65 61.62 L 41.07 77.56 L 49.87 72.48 L 22.45 56.55 L 22.82 56.33 L 50.24 72.27 L 59.12 67.15 L 31.69 51.21 L 32.06 51.00 L 59.48 66.93 L 68.28 61.86 L 40.85 45.92 L 41.38 45.62 L 68.80 61.56 L 77.52 56.52 L 50.10 40.58 L 50.62 40.28 L 114.90 77.36 Z" fill="#fdfeff" fill-rule="nonzero" node-id="593" stroke="none" target-height="64.05881" target-width="111.0124" target-x="3.8887" target-y="40.2804"></path><path d="M 64.20 49.56 L 101.31 71.13 C 102.73 71.95 102.73 74.01 101.31 74.83 L 95.71 78.06 C 95.05 78.44 94.23 78.44 93.57 78.06 L 56.46 56.49 C 55.04 55.67 55.04 53.61 56.46 52.79 L 62.06 49.56 C 62.72 49.18 63.54 49.18 64.20 49.56 Z" fill="#e1e9f4" fill-rule="nonzero" node-id="595" stroke="none" target-height="29.266705" target-width="47.697895" target-x="55.0367" target-y="49.1778"></path><path d="M 80.93 70.92 L 68.04 63.44 L 60.43 67.83 L 73.32 75.31 Z" fill="#b6cbea" fill-rule="nonzero" group-id="4,7,16,37,76,139" node-id="609" stroke="none" target-height="11.874195" target-width="20.495197" target-x="60.4343" target-y="63.4396"></path><path d="M 73.32 75.31 L 60.43 67.83 L 60.44 68.90 L 73.33 76.38 Z" fill="#9eb5df" fill-rule="nonzero" group-id="4,7,16,37,76,140" node-id="614" stroke="none" target-height="8.5532" target-width="12.893398" target-x="60.4343" target-y="67.8302"></path><path d="M 78.69 61.06 L 65.80 53.58 L 68.48 62.50 L 81.37 69.98 Z" fill="#83a1cc" fill-rule="nonzero" group-id="4,7,16,37,76,141" node-id="619" stroke="none" target-height="16.400303" target-width="15.578102" target-x="65.7966" target-y="53.5806"></path><path d="M 81.30 70.49 C 81.21 70.68 81.08 70.84 80.93 70.92 L 68.04 63.44 C 68.19 63.35 68.32 63.20 68.41 63.01 C 68.50 62.82 68.52 62.63 68.48 62.50 L 68.26 61.75 L 81.15 69.23 L 81.38 69.98 C 81.42 70.12 81.39 70.31 81.30 70.49 Z" fill="#83a1cc" fill-rule="nonzero" group-id="4,7,16,37,76,142" node-id="624" stroke="none" target-height="9.1744" target-width="13.378799" target-x="68.0386" target-y="61.7482"></path><path d="M 79.58 60.25 L 78.69 61.06 L 81.37 69.98 C 81.42 70.12 81.39 70.31 81.30 70.49 C 81.21 70.68 81.08 70.84 80.93 70.92 L 73.32 75.31 L 73.33 76.38 L 80.93 71.99 C 81.38 71.74 81.78 71.27 82.05 70.70 C 82.31 70.14 82.39 69.58 82.27 69.16 L 79.58 60.25 Z" fill="#83a1cc" fill-rule="nonzero" group-id="4,7,16,37,76,143" node-id="629" stroke="none" target-height="16.1375" target-width="9.0681" target-x="73.3246" target-y="60.2458"></path><path d="M 95.13 75.00 L 96.33 74.30 C 96.59 74.15 96.75 73.84 96.75 73.39 L 96.76 69.68 L 95.55 70.38 L 95.54 74.09 C 95.54 74.54 95.38 74.85 95.13 75.00 Z" fill="#83a1cc" fill-rule="nonzero" group-id="4,7,16,38,77,144" node-id="640" stroke="none" target-height="5.3181" target-width="1.6278992" target-x="95.1318" target-y="69.6796"></path><path d="M 54.30 46.56 L 54.29 50.28 C 54.28 51.17 54.91 52.26 55.70 52.71 L 94.13 74.90 C 94.90 75.35 95.54 74.99 95.54 74.09 L 95.55 70.38 L 54.30 46.56 Z" fill="#b6cbea" fill-rule="nonzero" group-id="4,7,16,38,77,145" node-id="645" stroke="none" target-height="28.789299" target-width="41.268803" target-x="54.284" target-y="46.5606"></path><path d="M 73.95 59.56 C 74.46 59.85 74.86 60.56 74.86 61.14 C 74.86 61.71 74.45 61.95 73.95 61.66 C 73.44 61.37 73.04 60.66 73.04 60.08 C 73.04 59.51 73.45 59.27 73.95 59.56 Z" fill="#83a1cc" fill-rule="nonzero" group-id="4,7,16,38,77,146" node-id="650" stroke="none" target-height="2.6731987" target-width="1.8248978" target-x="73.038" target-y="59.2731"></path><path d="M 95.55 70.38 L 96.76 69.68 L 55.98 45.58 L 54.30 46.56 Z" fill="#dee7f8" fill-rule="nonzero" group-id="4,7,16,38,77,147" node-id="655" stroke="none" target-height="24.797302" target-width="42.4611" target-x="54.297" target-y="45.5823"></path><path d="M 55.79 20.74 C 55.01 20.29 54.37 20.65 54.37 21.55 L 54.30 46.56 L 95.55 70.38 L 95.62 45.37 C 95.63 44.47 95.00 43.38 94.22 42.93 L 55.79 20.74 Z" fill="#2a2a5e" fill-rule="nonzero" group-id="4,7,16,38,77,148" node-id="660" stroke="none" target-height="50.0871" target-width="41.329098" target-x="54.297" target-y="20.2925"></path><path d="M 54.78 20.65 C 55.04 20.50 55.39 20.52 55.78 20.74 L 94.22 42.93 C 95.00 43.38 95.63 44.47 95.63 45.37 L 95.55 70.38 L 96.76 69.68 L 96.83 44.67 C 96.83 43.77 96.20 42.68 95.42 42.23 L 56.99 20.04 C 56.60 19.82 56.24 19.79 55.99 19.95 L 54.78 20.65 Z" fill="#6262aa" fill-rule="nonzero" group-id="4,7,16,38,77,149" node-id="665" stroke="none" target-height="50.585403" target-width="42.0509" target-x="54.7805" target-y="19.7948"></path><path d="M 55.46 22.60 L 55.39 45.93 L 94.46 68.49 L 94.53 45.15 Z" fill="#dee7f8" fill-rule="nonzero" group-id="4,7,16" node-id="670" stroke="none" target-height="45.890503" target-width="39.1381" target-x="55.3937" target-y="22.596"></path><path d="M 66.05 37.97 L 57.09 32.79 L 57.06 44.43 L 66.05 49.62 Z" fill="#ffffff" fill-rule="nonzero" group-id="4,7,16" node-id="672" stroke="none" target-height="16.8289" target-width="8.990097" target-x="57.0559" target-y="32.7948"></path><path d="M 59.19 42.93 L 59.19 42.93 L 59.19 42.93 Z" fill="#dee7f8" fill-rule="nonzero" group-id="4,7,16,39,78" node-id="678" stroke="none" target-height="0.0004005432" target-width="0.0004005432" target-x="59.1871" target-y="42.9285"></path><path d="M 59.88 43.72 L 59.88 43.72 L 59.88 43.72 Z" fill="#dee7f8" fill-rule="nonzero" group-id="4,7,16,39,79" node-id="683" stroke="none" target-height="0.000102996826" target-width="0" target-x="59.8812" target-y="43.7175"></path><path d="M 59.52 42.93 C 59.53 42.95 59.55 42.96 59.57 42.97 C 59.55 42.96 59.53 42.95 59.52 42.93 Z" fill="#1e72c6" fill-rule="nonzero" group-id="4,7,16,39,80" node-id="688" stroke="none" target-height="0.041301727" target-width="0.04750061" target-x="59.5178" target-y="42.9333"></path><path d="M 59.47 42.88 C 59.49 42.90 59.50 42.92 59.52 42.93 C 59.50 42.92 59.49 42.90 59.47 42.88 Z" fill="#1e72c6" fill-rule="nonzero" group-id="4,7,16,39,81" node-id="693" stroke="none" target-height="0.048301697" target-width="0.04719925" target-x="59.4706" target-y="42.885"></path><path d="M 62.36 45.09 C 62.26 45.02 62.18 44.91 62.11 44.79 C 62.18 44.91 62.26 45.02 62.36 45.09 Z" fill="#1e72c6" fill-rule="nonzero" group-id="4,7,16,39,82" node-id="698" stroke="none" target-height="0.2997017" target-width="0.25389862" target-x="62.1101" target-y="44.7869"></path><path d="M 63.54 45.19 C 63.55 45.20 63.56 45.21 63.57 45.22 C 63.56 45.21 63.55 45.20 63.54 45.19 Z" fill="#1e72c6" fill-rule="nonzero" group-id="4,7,16,39,83" node-id="703" stroke="none" target-height="0.033000946" target-width="0.023700714" target-x="63.544" target-y="45.189"></path><path d="M 63.62 45.28 C 63.66 45.33 63.71 45.37 63.76 45.40 C 63.71 45.37 63.66 45.33 63.62 45.28 Z" fill="#1e72c6" fill-rule="nonzero" group-id="4,7,16,39,84" node-id="708" stroke="none" target-height="0.11980057" target-width="0.14039993" target-x="63.6182" target-y="45.2832"></path><path d="M 64.24 45.20 C 64.26 45.22 64.27 45.23 64.28 45.25 C 64.27 45.23 64.26 45.22 64.24 45.20 Z" fill="#1e72c6" fill-rule="nonzero" group-id="4,7,16,39,85" node-id="713" stroke="none" target-height="0.046798706" target-width="0.04210663" target-x="64.2429" target-y="45.2027"></path><path d="M 64.31 45.27 C 64.34 45.30 64.37 45.33 64.41 45.35 C 64.37 45.33 64.34 45.30 64.31 45.27 Z" fill="#1e72c6" fill-rule="nonzero" group-id="4,7,16,39,86" node-id="718" stroke="none" target-height="0.07979965" target-width="0.10359955" target-x="64.3069" target-y="45.2711"></path><path d="M 64.78 45.34 C 64.79 45.33 64.79 45.33 64.80 45.32 C 64.79 45.33 64.79 45.33 64.78 45.34 Z" fill="#1e72c6" fill-rule="nonzero" group-id="4,7,16,39,87" node-id="723" stroke="none" target-height="0.017002106" target-width="0.016098022" target-x="64.7796" target-y="45.3233"></path><path d="M 58.59 41.84 C 58.60 41.82 58.60 41.81 58.61 41.79 C 58.60 41.81 58.60 41.82 58.59 41.84 Z" fill="#1e72c6" fill-rule="nonzero" group-id="4,7,16,39,88,150" node-id="730" stroke="none" target-height="0.04599762" target-width="0.015598297" target-x="58.5945" target-y="41.7927"></path><path d="M 58.57 41.92 C 58.57 41.92 58.57 41.92 58.57 41.92 C 58.58 41.87 58.60 41.83 58.61 41.78 C 58.61 41.78 58.61 41.79 58.61 41.79 C 58.60 41.81 58.60 41.82 58.59 41.84 C 58.59 41.86 58.58 41.89 58.57 41.91 L 58.57 41.91 C 58.57 41.92 58.57 41.92 58.57 41.92 Z" fill="#a6c2ff" fill-rule="nonzero" group-id="4,7,16,39,88,151" node-id="735" stroke="none" target-height="0.1446991" target-width="0.048801422" target-x="58.5659" target-y="41.7794"></path><path d="M 62.85 45.08 C 62.92 45.18 63.00 45.27 63.09 45.33 C 63.00 45.27 62.92 45.18 62.85 45.08 Z" fill="#1e72c6" fill-rule="nonzero" group-id="4,7,16,39,89,152" node-id="743" stroke="none" target-height="0.24440002" target-width="0.23970032" target-x="62.8517" target-y="45.081"></path><path d="M 64.80 45.32 C 64.80 45.35 64.81 45.38 64.82 45.41 C 64.83 45.45 64.84 45.50 64.85 45.54 C 64.81 45.62 64.74 45.69 64.66 45.70 C 64.58 45.72 64.50 45.70 64.42 45.65 C 64.35 45.61 64.28 45.55 64.23 45.48 C 64.20 45.65 64.10 45.77 63.95 45.77 C 63.89 45.76 63.83 45.74 63.77 45.71 C 63.68 45.66 63.60 45.57 63.53 45.47 C 63.49 45.62 63.38 45.71 63.22 45.68 C 63.18 45.67 63.14 45.65 63.10 45.63 C 62.99 45.56 62.88 45.45 62.81 45.31 C 62.75 45.45 62.63 45.51 62.47 45.44 C 62.45 45.43 62.43 45.42 62.41 45.41 C 62.27 45.33 62.15 45.18 62.08 45.02 C 62.00 45.13 61.87 45.16 61.71 45.07 C 61.54 44.97 61.41 44.79 61.34 44.59 C 61.26 44.67 61.14 44.68 61.00 44.60 C 60.98 44.59 60.96 44.58 60.94 44.56 C 60.78 44.44 60.66 44.24 60.60 44.03 C 60.53 44.09 60.42 44.08 60.31 44.02 C 60.27 43.99 60.23 43.96 60.19 43.93 C 60.03 43.78 59.92 43.56 59.88 43.36 C 59.81 43.39 59.73 43.37 59.64 43.32 C 59.58 43.29 59.52 43.24 59.46 43.17 C 59.31 43.00 59.21 42.77 59.19 42.57 C 59.13 42.58 59.06 42.56 58.99 42.52 C 58.92 42.48 58.83 42.40 58.76 42.30 C 58.67 42.18 58.61 42.05 58.57 41.91 C 58.58 41.89 58.59 41.86 58.59 41.84 C 58.60 41.82 58.60 41.81 58.61 41.79 C 58.61 41.79 58.61 41.78 58.61 41.78 C 58.62 41.77 58.62 41.77 58.62 41.76 C 58.66 41.84 58.70 41.93 58.76 42.00 C 58.77 42.01 58.77 42.02 58.78 42.03 C 58.82 42.08 58.86 42.13 58.91 42.16 C 58.93 42.18 58.94 42.19 58.95 42.20 C 58.97 42.21 58.98 42.22 58.99 42.22 C 59.06 42.26 59.11 42.28 59.16 42.28 C 59.18 42.27 59.18 42.27 59.19 42.27 C 59.21 42.47 59.31 42.70 59.46 42.87 C 59.50 42.92 59.53 42.95 59.57 42.97 C 59.57 42.98 59.58 42.98 59.58 42.99 C 59.59 42.99 59.60 43.00 59.61 43.01 C 59.62 43.01 59.63 43.02 59.64 43.02 C 59.73 43.08 59.82 43.09 59.88 43.06 C 59.92 43.26 60.03 43.48 60.19 43.63 C 60.20 43.64 60.20 43.64 60.21 43.65 C 60.22 43.66 60.23 43.66 60.24 43.67 C 60.25 43.68 60.26 43.69 60.27 43.69 C 60.28 43.70 60.29 43.71 60.30 43.72 C 60.32 43.72 60.32 43.73 60.33 43.73 C 60.44 43.78 60.53 43.79 60.60 43.74 C 60.66 43.94 60.78 44.14 60.94 44.26 C 60.96 44.28 60.98 44.29 61.00 44.30 C 61.09 44.36 61.18 44.37 61.25 44.35 C 61.28 44.34 61.31 44.32 61.34 44.29 C 61.34 44.30 61.35 44.32 61.35 44.33 C 61.36 44.35 61.36 44.36 61.37 44.38 C 61.38 44.39 61.38 44.40 61.39 44.41 C 61.46 44.55 61.56 44.67 61.67 44.75 C 61.68 44.76 61.69 44.76 61.70 44.77 C 61.72 44.78 61.72 44.78 61.73 44.78 C 61.88 44.86 62.01 44.83 62.08 44.72 C 62.08 44.74 62.09 44.76 62.10 44.77 C 62.17 44.90 62.26 45.01 62.36 45.09 C 62.38 45.10 62.39 45.11 62.41 45.11 C 62.42 45.12 62.43 45.13 62.44 45.13 C 62.44 45.13 62.45 45.14 62.46 45.14 C 62.63 45.21 62.75 45.15 62.81 45.01 C 62.82 45.02 62.82 45.03 62.83 45.04 C 62.90 45.16 62.99 45.26 63.09 45.33 C 63.12 45.34 63.14 45.35 63.15 45.36 C 63.16 45.36 63.17 45.36 63.17 45.36 C 63.18 45.37 63.19 45.37 63.20 45.37 C 63.21 45.38 63.21 45.38 63.22 45.38 C 63.38 45.41 63.49 45.32 63.53 45.17 C 63.54 45.18 63.54 45.18 63.54 45.19 C 63.61 45.28 63.68 45.35 63.76 45.40 C 63.76 45.41 63.77 45.41 63.78 45.41 C 63.83 45.44 63.88 45.46 63.92 45.47 C 63.93 45.47 63.94 45.47 63.95 45.47 C 64.11 45.47 64.20 45.35 64.23 45.18 C 64.29 45.26 64.35 45.31 64.41 45.35 C 64.49 45.39 64.55 45.41 64.61 45.41 C 64.63 45.41 64.64 45.41 64.66 45.41 C 64.71 45.40 64.75 45.37 64.78 45.34 C 64.79 45.33 64.79 45.33 64.80 45.32 Z" fill="#6b9ef9" fill-rule="nonzero" group-id="4,7,16,39,89,153" node-id="748" stroke="none" target-height="4.009697" target-width="6.2775" target-x="58.5693" target-y="41.7596"></path><path d="M 64.89 45.70 C 64.88 45.89 64.80 46.03 64.66 46.06 C 64.58 46.08 64.50 46.06 64.42 46.01 C 64.35 45.97 64.28 45.91 64.23 45.84 C 64.20 46.01 64.10 46.13 63.95 46.12 C 63.89 46.12 63.83 46.10 63.77 46.07 C 63.68 46.02 63.60 45.93 63.53 45.82 C 63.49 45.98 63.38 46.07 63.22 46.03 C 63.18 46.03 63.14 46.01 63.10 45.99 C 62.99 45.92 62.88 45.81 62.81 45.67 C 62.75 45.80 62.63 45.86 62.47 45.80 C 62.45 45.79 62.43 45.78 62.41 45.77 C 62.27 45.69 62.15 45.54 62.07 45.37 C 62.00 45.49 61.86 45.52 61.71 45.43 C 61.54 45.33 61.40 45.14 61.33 44.95 C 61.26 45.03 61.14 45.04 61.00 44.96 C 60.98 44.95 60.96 44.93 60.94 44.92 C 60.78 44.80 60.66 44.59 60.60 44.39 C 60.53 44.44 60.42 44.44 60.31 44.37 C 60.27 44.35 60.23 44.32 60.19 44.28 C 60.03 44.14 59.92 43.92 59.88 43.72 C 59.81 43.74 59.73 43.73 59.64 43.68 C 59.58 43.65 59.52 43.59 59.46 43.53 C 59.31 43.36 59.21 43.13 59.19 42.93 C 59.13 42.94 59.06 42.92 58.99 42.88 C 58.91 42.83 58.83 42.76 58.76 42.66 C 58.62 42.46 58.53 42.22 58.53 42.03 C 58.54 41.99 58.55 41.96 58.57 41.92 C 58.61 42.05 58.67 42.18 58.76 42.30 C 58.83 42.40 58.92 42.48 58.99 42.52 C 59.06 42.56 59.13 42.58 59.19 42.57 C 59.21 42.77 59.31 43.00 59.46 43.17 C 59.52 43.24 59.58 43.29 59.64 43.32 C 59.73 43.37 59.81 43.39 59.88 43.36 C 59.92 43.56 60.03 43.78 60.19 43.93 C 60.23 43.96 60.27 43.99 60.31 44.02 C 60.42 44.08 60.53 44.09 60.60 44.03 C 60.66 44.24 60.78 44.44 60.94 44.56 C 60.96 44.58 60.98 44.59 61.00 44.60 C 61.14 44.68 61.26 44.67 61.34 44.59 C 61.41 44.79 61.54 44.97 61.70 45.07 C 61.87 45.16 62.00 45.13 62.08 45.02 C 62.15 45.18 62.27 45.33 62.41 45.41 C 62.43 45.42 62.45 45.43 62.47 45.44 C 62.63 45.51 62.75 45.45 62.81 45.31 C 62.88 45.45 62.99 45.56 63.10 45.63 C 63.14 45.65 63.18 45.67 63.22 45.68 C 63.38 45.71 63.49 45.62 63.53 45.47 C 63.60 45.57 63.68 45.66 63.77 45.71 C 63.83 45.74 63.89 45.76 63.95 45.77 C 64.10 45.77 64.20 45.65 64.23 45.48 C 64.28 45.55 64.35 45.61 64.42 45.65 C 64.50 45.70 64.58 45.72 64.66 45.70 C 64.74 45.69 64.81 45.62 64.85 45.54 C 64.84 45.50 64.83 45.45 64.82 45.41 C 64.83 45.45 64.84 45.50 64.85 45.54 C 64.86 45.57 64.86 45.61 64.87 45.65 C 64.88 45.66 64.88 45.68 64.89 45.70 Z" fill="#1e72c6" fill-rule="nonzero" group-id="4,7,16,39,89,154" node-id="753" stroke="none" target-height="4.2028008" target-width="6.3577003" target-x="58.5285" target-y="41.9242"></path><path d="M 64.07 42.94 C 64.35 43.67 64.62 44.56 64.87 45.65 C 64.86 45.61 64.86 45.57 64.85 45.54 C 64.84 45.50 64.83 45.45 64.82 45.41 C 64.81 45.38 64.80 45.35 64.80 45.32 C 64.79 45.33 64.79 45.33 64.78 45.34 C 64.75 45.37 64.71 45.40 64.66 45.41 C 64.64 45.41 64.63 45.41 64.61 45.41 C 64.55 45.41 64.49 45.39 64.43 45.36 C 64.35 45.31 64.29 45.26 64.23 45.19 C 64.20 45.35 64.11 45.47 63.95 45.47 C 63.94 45.47 63.93 45.47 63.92 45.47 C 63.88 45.46 63.83 45.44 63.79 45.42 C 63.77 45.41 63.76 45.41 63.76 45.40 C 63.68 45.35 63.61 45.28 63.54 45.19 C 63.49 45.32 63.38 45.41 63.22 45.38 C 63.21 45.38 63.21 45.38 63.20 45.37 C 63.19 45.37 63.18 45.37 63.17 45.36 C 63.17 45.36 63.16 45.36 63.15 45.36 C 63.14 45.35 63.12 45.34 63.11 45.34 C 62.99 45.26 62.90 45.16 62.83 45.04 C 62.82 45.03 62.82 45.02 62.81 45.01 C 62.75 45.15 62.63 45.21 62.47 45.14 C 62.45 45.14 62.44 45.13 62.44 45.13 C 62.43 45.13 62.42 45.12 62.41 45.12 C 62.39 45.11 62.38 45.10 62.36 45.09 C 62.26 45.01 62.17 44.90 62.10 44.77 C 62.09 44.76 62.08 44.74 62.08 44.72 C 62.01 44.83 61.88 44.86 61.73 44.78 C 61.72 44.78 61.72 44.78 61.71 44.77 C 61.69 44.76 61.68 44.76 61.67 44.75 C 61.56 44.67 61.46 44.55 61.39 44.41 C 61.38 44.40 61.38 44.39 61.37 44.38 C 61.36 44.36 61.36 44.35 61.35 44.33 C 61.35 44.32 61.34 44.30 61.34 44.29 C 61.31 44.32 61.28 44.34 61.25 44.35 C 61.18 44.37 61.09 44.36 61.00 44.30 C 60.98 44.29 60.96 44.28 60.94 44.26 C 60.78 44.14 60.66 43.94 60.60 43.74 C 60.53 43.79 60.44 43.78 60.33 43.73 C 60.32 43.73 60.32 43.72 60.31 43.72 C 60.29 43.71 60.28 43.70 60.27 43.69 C 60.26 43.69 60.25 43.68 60.24 43.67 C 60.23 43.66 60.22 43.66 60.21 43.65 C 60.20 43.64 60.20 43.63 60.19 43.63 C 60.04 43.48 59.92 43.26 59.88 43.06 C 59.82 43.09 59.73 43.08 59.65 43.03 C 59.63 43.02 59.62 43.01 59.61 43.01 C 59.60 43.00 59.59 42.99 59.58 42.99 C 59.58 42.98 59.57 42.98 59.57 42.97 C 59.53 42.95 59.50 42.92 59.47 42.88 C 59.31 42.70 59.21 42.47 59.19 42.27 C 59.18 42.27 59.18 42.27 59.17 42.27 C 59.11 42.28 59.06 42.26 59.00 42.23 C 58.98 42.22 58.97 42.21 58.95 42.20 C 58.94 42.19 58.93 42.18 58.91 42.17 C 58.86 42.13 58.82 42.08 58.78 42.03 C 58.77 42.02 58.77 42.01 58.76 42.00 C 58.70 41.93 58.66 41.84 58.62 41.76 C 59.26 39.95 60.01 39.38 60.49 39.21 C 60.12 39.34 59.59 39.71 59.08 40.69 C 59.03 40.79 58.98 40.89 58.93 40.99 C 58.92 41.01 58.91 41.03 58.91 41.04 C 58.90 41.12 58.90 41.20 58.90 41.28 C 58.90 41.32 58.91 41.38 58.93 41.43 C 58.95 41.50 59.00 41.56 59.06 41.59 C 59.13 41.63 59.22 41.64 59.29 41.62 C 59.52 41.56 59.79 41.37 59.94 41.00 C 59.88 41.59 59.70 42.12 59.77 42.78 C 59.77 42.83 59.78 42.87 59.81 42.91 C 59.82 42.93 59.84 42.95 59.86 42.96 C 59.90 42.98 59.94 42.98 59.98 42.96 C 60.33 42.84 60.60 42.54 60.73 42.11 C 60.74 42.57 60.82 43.07 60.98 43.58 C 61.03 43.76 61.11 43.96 61.24 44.09 C 61.27 44.13 61.31 44.15 61.34 44.17 C 61.51 44.27 61.67 44.20 61.76 44.07 C 62.04 43.61 61.79 42.71 61.92 42.11 C 62.06 42.90 62.31 43.72 62.63 44.53 C 62.67 44.62 62.73 44.73 62.79 44.77 C 62.80 44.78 62.82 44.78 62.84 44.78 C 62.87 44.77 62.88 44.73 62.89 44.70 C 62.96 44.43 62.98 44.12 62.95 43.79 C 63.09 44.06 63.63 44.83 63.94 45.01 C 63.95 45.01 63.96 45.02 63.97 45.03 C 64.02 45.05 64.07 45.06 64.10 45.04 C 64.13 45.02 64.14 44.99 64.15 44.95 C 64.26 44.49 64.17 44.38 64.11 43.81 C 64.07 43.54 64.09 43.29 64.08 43.03 C 64.08 43.00 64.07 42.97 64.07 42.94 Z" fill="#a6c2ff" fill-rule="nonzero" group-id="4,7,16,39,89,155" node-id="758" stroke="none" target-height="6.432598" target-width="6.2512016" target-x="58.6219" target-y="39.2136"></path><path d="M 58.76 42.00 C 58.70 41.93 58.66 41.84 58.62 41.76 C 58.66 41.84 58.70 41.93 58.76 42.00 Z" fill="#1e72c6" fill-rule="nonzero" group-id="4,7,16,39,89,156" node-id="763" stroke="none" target-height="0.24010086" target-width="0.13690186" target-x="58.6219" target-y="41.7602"></path><path d="M 61.34 44.29 C 61.31 44.32 61.28 44.34 61.25 44.35 C 61.28 44.34 61.31 44.32 61.34 44.29 Z" fill="#1e72c6" fill-rule="nonzero" group-id="4,7,16,39,89,157" node-id="768" stroke="none" target-height="0.055698395" target-width="0.08729935" target-x="61.2491" target-y="44.291"></path><path d="M 60.52 39.21 C 60.52 39.20 60.53 39.20 60.53 39.20 C 60.53 39.20 60.52 39.20 60.52 39.21 Z" fill="#a6c2ff" fill-rule="nonzero" group-id="4,7,16,39,89,158" node-id="773" stroke="none" target-height="0.0037994385" target-width="0.012199402" target-x="60.5171" target-y="39.2025"></path><path d="M 60.37 39.55 C 60.46 40.17 60.18 40.59 60.25 41.21 C 60.26 41.23 60.26 41.27 60.28 41.29 C 60.29 41.31 60.30 41.32 60.32 41.33 C 60.35 41.34 60.38 41.34 60.41 41.34 C 60.67 41.27 60.87 41.08 60.97 40.80 C 60.97 41.11 61.03 41.45 61.15 41.79 C 61.19 41.91 61.25 42.05 61.34 42.14 C 61.37 42.17 61.39 42.19 61.42 42.20 C 61.54 42.27 61.66 42.23 61.72 42.15 C 61.93 41.86 61.75 41.24 61.85 40.85 C 61.95 41.38 62.13 41.94 62.38 42.50 C 62.40 42.56 62.45 42.63 62.49 42.66 C 62.50 42.67 62.52 42.67 62.53 42.67 C 62.55 42.66 62.56 42.64 62.57 42.62 C 62.62 42.44 62.63 42.24 62.61 42.02 C 62.72 42.21 62.83 42.40 62.94 42.60 C 63.08 42.84 63.25 43.12 63.46 43.24 C 63.47 43.24 63.48 43.25 63.50 43.26 C 63.53 43.27 63.57 43.28 63.59 43.27 C 63.61 43.26 63.62 43.24 63.62 43.21 C 63.70 42.91 63.52 42.46 63.47 42.08 C 63.44 41.90 63.45 41.73 63.45 41.56 C 63.45 41.54 63.44 41.52 63.44 41.49 C 63.44 41.49 63.44 41.48 63.43 41.47 C 63.46 41.53 63.50 41.59 63.53 41.66 C 63.68 41.97 63.84 42.33 64.00 42.74 C 64.03 42.81 64.05 42.88 64.07 42.94 C 64.07 42.97 64.08 43.00 64.08 43.03 C 64.09 43.29 64.07 43.54 64.11 43.81 C 64.17 44.38 64.26 44.49 64.15 44.95 C 64.14 44.99 64.12 45.02 64.10 45.04 C 64.07 45.06 64.02 45.05 63.97 45.03 C 63.96 45.02 63.95 45.01 63.94 45.01 C 63.63 44.83 63.09 44.06 62.95 43.79 C 62.98 44.12 62.96 44.43 62.89 44.70 C 62.88 44.73 62.87 44.77 62.84 44.78 C 62.82 44.78 62.80 44.78 62.79 44.77 C 62.73 44.73 62.67 44.62 62.63 44.53 C 62.30 43.72 62.06 42.90 61.92 42.11 C 61.79 42.71 62.04 43.61 61.76 44.07 C 61.67 44.20 61.51 44.27 61.34 44.17 C 61.31 44.15 61.27 44.13 61.24 44.09 C 61.11 43.96 61.03 43.76 60.98 43.58 C 60.82 43.07 60.74 42.57 60.73 42.11 C 60.60 42.54 60.33 42.84 59.98 42.96 C 59.94 42.98 59.90 42.98 59.86 42.96 C 59.84 42.95 59.82 42.93 59.81 42.91 C 59.78 42.87 59.77 42.82 59.77 42.78 C 59.70 42.12 59.88 41.59 59.94 41.00 C 59.79 41.37 59.52 41.56 59.29 41.62 C 59.22 41.64 59.13 41.63 59.06 41.59 C 59.00 41.56 58.95 41.50 58.93 41.43 C 58.90 41.38 58.90 41.32 58.90 41.28 C 58.90 41.20 58.90 41.12 58.91 41.04 C 58.91 41.03 58.92 41.01 58.93 41.00 C 58.98 40.89 59.03 40.79 59.08 40.69 C 59.09 40.67 59.10 40.64 59.11 40.62 C 59.11 40.66 59.11 40.70 59.11 40.73 C 59.11 40.78 59.11 40.83 59.14 40.89 C 59.16 40.97 59.22 41.03 59.28 41.06 C 59.36 41.11 59.45 41.11 59.50 41.08 C 59.89 40.83 59.95 40.45 59.94 40.40 C 60.25 40.32 60.42 39.99 60.37 39.55 Z" fill="#3887e5" fill-rule="nonzero" group-id="4,7,16,39,89,159" node-id="778" stroke="none" target-height="5.5059013" target-width="5.3533974" target-x="58.9023" target-y="39.5528"></path><path d="M 63.53 41.66 C 63.31 41.21 63.11 40.87 62.94 40.62 C 63.23 41.05 63.61 41.73 64.00 42.74 C 63.84 42.33 63.68 41.97 63.53 41.66 Z" fill="#a6c2ff" fill-rule="nonzero" group-id="4,7,16,39,89,160" node-id="783" stroke="none" target-height="2.1240005" target-width="1.0615005" target-x="62.9376" target-y="40.6196"></path><path d="M 63.47 42.08 C 63.52 42.46 63.70 42.91 63.62 43.21 C 63.62 43.24 63.61 43.26 63.59 43.27 C 63.57 43.28 63.53 43.27 63.50 43.26 C 63.48 43.25 63.47 43.24 63.46 43.24 C 63.25 43.12 63.08 42.84 62.94 42.60 C 62.83 42.40 62.72 42.21 62.61 42.02 C 62.63 42.24 62.62 42.44 62.57 42.62 C 62.56 42.64 62.55 42.66 62.53 42.67 C 62.52 42.67 62.50 42.67 62.49 42.66 C 62.45 42.63 62.40 42.56 62.38 42.50 C 62.13 41.94 61.95 41.38 61.85 40.85 C 61.75 41.24 61.93 41.86 61.72 42.15 C 61.66 42.23 61.54 42.27 61.42 42.20 C 61.39 42.19 61.37 42.17 61.34 42.14 C 61.25 42.05 61.19 41.91 61.15 41.79 C 61.03 41.45 60.97 41.11 60.97 40.80 C 60.87 41.08 60.67 41.27 60.41 41.34 C 60.38 41.34 60.35 41.34 60.32 41.33 C 60.30 41.32 60.29 41.31 60.28 41.29 C 60.26 41.27 60.26 41.24 60.25 41.21 C 60.18 40.59 60.46 40.17 60.37 39.55 C 60.42 39.99 60.25 40.32 59.94 40.40 C 59.95 40.45 59.89 40.83 59.50 41.08 C 59.45 41.12 59.36 41.11 59.28 41.06 C 59.22 41.03 59.16 40.97 59.14 40.89 C 59.12 40.83 59.11 40.78 59.11 40.73 C 59.11 40.70 59.11 40.66 59.11 40.62 C 59.10 40.64 59.09 40.67 59.08 40.69 C 59.62 39.66 60.17 39.31 60.55 39.20 C 60.69 39.16 60.75 38.99 60.70 38.78 C 60.61 38.36 60.45 37.79 60.37 37.50 C 60.34 37.40 60.35 37.31 60.41 37.27 C 60.59 37.16 60.58 36.73 60.45 36.54 L 60.85 36.58 C 60.98 37.22 61.61 37.66 61.72 37.73 C 61.84 37.79 62.47 38.08 62.61 37.60 L 63.00 38.01 C 62.87 38.05 62.86 38.46 63.04 38.79 C 63.09 38.89 63.10 38.99 63.08 39.06 C 62.99 39.26 62.84 39.64 62.74 39.95 C 62.69 40.11 62.75 40.35 62.89 40.55 C 63.08 40.83 63.29 41.18 63.53 41.66 C 63.50 41.60 63.46 41.53 63.43 41.47 C 63.44 41.48 63.44 41.49 63.44 41.50 C 63.44 41.52 63.45 41.54 63.45 41.56 C 63.45 41.73 63.44 41.90 63.47 42.08 Z" fill="#6b9ef9" fill-rule="nonzero" group-id="4,7,16,39,89,161" node-id="788" stroke="none" target-height="6.746399" target-width="4.6273994" target-x="59.077" target-y="36.5374"></path><path d="M 60.53 39.20 C 60.54 39.20 60.54 39.20 60.55 39.20 C 60.54 39.20 60.54 39.20 60.53 39.20 Z" fill="#a6c2ff" fill-rule="nonzero" group-id="4,7,16,39,90" node-id="794" stroke="none" target-height="0.005897522" target-width="0.019599915" target-x="60.5293" target-y="39.1966"></path><path d="M 60.49 39.21 C 60.50 39.21 60.51 39.21 60.51 39.21 C 60.51 39.21 60.50 39.21 60.49 39.21 Z" fill="#a6c2ff" fill-rule="nonzero" group-id="4,7,16,39,91" node-id="799" stroke="none" target-height="0.0052986145" target-width="0.015899658" target-x="60.4948" target-y="39.2084"></path><path d="M 62.92 40.60 C 62.92 40.59 62.92 40.59 62.92 40.59 C 62.92 40.59 62.92 40.59 62.92 40.60 Z" fill="#a6c2ff" fill-rule="nonzero" group-id="4,7,16,39,92" node-id="804" stroke="none" target-height="0.0051002502" target-width="0.0033988953" target-x="62.9188" target-y="40.5916"></path><path d="M 62.94 40.62 C 62.93 40.61 62.93 40.60 62.92 40.60 C 62.93 40.60 62.93 40.61 62.94 40.62 Z" fill="#a6c2ff" fill-rule="nonzero" group-id="4,7,16,39,93" node-id="809" stroke="none" target-height="0.020500183" target-width="0.013801575" target-x="62.9222" target-y="40.5967"></path><path d="M 58.93 41.00 L 58.93 41.00 L 58.93 40.99 Z" fill="#6b9ef9" fill-rule="nonzero" group-id="4,7,16,39,94" node-id="814" stroke="none" target-height="0.0055999756" target-width="0.0026016235" target-x="58.9265" target-y="40.9932"></path><path d="M 76.94 39.23 L 76.94 41.04 C 76.93 41.69 77.39 42.48 77.96 42.81 C 78.52 43.14 78.98 42.88 78.98 42.23 L 78.99 40.41 L 76.94 39.23 Z" fill="#6b9ef9" fill-rule="nonzero" group-id="4,7,16,40,95,162,263" node-id="826" stroke="none" target-height="3.9084015" target-width="2.054802" target-x="76.9332" target-y="39.2295"></path><path d="M 78.99 40.41 L 78.98 42.23 C 78.98 42.88 79.44 43.67 80.00 43.99 C 80.57 44.32 81.03 44.06 81.03 43.41 L 81.04 41.59 L 78.99 40.41 Z" fill="#1e72c6" fill-rule="nonzero" group-id="4,7,16,40,95,162,264" node-id="831" stroke="none" target-height="3.9084015" target-width="2.0547943" target-x="78.9811" target-y="40.4118"></path><path d="M 81.04 41.59 L 81.03 43.41 C 81.03 44.06 81.49 44.85 82.05 45.18 C 82.62 45.50 83.08 45.24 83.08 44.59 L 83.08 42.78 L 81.04 41.59 Z" fill="#6b9ef9" fill-rule="nonzero" group-id="4,7,16,40,95,162,265" node-id="836" stroke="none" target-height="3.9084015" target-width="2.0542984" target-x="81.029" target-y="41.5942"></path><path d="M 83.08 42.78 L 83.08 44.59 C 83.08 45.24 83.53 46.03 84.10 46.36 C 84.66 46.68 85.12 46.42 85.13 45.77 L 85.13 43.96 L 83.08 42.78 Z" fill="#1e72c6" fill-rule="nonzero" group-id="4,7,16,40,95,162,266" node-id="841" stroke="none" target-height="3.9085999" target-width="2.054802" target-x="83.0764" target-y="42.7763"></path><path d="M 85.13 43.96 L 85.13 45.77 C 85.12 46.42 85.58 47.21 86.15 47.54 C 86.71 47.87 87.17 47.61 87.17 46.96 L 87.18 45.14 L 85.13 43.96 Z" fill="#6b9ef9" fill-rule="nonzero" group-id="4,7,16,40,95,162,267" node-id="846" stroke="none" target-height="3.9085999" target-width="2.0547028" target-x="85.1243" target-y="43.9586"></path><path d="M 87.18 45.14 L 87.17 46.96 C 87.17 47.61 87.63 48.40 88.19 48.72 C 88.76 49.05 89.22 48.79 89.22 48.14 L 89.23 46.32 L 87.18 45.14 Z" fill="#1e72c6" fill-rule="nonzero" group-id="4,7,16,40,95,162,268" node-id="851" stroke="none" target-height="3.9085999" target-width="2.0547943" target-x="87.1722" target-y="45.141"></path><path d="M 94.53 44.78 C 94.26 45.14 93.14 46.52 91.71 47.35 C 91.65 47.38 91.59 47.42 91.53 47.45 L 91.53 47.36 L 91.27 47.51 L 91.27 49.32 C 91.27 49.64 91.16 49.87 90.97 49.98 L 91.22 49.83 C 91.41 49.72 91.52 49.50 91.52 49.17 L 91.53 49.03 C 91.59 48.99 93.32 48.41 94.53 45.67 L 94.53 44.78 Z" fill="#3887e5" fill-rule="nonzero" group-id="4,7,16,40,95,162" node-id="854" stroke="none" target-height="5.193199" target-width="3.5614014" target-x="90.9711" target-y="44.7837"></path><path d="M 89.23 46.32 L 89.22 48.14 C 89.22 48.79 89.68 49.58 90.24 49.91 C 90.81 50.23 91.27 49.97 91.27 49.32 L 91.27 47.51 L 89.23 46.32 Z" fill="#6b9ef9" fill-rule="nonzero" group-id="4,7,16,40,95,162,269" node-id="858" stroke="none" target-height="3.9084015" target-width="2.054802" target-x="89.2201" target-y="46.3233"></path><path d="M 82.23 37.63 L 80.18 36.44 C 79.91 36.80 78.79 38.18 77.36 39.01 C 77.22 39.09 77.08 39.16 76.94 39.23 L 78.99 40.42 C 79.13 40.35 79.27 40.28 79.41 40.20 C 80.84 39.38 81.96 37.99 82.23 37.63 Z" fill="#a6c2ff" fill-rule="nonzero" group-id="4,7,16,40,95,163,270,294" node-id="868" stroke="none" target-height="3.9772987" target-width="5.290802" target-x="76.9401" target-y="36.4436"></path><path d="M 84.28 38.83 L 82.23 37.63 C 81.96 37.99 80.84 39.38 79.41 40.20 C 79.27 40.28 79.13 40.35 78.99 40.42 L 81.04 41.61 C 81.18 41.55 81.32 41.47 81.46 41.39 C 82.89 40.57 84.01 39.18 84.28 38.83 Z" fill="#3887e5" fill-rule="nonzero" group-id="4,7,16,40,95,164,271,295" node-id="879" stroke="none" target-height="3.9773026" target-width="5.2907944" target-x="78.9903" target-y="37.635"></path><path d="M 86.33 40.02 L 84.28 38.83 C 84.01 39.18 82.89 40.57 81.46 41.39 C 81.32 41.47 81.18 41.55 81.04 41.61 L 83.09 42.80 C 83.23 42.74 83.37 42.66 83.51 42.58 C 84.94 41.76 86.06 40.37 86.33 40.02 Z" fill="#a6c2ff" fill-rule="nonzero" group-id="4,7,16,40,95,165,272,296" node-id="890" stroke="none" target-height="3.9772987" target-width="5.290802" target-x="81.0404" target-y="38.8264"></path><path d="M 88.38 41.21 L 86.33 40.02 C 86.06 40.37 84.94 41.76 83.51 42.58 C 83.37 42.66 83.23 42.74 83.09 42.80 L 85.14 44.00 C 85.28 43.93 85.42 43.85 85.56 43.78 C 86.99 42.95 88.11 41.56 88.38 41.21 Z" fill="#3887e5" fill-rule="nonzero" group-id="4,7,16,40,95,166,273,297" node-id="901" stroke="none" target-height="3.9772987" target-width="5.290802" target-x="83.0905" target-y="40.0178"></path><path d="M 90.43 42.40 L 88.38 41.21 C 88.11 41.56 86.99 42.95 85.56 43.78 C 85.42 43.85 85.28 43.93 85.14 44.00 L 87.19 45.19 C 87.33 45.12 87.47 45.05 87.61 44.97 C 89.04 44.14 90.16 42.75 90.43 42.40 Z" fill="#a6c2ff" fill-rule="nonzero" group-id="4,7,16,40,95,167,274,298" node-id="912" stroke="none" target-height="3.9772987" target-width="5.290802" target-x="85.1407" target-y="41.2092"></path><path d="M 92.48 43.59 L 90.43 42.40 C 90.16 42.75 89.04 44.14 87.61 44.97 C 87.47 45.05 87.33 45.12 87.19 45.19 L 89.24 46.38 C 89.38 46.31 89.52 46.24 89.66 46.16 C 91.09 45.33 92.21 43.95 92.48 43.59 Z" fill="#3887e5" fill-rule="nonzero" group-id="4,7,16,40,95,168,275,299" node-id="923" stroke="none" target-height="3.9772987" target-width="5.2907944" target-x="87.1908" target-y="42.4006"></path><path d="M 94.53 44.78 L 92.48 43.59 C 92.21 43.95 91.09 45.33 89.66 46.16 C 89.52 46.24 89.38 46.31 89.24 46.38 L 91.29 47.57 C 91.43 47.50 91.57 47.43 91.71 47.35 C 93.14 46.52 94.26 45.14 94.53 44.78 Z" fill="#a6c2ff" fill-rule="nonzero" group-id="4,7,16,40,95,169,276,300" node-id="934" stroke="none" target-height="3.9773026" target-width="5.290802" target-x="89.2409" target-y="43.592"></path><path d="M 64.64 32.08 L 64.63 33.90 C 64.63 34.55 65.09 35.34 65.65 35.66 C 66.22 35.99 66.68 35.73 66.68 35.08 L 66.69 33.26 L 64.64 32.08 Z" fill="#6b9ef9" fill-rule="nonzero" group-id="4,7,16,40,96,170" node-id="944" stroke="none" target-height="3.9083977" target-width="2.054802" target-x="64.6324" target-y="32.081"></path><path d="M 66.69 33.26 L 66.68 35.08 C 66.68 35.73 67.14 36.52 67.70 36.85 C 68.27 37.17 68.73 36.91 68.73 36.26 L 68.74 34.45 L 66.69 33.26 Z" fill="#1e72c6" fill-rule="nonzero" group-id="4,7,16,40,96,171" node-id="949" stroke="none" target-height="3.9083977" target-width="2.054802" target-x="66.6803" target-y="33.2634"></path><path d="M 68.74 34.45 L 68.73 36.26 C 68.73 36.91 69.18 37.70 69.75 38.03 C 70.32 38.35 70.78 38.09 70.78 37.44 L 70.78 35.63 L 68.74 34.45 Z" fill="#6b9ef9" fill-rule="nonzero" group-id="4,7,16,40,96,172" node-id="954" stroke="none" target-height="3.9083977" target-width="2.0543976" target-x="68.7282" target-y="34.4457"></path><path d="M 70.78 35.63 L 70.78 37.44 C 70.78 38.09 71.23 38.88 71.80 39.21 C 72.36 39.54 72.82 39.27 72.83 38.62 L 72.83 36.81 L 70.78 35.63 Z" fill="#1e72c6" fill-rule="nonzero" group-id="4,7,16,40,96,173" node-id="959" stroke="none" target-height="3.9085007" target-width="2.054802" target-x="70.7756" target-y="35.6278"></path><path d="M 72.83 36.81 L 72.83 38.62 C 72.82 39.27 73.28 40.07 73.85 40.39 C 74.41 40.72 74.87 40.46 74.87 39.81 L 74.88 37.99 L 72.83 36.81 Z" fill="#6b9ef9" fill-rule="nonzero" group-id="4,7,16,40,96,174" node-id="964" stroke="none" target-height="3.9085999" target-width="2.0546951" target-x="72.8235" target-y="36.8102"></path><path d="M 74.88 37.99 L 74.87 39.81 C 74.87 40.46 75.33 41.25 75.89 41.57 C 76.46 41.90 76.92 41.64 76.92 40.99 L 76.93 39.17 L 74.88 37.99 Z" fill="#1e72c6" fill-rule="nonzero" group-id="4,7,16,40,96,175" node-id="969" stroke="none" target-height="3.9085999" target-width="2.054802" target-x="74.8714" target-y="37.9925"></path><path d="M 69.93 30.49 L 67.88 29.30 C 67.61 29.65 66.49 31.04 65.06 31.86 C 64.92 31.94 64.78 32.01 64.64 32.08 L 66.69 33.27 C 66.83 33.21 66.97 33.13 67.11 33.05 C 68.54 32.23 69.66 30.84 69.93 30.49 Z" fill="#a6c2ff" fill-rule="nonzero" group-id="4,7,16,40,96,176,277,301" node-id="978" stroke="none" target-height="3.9772015" target-width="5.290802" target-x="64.6393" target-y="29.2951"></path><path d="M 71.98 31.68 L 69.93 30.49 C 69.66 30.84 68.54 32.23 67.11 33.05 C 66.97 33.13 66.83 33.21 66.69 33.27 L 68.74 34.46 C 68.88 34.40 69.02 34.32 69.16 34.24 C 70.59 33.42 71.71 32.03 71.98 31.68 Z" fill="#3887e5" fill-rule="nonzero" group-id="4,7,16,40,96,177,278,302" node-id="989" stroke="none" target-height="3.9773006" target-width="5.290802" target-x="66.6895" target-y="30.4866"></path><path d="M 74.03 32.87 L 71.98 31.68 C 71.71 32.03 70.59 33.42 69.16 34.24 C 69.02 34.32 68.88 34.40 68.74 34.46 L 70.79 35.66 C 70.93 35.59 71.07 35.51 71.21 35.44 C 72.64 34.61 73.76 33.22 74.03 32.87 Z" fill="#a6c2ff" fill-rule="nonzero" group-id="4,7,16,40,96,178,279,303" node-id="1000" stroke="none" target-height="3.9773006" target-width="5.290802" target-x="68.7396" target-y="31.678"></path><path d="M 76.08 34.06 L 74.03 32.87 C 73.76 33.22 72.64 34.61 71.21 35.44 C 71.07 35.51 70.93 35.59 70.79 35.66 L 72.84 36.85 C 72.98 36.78 73.12 36.71 73.26 36.63 C 74.69 35.80 75.81 34.41 76.08 34.06 Z" fill="#3887e5" fill-rule="nonzero" group-id="4,7,16,40,96,179,280,304" node-id="1011" stroke="none" target-height="3.9772987" target-width="5.2907944" target-x="70.7897" target-y="32.8694"></path><path d="M 78.13 35.25 L 76.08 34.06 C 75.81 34.41 74.69 35.80 73.26 36.63 C 73.12 36.71 72.98 36.78 72.84 36.85 L 74.89 38.04 C 75.03 37.97 75.17 37.90 75.31 37.82 C 76.74 36.99 77.86 35.61 78.13 35.25 Z" fill="#a6c2ff" fill-rule="nonzero" group-id="4,7,16,40,96,180,281,305" node-id="1022" stroke="none" target-height="3.9773026" target-width="5.290802" target-x="72.8399" target-y="34.0608"></path><path d="M 80.18 36.44 L 78.13 35.25 C 77.86 35.61 76.74 36.99 75.31 37.82 C 75.17 37.90 75.03 37.97 74.89 38.04 L 76.94 39.23 C 77.08 39.16 77.22 39.09 77.36 39.01 C 78.79 38.18 79.91 36.80 80.18 36.44 Z" fill="#3887e5" fill-rule="nonzero" group-id="4,7,16,40,96,181,282,306" node-id="1033" stroke="none" target-height="3.9772987" target-width="5.290802" target-x="74.89" target-y="35.2522"></path><path d="M 52.34 24.93 L 52.33 26.75 C 52.33 27.40 52.79 28.19 53.35 28.51 C 53.92 28.84 54.38 28.58 54.38 27.93 L 54.39 26.11 L 52.34 24.93 Z" fill="#6b9ef9" fill-rule="nonzero" group-id="4,7,16,40,97,182" node-id="1043" stroke="none" target-height="3.9083996" target-width="2.0547981" target-x="52.3316" target-y="24.9326"></path><path d="M 54.39 26.11 L 54.38 27.93 C 54.38 28.58 54.84 29.37 55.40 29.70 C 55.97 30.02 56.43 29.76 56.43 29.11 L 56.43 27.30 L 54.39 26.11 Z" fill="#1e72c6" fill-rule="nonzero" group-id="4,7,16,40,97,183" node-id="1048" stroke="none" target-height="3.9083996" target-width="2.0547981" target-x="54.3795" target-y="26.1149"></path><path d="M 56.43 27.30 L 56.43 29.11 C 56.43 29.76 56.88 30.55 57.45 30.88 C 58.02 31.21 58.47 30.94 58.48 30.29 L 58.48 28.48 L 56.43 27.30 Z" fill="#6b9ef9" fill-rule="nonzero" group-id="4,7,16,40,97,184" node-id="1053" stroke="none" target-height="3.9083996" target-width="2.0543022" target-x="56.4274" target-y="27.2973"></path><path d="M 58.48 28.48 L 58.48 30.29 C 58.47 30.94 58.93 31.74 59.50 32.06 C 60.06 32.39 60.52 32.13 60.52 31.48 L 60.53 29.66 L 58.48 28.48 Z" fill="#1e72c6" fill-rule="nonzero" group-id="4,7,16,40,97,185" node-id="1058" stroke="none" target-height="3.9085999" target-width="2.0547981" target-x="58.4748" target-y="28.4794"></path><path d="M 60.53 29.66 L 60.52 31.48 C 60.52 32.13 60.98 32.92 61.55 33.24 C 62.11 33.57 62.57 33.31 62.57 32.66 L 62.58 30.84 L 60.53 29.66 Z" fill="#6b9ef9" fill-rule="nonzero" group-id="4,7,16,40,97,186" node-id="1063" stroke="none" target-height="3.9086018" target-width="2.054699" target-x="60.5227" target-y="29.6617"></path><path d="M 62.58 30.84 L 62.57 32.66 C 62.57 33.31 63.03 34.10 63.59 34.43 C 64.16 34.75 64.62 34.49 64.62 33.84 L 64.63 32.03 L 62.58 30.84 Z" fill="#1e72c6" fill-rule="nonzero" group-id="4,7,16,40,97,187" node-id="1068" stroke="none" target-height="3.9085999" target-width="2.0547981" target-x="62.5706" target-y="30.8441"></path><path d="M 57.63 23.34 L 55.58 22.15 C 55.31 22.50 54.19 23.89 52.76 24.71 C 52.62 24.79 52.48 24.87 52.34 24.93 L 54.39 26.12 C 54.53 26.06 54.67 25.98 54.81 25.90 C 56.24 25.08 57.36 23.69 57.63 23.34 Z" fill="#a6c2ff" fill-rule="nonzero" group-id="4,7,16,40,97,188,283,307" node-id="1077" stroke="none" target-height="3.9773006" target-width="5.290798" target-x="52.3385" target-y="22.1467"></path><path d="M 59.68 24.53 L 57.63 23.34 C 57.36 23.69 56.24 25.08 54.81 25.90 C 54.67 25.98 54.53 26.06 54.39 26.12 L 56.44 27.32 C 56.58 27.25 56.72 27.17 56.86 27.10 C 58.29 26.27 59.41 24.88 59.68 24.53 Z" fill="#3887e5" fill-rule="nonzero" group-id="4,7,16,40,97,189,284,308" node-id="1088" stroke="none" target-height="3.9771996" target-width="5.290802" target-x="54.3887" target-y="23.3381"></path><path d="M 61.73 25.72 L 59.68 24.53 C 59.41 24.88 58.29 26.27 56.86 27.10 C 56.72 27.17 56.58 27.25 56.44 27.32 L 58.49 28.51 C 58.63 28.44 58.77 28.37 58.91 28.29 C 60.34 27.46 61.46 26.07 61.73 25.72 Z" fill="#a6c2ff" fill-rule="nonzero" group-id="4,7,16,40,97,190,285,309" node-id="1099" stroke="none" target-height="3.9773006" target-width="5.290798" target-x="56.4388" target-y="24.5295"></path><path d="M 63.78 26.91 L 61.73 25.72 C 61.46 26.07 60.34 27.46 58.91 28.29 C 58.77 28.37 58.63 28.44 58.49 28.51 L 60.54 29.70 C 60.68 29.63 60.82 29.56 60.96 29.48 C 62.39 28.65 63.51 27.27 63.78 26.91 Z" fill="#3887e5" fill-rule="nonzero" group-id="4,7,16,40,97,191,286,310" node-id="1110" stroke="none" target-height="3.9773006" target-width="5.290802" target-x="58.4889" target-y="25.7209"></path><path d="M 65.83 28.10 L 63.78 26.91 C 63.51 27.27 62.39 28.65 60.96 29.48 C 60.82 29.56 60.68 29.63 60.54 29.70 L 62.59 30.89 C 62.73 30.82 62.87 30.75 63.01 30.67 C 64.44 29.84 65.56 28.46 65.83 28.10 Z" fill="#a6c2ff" fill-rule="nonzero" group-id="4,7,16,40,97,192,287,311" node-id="1121" stroke="none" target-height="3.9773006" target-width="5.290802" target-x="60.5391" target-y="26.9123"></path><path d="M 67.88 29.30 L 65.83 28.10 C 65.56 28.46 64.44 29.84 63.01 30.67 C 62.87 30.75 62.73 30.82 62.59 30.89 L 64.64 32.08 C 64.78 32.01 64.92 31.94 65.06 31.86 C 66.49 31.04 67.61 29.65 67.88 29.30 Z" fill="#3887e5" fill-rule="nonzero" group-id="4,7,16,40,97,193,288,312" node-id="1132" stroke="none" target-height="3.9773006" target-width="5.290798" target-x="62.5892" target-y="28.1037"></path><path d="M 79.87 51.86 L 79.87 52.33 L 68.56 45.80 L 68.56 45.33 Z" fill="#b6cbea" fill-rule="nonzero" group-id="4,7,17,41" node-id="1144" stroke="none" target-height="6.9976006" target-width="11.311295" target-x="68.5621" target-y="45.3318"></path><path d="M 79.88 50.68 L 79.88 51.14 L 68.57 44.61 L 68.57 44.15 Z" fill="#b6cbea" fill-rule="nonzero" group-id="4,7,17,42" node-id="1149" stroke="none" target-height="6.9976997" target-width="11.311302" target-x="68.5655" target-y="44.1466"></path><path d="M 79.88 49.49 L 79.88 49.96 L 68.57 43.43 L 68.57 42.96 Z" fill="#b6cbea" fill-rule="nonzero" group-id="4,7,17,43" node-id="1154" stroke="none" target-height="7.000099" target-width="11.311401" target-x="68.5688" target-y="42.959"></path><path d="M 89.84 51.14 L 89.83 52.29 L 78.18 45.57 L 78.18 44.42 Z" fill="#83a1cc" fill-rule="nonzero" group-id="4,7,17,44" node-id="1159" stroke="none" target-height="7.8768005" target-width="11.655701" target-x="78.1805" target-y="44.4167"></path><path d="M 79.88 48.30 L 79.88 48.77 L 68.57 42.24 L 68.57 41.77 Z" fill="#b6cbea" fill-rule="nonzero" group-id="4,7,17,45" node-id="1164" stroke="none" target-height="6.997799" target-width="11.311302" target-x="68.5722" target-y="41.7737"></path><path d="M 77.15 43.82 L 77.15 44.97 L 68.93 40.22 L 68.93 39.08 Z" fill="#83a1cc" fill-rule="nonzero" group-id="4,7,17,46" node-id="1169" stroke="none" target-height="5.893799" target-width="8.2209015" target-x="68.9293" target-y="39.0755"></path><path d="M 89.48 53.84 L 89.48 54.31 L 81.33 49.61 L 81.33 49.14 Z" fill="#b6cbea" fill-rule="nonzero" group-id="4,7,17,47" node-id="1174" stroke="none" target-height="5.1739006" target-width="8.152199" target-x="81.3271" target-y="49.1377"></path><path d="M 89.48 55.03 L 89.47 55.50 L 81.32 50.79 L 81.33 50.32 Z" fill="#b6cbea" fill-rule="nonzero" group-id="4,7,17,48" node-id="1179" stroke="none" target-height="5.176197" target-width="8.152199" target-x="81.3237" target-y="50.323"></path><path d="M 89.47 56.22 L 89.47 56.68 L 81.32 51.98 L 81.32 51.51 Z" fill="#b6cbea" fill-rule="nonzero" group-id="4,7,17,49" node-id="1184" stroke="none" target-height="5.1736984" target-width="8.152306" target-x="81.3203" target-y="51.5107"></path><path d="M 89.47 57.40 L 89.47 57.87 L 81.32 53.16 L 81.32 52.70 Z" fill="#b6cbea" fill-rule="nonzero" group-id="4,7,17,50" node-id="1189" stroke="none" target-height="5.1737976" target-width="8.152199" target-x="81.317" target-y="52.6958"></path><path d="M 77.44 52.93 L 77.43 56.89 L 69.73 52.45 L 69.74 48.48 Z" fill="#6262aa" fill-rule="nonzero" group-id="4,7,18,51" node-id="1197" stroke="none" target-height="8.4114" target-width="7.7080994" target-x="69.7316" target-y="48.4826"></path><path d="M 72.25 50.98 C 72.39 51.19 72.48 51.43 72.48 51.64 C 72.48 51.86 72.41 52.00 72.27 52.05 C 72.10 52.12 71.82 52.05 71.50 51.87 C 71.44 51.83 71.37 51.79 71.31 51.74 L 71.30 52.63 L 70.88 52.39 L 70.89 50.05 L 70.94 50.07 C 71.12 50.15 71.33 50.25 71.54 50.37 C 71.85 50.55 72.09 50.76 72.25 50.98 Z M 71.51 51.51 C 71.86 51.71 72.06 51.68 72.06 51.41 C 72.06 51.08 71.74 50.85 71.55 50.73 C 71.45 50.68 71.37 50.64 71.31 50.61 L 71.31 51.38 C 71.36 51.42 71.43 51.46 71.51 51.51" fill="#ffffff" fill-rule="nonzero" group-id="4,7,18,52,98" node-id="1204" stroke="none" target-height="2.5844994" target-width="1.5951996" target-x="70.8819" target-y="50.0489"></path><path d="M 76.51 53.26 L 75.65 54.15 L 75.65 55.14 L 75.23 54.90 L 75.23 53.90 L 74.42 52.06 L 74.91 52.34 L 75.33 53.35 C 75.38 53.47 75.42 53.57 75.46 53.68 C 75.50 53.62 75.55 53.56 75.61 53.49 L 76.03 52.98 L 76.51 53.26 Z" fill="#ffffff" fill-rule="nonzero" group-id="4,7,18,52,99" node-id="1209" stroke="none" target-height="3.0860977" target-width="2.0868073" target-x="74.4249" target-y="52.0577"></path><path d="M 73.74 51.66 L 74.60 54.54 L 74.15 54.28 L 73.90 53.42 L 73.12 52.97 L 72.87 53.54 L 72.43 53.28 L 73.30 51.41 L 73.74 51.66 Z M 73.23 52.69 L 73.79 53.01 L 73.59 52.33 C 73.56 52.23 73.53 52.14 73.51 52.04 C 73.49 52.11 73.46 52.18 73.43 52.24 L 73.23 52.69" fill="#ffffff" fill-rule="nonzero" group-id="4,7,18,52,100" node-id="1214" stroke="none" target-height="3.1296997" target-width="2.1753998" target-x="72.4274" target-y="51.4086"></path><path d="M 43.82 51.47 L 36.61 47.28 L 36.62 54.02 L 43.83 58.21 Z" fill="#3887e5" fill-rule="nonzero" group-id="4,8,19,53,101" node-id="1228" stroke="none" target-height="10.934799" target-width="7.217701" target-x="36.6105" target-y="47.2764"></path><path d="M 51.03 47.30 L 43.82 43.12 L 36.61 47.28 L 43.82 51.47 Z" fill="#a6c2ff" fill-rule="nonzero" group-id="4,8,19,53,102" node-id="1233" stroke="none" target-height="8.349998" target-width="14.415199" target-x="36.6105" target-y="43.1151"></path><path d="M 43.82 51.47 L 43.83 58.21 L 51.04 54.05 L 51.03 47.30 Z" fill="#6b9ef9" fill-rule="nonzero" group-id="4,8,19,53,103" node-id="1238" stroke="none" target-height="10.907501" target-width="7.2178" target-x="43.8181" target-y="47.3037"></path><path d="M 48.28 50.75 L 48.28 48.89 L 46.57 49.88 L 46.57 51.74 Z" fill="#b6cbea" fill-rule="nonzero" group-id="4,8,19,53" node-id="1241" stroke="none" target-height="2.8535995" target-width="1.7173996" target-x="46.5652" target-y="48.8881"></path><path d="M 48.28 55.64 L 48.28 53.78 L 46.57 54.77 L 46.57 56.63 Z" fill="#b6cbea" fill-rule="nonzero" group-id="4,8,19,53" node-id="1243" stroke="none" target-height="2.8535995" target-width="1.7173996" target-x="46.5652" target-y="53.7753"></path><path d="M 41.07 44.70 L 48.28 48.89 L 46.56 49.88 L 39.35 45.69 Z" fill="#dee7f8" fill-rule="nonzero" group-id="4,8,19,53,104" node-id="1247" stroke="none" target-height="5.1809998" target-width="8.926903" target-x="39.3546" target-y="44.6996"></path><path d="M 40.22 53.87 L 43.14 55.55 L 43.13 57.20 L 40.22 55.52 Z" fill="#ffffff" fill-rule="nonzero" group-id="4,8,19,54" node-id="1253" stroke="none" target-height="3.3316002" target-width="2.9169998" target-x="40.2193" target-y="53.871"></path><path d="M 42.08 55.16 L 42.08 56.38 L 42.29 56.51 L 42.30 55.28 Z" fill="#4c4a8b" fill-rule="nonzero" group-id="4,8,19,54,105,194" node-id="1259" stroke="none" target-height="1.3518028" target-width="0.21649933" target-x="42.0814" target-y="55.156"></path><path d="M 41.69 54.93 L 41.68 56.15 L 41.94 56.30 L 41.94 55.07 Z" fill="#4c4a8b" fill-rule="nonzero" group-id="4,8,19,54,105,195" node-id="1264" stroke="none" target-height="1.3754005" target-width="0.25730133" target-x="41.6828" target-y="54.9259"></path><path d="M 41.45 54.79 L 41.44 56.02 L 41.58 56.09 L 41.58 54.87 Z" fill="#4c4a8b" fill-rule="nonzero" group-id="4,8,19,54,105,196" node-id="1269" stroke="none" target-height="1.3069992" target-width="0.13880157" target-x="41.4436" target-y="54.7877"></path><path d="M 41.24 54.67 L 41.23 55.90 L 41.30 55.94 L 41.31 54.71 Z" fill="#4c4a8b" fill-rule="nonzero" group-id="4,8,19,54,105,197" node-id="1274" stroke="none" target-height="1.2686005" target-width="0.07229996" target-x="41.2339" target-y="54.6667"></path><path d="M 40.92 54.48 L 40.92 55.71 L 41.09 55.81 L 41.10 54.59 Z" fill="#4c4a8b" fill-rule="nonzero" group-id="4,8,19,54,105,198" node-id="1279" stroke="none" target-height="1.3304977" target-width="0.17959976" target-x="40.9175" target-y="54.484"></path><path d="M 40.75 54.39 L 40.75 55.62 L 40.79 55.64 L 40.79 54.41 Z" fill="#4c4a8b" fill-rule="nonzero" group-id="4,8,19,54,105,199" node-id="1284" stroke="none" target-height="1.2502022" target-width="0.040302277" target-x="40.7493" target-y="54.3868"></path><path d="M 42.88 55.62 L 42.88 56.85 L 42.95 56.89 L 42.95 55.66 Z" fill="#4c4a8b" fill-rule="nonzero" group-id="4,8,19,54,105,200" node-id="1289" stroke="none" target-height="1.2682991" target-width="0.071697235" target-x="42.8814" target-y="55.6178"></path><path d="M 42.57 55.44 L 42.56 56.66 L 42.74 56.77 L 42.74 55.54 Z" fill="#4c4a8b" fill-rule="nonzero" group-id="4,8,19,54,105,201" node-id="1294" stroke="none" target-height="1.3302002" target-width="0.17900085" target-x="42.565" target-y="55.4352"></path><path d="M 42.40 55.34 L 42.40 56.57 L 42.43 56.59 L 42.44 55.36 Z" fill="#4c4a8b" fill-rule="nonzero" group-id="4,8,19,54,105,202" node-id="1299" stroke="none" target-height="1.2504997" target-width="0.040901184" target-x="42.3962" target-y="55.3377"></path><path d="M 40.41 54.19 L 40.40 55.42 L 40.61 55.53 L 40.61 54.31 Z" fill="#4c4a8b" fill-rule="nonzero" group-id="4,8,19,54,105,203" node-id="1304" stroke="none" target-height="1.3479996" target-width="0.20970154" target-x="40.4027" target-y="54.1867"></path><path d="M 33.20 57.60 L 25.99 53.41 L 26.00 60.15 L 33.21 64.34 Z" fill="#3887e5" fill-rule="nonzero" group-id="4,8,20,55,106" node-id="1316" stroke="none" target-height="10.934704" target-width="7.217699" target-x="25.9914" target-y="53.4074"></path><path d="M 40.41 53.43 L 33.20 49.25 L 25.99 53.41 L 33.20 57.60 Z" fill="#a6c2ff" fill-rule="nonzero" group-id="4,8,20,55,107" node-id="1321" stroke="none" target-height="8.350002" target-width="14.415201" target-x="25.9914" target-y="49.246"></path><path d="M 33.20 57.60 L 33.21 64.34 L 40.42 60.18 L 40.41 53.43 Z" fill="#6b9ef9" fill-rule="nonzero" group-id="4,8,20,55,108" node-id="1326" stroke="none" target-height="10.907402" target-width="7.2178" target-x="33.199" target-y="53.4347"></path><path d="M 37.66 56.88 L 37.66 55.02 L 35.95 56.01 L 35.95 57.87 Z" fill="#b6cbea" fill-rule="nonzero" group-id="4,8,20,55" node-id="1329" stroke="none" target-height="2.8536987" target-width="1.7174034" target-x="35.9461" target-y="55.019"></path><path d="M 37.66 61.77 L 37.66 59.91 L 35.95 60.90 L 35.95 62.76 Z" fill="#b6cbea" fill-rule="nonzero" group-id="4,8,20,55" node-id="1331" stroke="none" target-height="2.8535995" target-width="1.7174034" target-x="35.9461" target-y="59.9062"></path><path d="M 30.45 50.83 L 37.66 55.02 L 35.94 56.01 L 28.74 51.82 Z" fill="#dee7f8" fill-rule="nonzero" group-id="4,8,20,55,109" node-id="1335" stroke="none" target-height="5.181099" target-width="8.926899" target-x="28.7355" target-y="50.8305"></path><path d="M 29.60 60.00 L 32.52 61.68 L 32.51 63.33 L 29.60 61.65 Z" fill="#ffffff" fill-rule="nonzero" group-id="4,8,20,56" node-id="1341" stroke="none" target-height="3.3316002" target-width="2.9169998" target-x="29.6002" target-y="60.0019"></path><path d="M 31.47 61.29 L 31.46 62.52 L 31.68 62.64 L 31.68 61.41 Z" fill="#4c4a8b" fill-rule="nonzero" group-id="4,8,20,56,110,204" node-id="1347" stroke="none" target-height="1.351902" target-width="0.21650124" target-x="31.4623" target-y="61.2869"></path><path d="M 31.07 61.06 L 31.06 62.29 L 31.32 62.43 L 31.32 61.20 Z" fill="#4c4a8b" fill-rule="nonzero" group-id="4,8,20,56,110,205" node-id="1352" stroke="none" target-height="1.3754005" target-width="0.25719833" target-x="31.0638" target-y="61.0568"></path><path d="M 30.83 60.92 L 30.82 62.15 L 30.96 62.23 L 30.96 61.00 Z" fill="#4c4a8b" fill-rule="nonzero" group-id="4,8,20,56,110,206" node-id="1357" stroke="none" target-height="1.307003" target-width="0.13880157" target-x="30.8245" target-y="60.9186"></path><path d="M 30.62 60.80 L 30.61 62.03 L 30.68 62.07 L 30.69 60.84 Z" fill="#4c4a8b" fill-rule="nonzero" group-id="4,8,20,56,110,207" node-id="1362" stroke="none" target-height="1.2686005" target-width="0.07219887" target-x="30.6149" target-y="60.7976"></path><path d="M 30.30 60.61 L 30.30 61.84 L 30.47 61.95 L 30.48 60.72 Z" fill="#4c4a8b" fill-rule="nonzero" group-id="4,8,20,56,110,208" node-id="1367" stroke="none" target-height="1.3306007" target-width="0.17959976" target-x="30.2984" target-y="60.6149"></path><path d="M 30.13 60.52 L 30.13 61.75 L 30.17 61.77 L 30.17 60.54 Z" fill="#4c4a8b" fill-rule="nonzero" group-id="4,8,20,56,110,209" node-id="1372" stroke="none" target-height="1.2502022" target-width="0.04040146" target-x="30.1302" target-y="60.5178"></path><path d="M 32.27 61.75 L 32.26 62.98 L 32.33 63.02 L 32.33 61.79 Z" fill="#4c4a8b" fill-rule="nonzero" group-id="4,8,20,56,110,210" node-id="1377" stroke="none" target-height="1.2681999" target-width="0.07170105" target-x="32.2623" target-y="61.7488"></path><path d="M 31.95 61.57 L 31.95 62.80 L 32.12 62.90 L 32.12 61.67 Z" fill="#4c4a8b" fill-rule="nonzero" group-id="4,8,20,56,110,211" node-id="1382" stroke="none" target-height="1.3302002" target-width="0.17900085" target-x="31.9459" target-y="61.5661"></path><path d="M 31.78 61.47 L 31.78 62.70 L 31.81 62.72 L 31.82 61.49 Z" fill="#4c4a8b" fill-rule="nonzero" group-id="4,8,20,56,110,212" node-id="1387" stroke="none" target-height="1.2504997" target-width="0.040901184" target-x="31.7771" target-y="61.4686"></path><path d="M 29.79 60.32 L 29.78 61.55 L 29.99 61.67 L 29.99 60.44 Z" fill="#4c4a8b" fill-rule="nonzero" group-id="4,8,20,56,110,213" node-id="1392" stroke="none" target-height="1.3479004" target-width="0.20969963" target-x="29.7836" target-y="60.3177"></path><path d="M 37.34 47.03 L 30.13 42.84 L 30.14 49.59 L 37.35 53.78 Z" fill="#3887e5" fill-rule="nonzero" group-id="4,8,21,57,111" node-id="1404" stroke="none" target-height="10.934799" target-width="7.2178" target-x="30.1302" target-y="42.8405"></path><path d="M 44.55 42.87 L 37.34 38.68 L 30.13 42.84 L 37.34 47.03 Z" fill="#a6c2ff" fill-rule="nonzero" group-id="4,8,21,57,112" node-id="1409" stroke="none" target-height="8.350002" target-width="14.415199" target-x="30.1302" target-y="38.6792"></path><path d="M 37.34 47.03 L 37.35 53.78 L 44.56 49.61 L 44.55 42.87 Z" fill="#6b9ef9" fill-rule="nonzero" group-id="4,8,21,57,113" node-id="1414" stroke="none" target-height="10.907497" target-width="7.2178" target-x="37.3378" target-y="42.8678"></path><path d="M 41.80 46.31 L 41.80 44.45 L 40.08 45.44 L 40.09 47.31 Z" fill="#b6cbea" fill-rule="nonzero" group-id="4,8,21,57" node-id="1417" stroke="none" target-height="2.8535995" target-width="1.7173996" target-x="40.0849" target-y="44.4522"></path><path d="M 41.80 51.20 L 41.80 49.34 L 40.08 50.33 L 40.09 52.19 Z" fill="#b6cbea" fill-rule="nonzero" group-id="4,8,21,57" node-id="1419" stroke="none" target-height="2.8535995" target-width="1.7173996" target-x="40.0849" target-y="49.3394"></path><path d="M 34.59 40.26 L 41.80 44.45 L 40.08 45.44 L 32.87 41.26 Z" fill="#dee7f8" fill-rule="nonzero" group-id="4,8,21,57,114" node-id="1423" stroke="none" target-height="5.1809998" target-width="8.9268" target-x="32.8744" target-y="40.2637"></path><path d="M 33.74 49.44 L 36.66 51.12 L 36.65 52.77 L 33.74 51.09 Z" fill="#ffffff" fill-rule="nonzero" group-id="4,8,21,58" node-id="1429" stroke="none" target-height="3.3316002" target-width="2.9168968" target-x="33.7391" target-y="49.4351"></path><path d="M 35.60 50.72 L 35.60 51.95 L 35.81 52.07 L 35.82 50.84 Z" fill="#4c4a8b" fill-rule="nonzero" group-id="4,8,21,58,115,214" node-id="1435" stroke="none" target-height="1.351799" target-width="0.21640015" target-x="35.6012" target-y="50.7201"></path><path d="M 35.21 50.49 L 35.20 51.72 L 35.46 51.87 L 35.46 50.64 Z" fill="#4c4a8b" fill-rule="nonzero" group-id="4,8,21,58,115,215" node-id="1440" stroke="none" target-height="1.3753967" target-width="0.25730133" target-x="35.2026" target-y="50.49"></path><path d="M 34.97 50.35 L 34.96 51.58 L 35.10 51.66 L 35.10 50.43 Z" fill="#4c4a8b" fill-rule="nonzero" group-id="4,8,21,58,115,216" node-id="1445" stroke="none" target-height="1.3069992" target-width="0.13880157" target-x="34.9633" target-y="50.3518"></path><path d="M 34.76 50.23 L 34.75 51.46 L 34.82 51.50 L 34.83 50.27 Z" fill="#4c4a8b" fill-rule="nonzero" group-id="4,8,21,58,115,217" node-id="1450" stroke="none" target-height="1.2686005" target-width="0.072200775" target-x="34.7537" target-y="50.2308"></path><path d="M 34.44 50.05 L 34.44 51.28 L 34.61 51.38 L 34.62 50.15 Z" fill="#4c4a8b" fill-rule="nonzero" group-id="4,8,21,58,115,218" node-id="1455" stroke="none" target-height="1.3306007" target-width="0.17949677" target-x="34.4373" target-y="50.0481"></path><path d="M 34.27 49.95 L 34.27 51.18 L 34.31 51.20 L 34.31 49.97 Z" fill="#4c4a8b" fill-rule="nonzero" group-id="4,8,21,58,115,219" node-id="1460" stroke="none" target-height="1.2500992" target-width="0.040397644" target-x="34.269" target-y="49.951"></path><path d="M 36.40 51.18 L 36.40 52.41 L 36.47 52.45 L 36.47 51.22 Z" fill="#4c4a8b" fill-rule="nonzero" group-id="4,8,21,58,115,220" node-id="1465" stroke="none" target-height="1.2682991" target-width="0.07170105" target-x="36.4011" target-y="51.1819"></path><path d="M 36.09 51.00 L 36.08 52.23 L 36.26 52.33 L 36.26 51.10 Z" fill="#4c4a8b" fill-rule="nonzero" group-id="4,8,21,58,115,221" node-id="1470" stroke="none" target-height="1.3302002" target-width="0.17910004" target-x="36.0847" target-y="50.9993"></path><path d="M 35.92 50.90 L 35.92 52.13 L 35.95 52.15 L 35.96 50.92 Z" fill="#4c4a8b" fill-rule="nonzero" group-id="4,8,21,58,115,222" node-id="1475" stroke="none" target-height="1.2505035" target-width="0.04089737" target-x="35.9159" target-y="50.9018"></path><path d="M 33.93 49.75 L 33.92 50.98 L 34.13 51.10 L 34.13 49.87 Z" fill="#4c4a8b" fill-rule="nonzero" group-id="4,8,21,58,115,223" node-id="1480" stroke="none" target-height="1.3479996" target-width="0.2097969" target-x="33.9224" target-y="49.7508"></path><path d="M 43.82 51.47 L 36.61 47.28 L 36.62 54.02 L 43.83 58.21 Z" fill="#3887e5" fill-rule="nonzero" group-id="4,9,22,59,116" node-id="1495" stroke="none" target-height="10.934799" target-width="7.217701" target-x="36.6105" target-y="47.2764"></path><path d="M 51.03 47.30 L 43.82 43.12 L 36.61 47.28 L 43.82 51.47 Z" fill="#a6c2ff" fill-rule="nonzero" group-id="4,9,22,59,117" node-id="1500" stroke="none" target-height="8.349998" target-width="14.415199" target-x="36.6105" target-y="43.1151"></path><path d="M 43.82 51.47 L 43.83 58.21 L 51.04 54.05 L 51.03 47.30 Z" fill="#6b9ef9" fill-rule="nonzero" group-id="4,9,22,59,118" node-id="1505" stroke="none" target-height="10.907501" target-width="7.2178" target-x="43.8181" target-y="47.3037"></path><path d="M 48.28 50.75 L 48.28 48.89 L 46.57 49.88 L 46.57 51.74 Z" fill="#b6cbea" fill-rule="nonzero" group-id="4,9,22,59" node-id="1508" stroke="none" target-height="2.8535995" target-width="1.7173996" target-x="46.5652" target-y="48.8881"></path><path d="M 48.28 55.64 L 48.28 53.78 L 46.57 54.77 L 46.57 56.63 Z" fill="#b6cbea" fill-rule="nonzero" group-id="4,9,22,59" node-id="1510" stroke="none" target-height="2.8535995" target-width="1.7173996" target-x="46.5652" target-y="53.7753"></path><path d="M 41.07 44.70 L 48.28 48.89 L 46.56 49.88 L 39.35 45.69 Z" fill="#dee7f8" fill-rule="nonzero" group-id="4,9,22,59,119" node-id="1514" stroke="none" target-height="5.1809998" target-width="8.926903" target-x="39.3546" target-y="44.6996"></path><path d="M 40.22 53.87 L 43.14 55.55 L 43.13 57.20 L 40.22 55.52 Z" fill="#ffffff" fill-rule="nonzero" group-id="4,9,22,60" node-id="1520" stroke="none" target-height="3.3316002" target-width="2.9169998" target-x="40.2193" target-y="53.871"></path><path d="M 42.08 55.16 L 42.08 56.38 L 42.29 56.51 L 42.30 55.28 Z" fill="#4c4a8b" fill-rule="nonzero" group-id="4,9,22,60,120,224" node-id="1526" stroke="none" target-height="1.3518028" target-width="0.21649933" target-x="42.0814" target-y="55.156"></path><path d="M 41.69 54.93 L 41.68 56.15 L 41.94 56.30 L 41.94 55.07 Z" fill="#4c4a8b" fill-rule="nonzero" group-id="4,9,22,60,120,225" node-id="1531" stroke="none" target-height="1.3754005" target-width="0.25730133" target-x="41.6828" target-y="54.9259"></path><path d="M 41.45 54.79 L 41.44 56.02 L 41.58 56.09 L 41.58 54.87 Z" fill="#4c4a8b" fill-rule="nonzero" group-id="4,9,22,60,120,226" node-id="1536" stroke="none" target-height="1.3069992" target-width="0.13880157" target-x="41.4436" target-y="54.7877"></path><path d="M 41.24 54.67 L 41.23 55.90 L 41.30 55.94 L 41.31 54.71 Z" fill="#4c4a8b" fill-rule="nonzero" group-id="4,9,22,60,120,227" node-id="1541" stroke="none" target-height="1.2686005" target-width="0.07229996" target-x="41.2339" target-y="54.6667"></path><path d="M 40.92 54.48 L 40.92 55.71 L 41.09 55.81 L 41.10 54.59 Z" fill="#4c4a8b" fill-rule="nonzero" group-id="4,9,22,60,120,228" node-id="1546" stroke="none" target-height="1.3304977" target-width="0.17959976" target-x="40.9175" target-y="54.484"></path><path d="M 40.75 54.39 L 40.75 55.62 L 40.79 55.64 L 40.79 54.41 Z" fill="#4c4a8b" fill-rule="nonzero" group-id="4,9,22,60,120,229" node-id="1551" stroke="none" target-height="1.2502022" target-width="0.040302277" target-x="40.7493" target-y="54.3868"></path><path d="M 42.88 55.62 L 42.88 56.85 L 42.95 56.89 L 42.95 55.66 Z" fill="#4c4a8b" fill-rule="nonzero" group-id="4,9,22,60,120,230" node-id="1556" stroke="none" target-height="1.2682991" target-width="0.071697235" target-x="42.8814" target-y="55.6178"></path><path d="M 42.57 55.44 L 42.56 56.66 L 42.74 56.77 L 42.74 55.54 Z" fill="#4c4a8b" fill-rule="nonzero" group-id="4,9,22,60,120,231" node-id="1561" stroke="none" target-height="1.3302002" target-width="0.17900085" target-x="42.565" target-y="55.4352"></path><path d="M 42.40 55.34 L 42.40 56.57 L 42.43 56.59 L 42.44 55.36 Z" fill="#4c4a8b" fill-rule="nonzero" group-id="4,9,22,60,120,232" node-id="1566" stroke="none" target-height="1.2504997" target-width="0.040901184" target-x="42.3962" target-y="55.3377"></path><path d="M 40.41 54.19 L 40.40 55.42 L 40.61 55.53 L 40.61 54.31 Z" fill="#4c4a8b" fill-rule="nonzero" group-id="4,9,22,60,120,233" node-id="1571" stroke="none" target-height="1.3479996" target-width="0.20970154" target-x="40.4027" target-y="54.1867"></path><path d="M 33.20 57.60 L 25.99 53.41 L 26.00 60.15 L 33.21 64.34 Z" fill="#3887e5" fill-rule="nonzero" group-id="4,9,23,61,121" node-id="1583" stroke="none" target-height="10.934704" target-width="7.217699" target-x="25.9914" target-y="53.4074"></path><path d="M 40.41 53.43 L 33.20 49.25 L 25.99 53.41 L 33.20 57.60 Z" fill="#a6c2ff" fill-rule="nonzero" group-id="4,9,23,61,122" node-id="1588" stroke="none" target-height="8.350002" target-width="14.415201" target-x="25.9914" target-y="49.246"></path><path d="M 33.20 57.60 L 33.21 64.34 L 40.42 60.18 L 40.41 53.43 Z" fill="#6b9ef9" fill-rule="nonzero" group-id="4,9,23,61,123" node-id="1593" stroke="none" target-height="10.907402" target-width="7.2178" target-x="33.199" target-y="53.4347"></path><path d="M 37.66 56.88 L 37.66 55.02 L 35.95 56.01 L 35.95 57.87 Z" fill="#b6cbea" fill-rule="nonzero" group-id="4,9,23,61" node-id="1596" stroke="none" target-height="2.8536987" target-width="1.7174034" target-x="35.9461" target-y="55.019"></path><path d="M 37.66 61.77 L 37.66 59.91 L 35.95 60.90 L 35.95 62.76 Z" fill="#b6cbea" fill-rule="nonzero" group-id="4,9,23,61" node-id="1598" stroke="none" target-height="2.8535995" target-width="1.7174034" target-x="35.9461" target-y="59.9062"></path><path d="M 30.45 50.83 L 37.66 55.02 L 35.94 56.01 L 28.74 51.82 Z" fill="#dee7f8" fill-rule="nonzero" group-id="4,9,23,61,124" node-id="1602" stroke="none" target-height="5.181099" target-width="8.926899" target-x="28.7355" target-y="50.8305"></path><path d="M 29.60 60.00 L 32.52 61.68 L 32.51 63.33 L 29.60 61.65 Z" fill="#ffffff" fill-rule="nonzero" group-id="4,9,23,62" node-id="1608" stroke="none" target-height="3.3316002" target-width="2.9169998" target-x="29.6002" target-y="60.0019"></path><path d="M 31.47 61.29 L 31.46 62.52 L 31.68 62.64 L 31.68 61.41 Z" fill="#4c4a8b" fill-rule="nonzero" group-id="4,9,23,62,125,234" node-id="1614" stroke="none" target-height="1.351902" target-width="0.21650124" target-x="31.4623" target-y="61.2869"></path><path d="M 31.07 61.06 L 31.06 62.29 L 31.32 62.43 L 31.32 61.20 Z" fill="#4c4a8b" fill-rule="nonzero" group-id="4,9,23,62,125,235" node-id="1619" stroke="none" target-height="1.3754005" target-width="0.25719833" target-x="31.0638" target-y="61.0568"></path><path d="M 30.83 60.92 L 30.82 62.15 L 30.96 62.23 L 30.96 61.00 Z" fill="#4c4a8b" fill-rule="nonzero" group-id="4,9,23,62,125,236" node-id="1624" stroke="none" target-height="1.307003" target-width="0.13880157" target-x="30.8245" target-y="60.9186"></path><path d="M 30.62 60.80 L 30.61 62.03 L 30.68 62.07 L 30.69 60.84 Z" fill="#4c4a8b" fill-rule="nonzero" group-id="4,9,23,62,125,237" node-id="1629" stroke="none" target-height="1.2686005" target-width="0.07219887" target-x="30.6149" target-y="60.7976"></path><path d="M 30.30 60.61 L 30.30 61.84 L 30.47 61.95 L 30.48 60.72 Z" fill="#4c4a8b" fill-rule="nonzero" group-id="4,9,23,62,125,238" node-id="1634" stroke="none" target-height="1.3306007" target-width="0.17959976" target-x="30.2984" target-y="60.6149"></path><path d="M 30.13 60.52 L 30.13 61.75 L 30.17 61.77 L 30.17 60.54 Z" fill="#4c4a8b" fill-rule="nonzero" group-id="4,9,23,62,125,239" node-id="1639" stroke="none" target-height="1.2502022" target-width="0.04040146" target-x="30.1302" target-y="60.5178"></path><path d="M 32.27 61.75 L 32.26 62.98 L 32.33 63.02 L 32.33 61.79 Z" fill="#4c4a8b" fill-rule="nonzero" group-id="4,9,23,62,125,240" node-id="1644" stroke="none" target-height="1.2681999" target-width="0.07170105" target-x="32.2623" target-y="61.7488"></path><path d="M 31.95 61.57 L 31.95 62.80 L 32.12 62.90 L 32.12 61.67 Z" fill="#4c4a8b" fill-rule="nonzero" group-id="4,9,23,62,125,241" node-id="1649" stroke="none" target-height="1.3302002" target-width="0.17900085" target-x="31.9459" target-y="61.5661"></path><path d="M 31.78 61.47 L 31.78 62.70 L 31.81 62.72 L 31.82 61.49 Z" fill="#4c4a8b" fill-rule="nonzero" group-id="4,9,23,62,125,242" node-id="1654" stroke="none" target-height="1.2504997" target-width="0.040901184" target-x="31.7771" target-y="61.4686"></path><path d="M 29.79 60.32 L 29.78 61.55 L 29.99 61.67 L 29.99 60.44 Z" fill="#4c4a8b" fill-rule="nonzero" group-id="4,9,23,62,125,243" node-id="1659" stroke="none" target-height="1.3479004" target-width="0.20969963" target-x="29.7836" target-y="60.3177"></path><path d="M 37.34 47.03 L 30.13 42.84 L 30.14 49.59 L 37.35 53.78 Z" fill="#3887e5" fill-rule="nonzero" group-id="4,9,24,63,126" node-id="1671" stroke="none" target-height="10.934799" target-width="7.2178" target-x="30.1302" target-y="42.8405"></path><path d="M 44.55 42.87 L 37.34 38.68 L 30.13 42.84 L 37.34 47.03 Z" fill="#a6c2ff" fill-rule="nonzero" group-id="4,9,24,63,127" node-id="1676" stroke="none" target-height="8.350002" target-width="14.415199" target-x="30.1302" target-y="38.6792"></path><path d="M 37.34 47.03 L 37.35 53.78 L 44.56 49.61 L 44.55 42.87 Z" fill="#6b9ef9" fill-rule="nonzero" group-id="4,9,24,63,128" node-id="1681" stroke="none" target-height="10.907497" target-width="7.2178" target-x="37.3378" target-y="42.8678"></path><path d="M 41.80 46.31 L 41.80 44.45 L 40.08 45.44 L 40.09 47.31 Z" fill="#b6cbea" fill-rule="nonzero" group-id="4,9,24,63" node-id="1684" stroke="none" target-height="2.8535995" target-width="1.7173996" target-x="40.0849" target-y="44.4522"></path><path d="M 41.80 51.20 L 41.80 49.34 L 40.08 50.33 L 40.09 52.19 Z" fill="#b6cbea" fill-rule="nonzero" group-id="4,9,24,63" node-id="1686" stroke="none" target-height="2.8535995" target-width="1.7173996" target-x="40.0849" target-y="49.3394"></path><path d="M 34.59 40.26 L 41.80 44.45 L 40.08 45.44 L 32.87 41.26 Z" fill="#dee7f8" fill-rule="nonzero" group-id="4,9,24,63,129" node-id="1690" stroke="none" target-height="5.1809998" target-width="8.9268" target-x="32.8744" target-y="40.2637"></path><path d="M 33.74 49.44 L 36.66 51.12 L 36.65 52.77 L 33.74 51.09 Z" fill="#ffffff" fill-rule="nonzero" group-id="4,9,24,64" node-id="1696" stroke="none" target-height="3.3316002" target-width="2.9168968" target-x="33.7391" target-y="49.4351"></path><path d="M 35.60 50.72 L 35.60 51.95 L 35.81 52.07 L 35.82 50.84 Z" fill="#4c4a8b" fill-rule="nonzero" group-id="4,9,24,64,130,244" node-id="1702" stroke="none" target-height="1.351799" target-width="0.21640015" target-x="35.6012" target-y="50.7201"></path><path d="M 35.21 50.49 L 35.20 51.72 L 35.46 51.87 L 35.46 50.64 Z" fill="#4c4a8b" fill-rule="nonzero" group-id="4,9,24,64,130,245" node-id="1707" stroke="none" target-height="1.3753967" target-width="0.25730133" target-x="35.2026" target-y="50.49"></path><path d="M 34.97 50.35 L 34.96 51.58 L 35.10 51.66 L 35.10 50.43 Z" fill="#4c4a8b" fill-rule="nonzero" group-id="4,9,24,64,130,246" node-id="1712" stroke="none" target-height="1.3069992" target-width="0.13880157" target-x="34.9633" target-y="50.3518"></path><path d="M 34.76 50.23 L 34.75 51.46 L 34.82 51.50 L 34.83 50.27 Z" fill="#4c4a8b" fill-rule="nonzero" group-id="4,9,24,64,130,247" node-id="1717" stroke="none" target-height="1.2686005" target-width="0.072200775" target-x="34.7537" target-y="50.2308"></path><path d="M 34.44 50.05 L 34.44 51.28 L 34.61 51.38 L 34.62 50.15 Z" fill="#4c4a8b" fill-rule="nonzero" group-id="4,9,24,64,130,248" node-id="1722" stroke="none" target-height="1.3306007" target-width="0.17949677" target-x="34.4373" target-y="50.0481"></path><path d="M 34.27 49.95 L 34.27 51.18 L 34.31 51.20 L 34.31 49.97 Z" fill="#4c4a8b" fill-rule="nonzero" group-id="4,9,24,64,130,249" node-id="1727" stroke="none" target-height="1.2500992" target-width="0.040397644" target-x="34.269" target-y="49.951"></path><path d="M 36.40 51.18 L 36.40 52.41 L 36.47 52.45 L 36.47 51.22 Z" fill="#4c4a8b" fill-rule="nonzero" group-id="4,9,24,64,130,250" node-id="1732" stroke="none" target-height="1.2682991" target-width="0.07170105" target-x="36.4011" target-y="51.1819"></path><path d="M 36.09 51.00 L 36.08 52.23 L 36.26 52.33 L 36.26 51.10 Z" fill="#4c4a8b" fill-rule="nonzero" group-id="4,9,24,64,130,251" node-id="1737" stroke="none" target-height="1.3302002" target-width="0.17910004" target-x="36.0847" target-y="50.9993"></path><path d="M 35.92 50.90 L 35.92 52.13 L 35.95 52.15 L 35.96 50.92 Z" fill="#4c4a8b" fill-rule="nonzero" group-id="4,9,24,64,130,252" node-id="1742" stroke="none" target-height="1.2505035" target-width="0.04089737" target-x="35.9159" target-y="50.9018"></path><path d="M 33.93 49.75 L 33.92 50.98 L 34.13 51.10 L 34.13 49.87 Z" fill="#4c4a8b" fill-rule="nonzero" group-id="4,9,24,64,130,253" node-id="1747" stroke="none" target-height="1.3479996" target-width="0.2097969" target-x="33.9224" target-y="49.7508"></path><path d="M 78.29 75.25 L 88.33 81.09 L 93.18 78.28 L 83.14 72.45 Z" fill="#a6c2ff" fill-rule="nonzero" group-id="4,10,25,65" node-id="1760" stroke="none" target-height="8.636002" target-width="14.892197" target-x="78.2881" target-y="72.4506"></path><path d="M 87.08 75.98 C 87.72 76.36 87.64 77.00 86.89 77.44 C 86.15 77.87 85.03 77.92 84.38 77.55 C 83.75 77.18 83.83 76.53 84.58 76.10 C 85.32 75.67 86.44 75.62 87.08 75.98 Z M 85.87 76.69 C 85.75 76.62 85.72 76.52 85.80 76.47 C 85.88 76.42 86.05 76.44 86.17 76.51 C 86.30 76.58 86.33 76.68 86.24 76.73 L 86.52 76.89 C 86.72 76.78 86.73 76.59 86.57 76.44 L 86.77 76.33 L 86.49 76.17 L 86.30 76.28 C 86.03 76.19 85.71 76.20 85.52 76.31 C 85.29 76.45 85.32 76.69 85.59 76.85 C 85.72 76.92 85.75 77.02 85.67 77.07 C 85.58 77.11 85.41 77.10 85.29 77.03 C 85.17 76.96 85.14 76.86 85.22 76.81 L 84.94 76.65 C 84.75 76.76 84.74 76.94 84.89 77.10 L 84.70 77.21 L 84.98 77.37 L 85.17 77.26 C 85.43 77.35 85.75 77.34 85.94 77.23 C 86.18 77.09 86.15 76.85 85.87 76.69" fill="#3887e5" fill-rule="nonzero" group-id="4,10,25,66,131,254" node-id="1769" stroke="none" target-height="2.3071976" target-width="3.9784012" target-x="83.7452" target-y="75.6154"></path><path d="M 83.37 74.98 C 83.57 75.10 83.57 75.29 83.37 75.40 C 83.17 75.52 82.84 75.52 82.64 75.40 C 82.43 75.29 82.43 75.10 82.64 74.98 C 82.84 74.86 83.16 74.86 83.37 74.98 Z" fill="#3887e5" fill-rule="nonzero" group-id="4,10,25,66,131,255,289" node-id="1776" stroke="none" target-height="0.65789795" target-width="1.1369019" target-x="82.4337" target-y="74.8626"></path><path d="M 92.29 78.21 C 92.40 78.27 92.40 78.37 92.30 78.44 L 88.63 80.57 C 88.53 80.63 88.35 80.62 88.24 80.56 L 79.17 75.33 C 79.07 75.27 79.07 75.16 79.17 75.10 L 82.84 72.97 C 82.94 72.91 83.12 72.91 83.22 72.97 L 92.29 78.21 Z M 88.97 80.19 L 91.65 78.64 C 91.76 78.57 91.75 78.47 91.65 78.41 L 82.88 73.35 C 82.77 73.29 82.60 73.29 82.49 73.35 L 79.82 74.90 C 79.71 74.96 79.71 75.06 79.82 75.13 L 88.59 80.19 C 88.69 80.25 88.87 80.25 88.97 80.19" fill="#3887e5" fill-rule="nonzero" group-id="4,10,25,66,131,255,290" node-id="1781" stroke="none" target-height="7.7154007" target-width="13.337799" target-x="79.0665" target-y="72.9107"></path><path d="M 83.30 73.94 C 83.29 73.99 83.24 74.04 83.17 74.08 C 83.09 74.13 83.01 74.15 82.93 74.16 C 82.85 74.17 82.78 74.15 82.71 74.11 C 82.65 74.07 82.62 74.03 82.63 73.98 C 82.64 73.94 82.69 73.89 82.77 73.85 C 82.84 73.80 82.92 73.78 83.00 73.77 C 83.08 73.76 83.15 73.78 83.22 73.82 C 83.29 73.86 83.32 73.90 83.30 73.94 Z M 82.92 74.09 C 82.98 74.09 83.03 74.07 83.09 74.03 C 83.14 74.00 83.17 73.97 83.19 73.94 C 83.20 73.91 83.19 73.88 83.15 73.86 C 83.11 73.83 83.06 73.83 83.01 73.84 C 82.95 73.84 82.90 73.86 82.85 73.90 C 82.79 73.93 82.76 73.96 82.74 73.99 C 82.73 74.02 82.74 74.05 82.78 74.07 C 82.82 74.10 82.87 74.10 82.92 74.09" fill="#3887e5" fill-rule="nonzero" group-id="4,10,25,67,132,256" node-id="1793" stroke="none" target-height="0.4040985" target-width="0.6969986" target-x="82.6184" target-y="73.7624"></path><path d="M 82.91 73.65 L 82.42 73.94 L 82.34 73.89 L 82.76 73.65 L 82.66 73.59 L 82.73 73.55 Z" fill="#3887e5" fill-rule="nonzero" group-id="4,10,25,67,132,257" node-id="1798" stroke="none" target-height="0.3886032" target-width="0.5695038" target-x="82.3396" target-y="73.5476"></path><path d="M 89.13 79.77 C 89.11 79.82 89.07 79.86 88.99 79.91 C 88.91 79.95 88.83 79.98 88.76 79.99 C 88.68 79.99 88.60 79.98 88.53 79.94 C 88.47 79.90 88.44 79.86 88.45 79.81 C 88.47 79.77 88.51 79.72 88.59 79.68 C 88.66 79.63 88.74 79.61 88.82 79.60 C 88.90 79.59 88.98 79.61 89.04 79.65 C 89.11 79.69 89.14 79.73 89.13 79.77 Z M 88.75 79.92 C 88.80 79.91 88.85 79.89 88.91 79.86 C 88.96 79.83 89.00 79.80 89.01 79.77 C 89.03 79.74 89.01 79.71 88.97 79.69 C 88.93 79.66 88.88 79.66 88.83 79.66 C 88.78 79.67 88.72 79.69 88.67 79.72 C 88.61 79.76 88.58 79.79 88.57 79.82 C 88.55 79.85 88.56 79.88 88.60 79.90 C 88.65 79.92 88.69 79.93 88.75 79.92" fill="#3887e5" fill-rule="nonzero" group-id="4,10,25,67,133,258" node-id="1806" stroke="none" target-height="0.40420532" target-width="0.6969986" target-x="88.441" target-y="79.5907"></path><path d="M 88.73 79.48 L 88.24 79.76 L 88.16 79.72 L 88.58 79.48 L 88.48 79.42 L 88.55 79.38 Z" fill="#3887e5" fill-rule="nonzero" group-id="4,10,25,67,133,259" node-id="1811" stroke="none" target-height="0.3886032" target-width="0.56949615" target-x="88.1622" target-y="79.376"></path><path d="M 78.29 75.25 L 78.29 77.01 L 88.33 82.84 L 88.33 81.09 Z" fill="#6b9ef9" fill-rule="nonzero" group-id="4,10,25,68,134" node-id="1820" stroke="none" target-height="7.5895004" target-width="10.041" target-x="78.2881" target-y="75.2534"></path><path d="M 85.05 79.18 L 85.05 80.94 L 86.43 81.74 L 86.43 79.98 Z" fill="#4c4a8b" fill-rule="nonzero" group-id="4,10,25,68,135" node-id="1825" stroke="none" target-height="2.5569" target-width="1.3812027" target-x="85.0508" target-y="79.1835"></path><path d="M 88.33 81.09 L 88.33 82.84 L 93.18 80.04 L 93.18 78.28 Z" fill="#3887e5" fill-rule="nonzero" group-id="4,10,25,68,136" node-id="1830" stroke="none" target-height="4.559105" target-width="4.858101" target-x="88.3257" target-y="78.2838"></path><path d="M 86.28 79.90 L 85.20 79.27 L 85.20 81.03 L 86.28 81.65 Z" fill="#b6cbea" fill-rule="nonzero" group-id="4,10,26" node-id="1837" stroke="none" target-height="2.381401" target-width="1.0790024" target-x="85.2019" target-y="79.2712"></path><path d="M 89.91 76.38 L 85.05 79.18 L 86.43 79.98 L 91.28 77.18 Z" fill="#6262aa" fill-rule="nonzero" group-id="4,10,27" node-id="1842" stroke="none" target-height="3.6034012" target-width="6.2324066" target-x="85.0508" target-y="76.3807"></path><path d="M 90.05 76.47 L 85.20 79.27 L 86.28 79.90 L 91.13 77.09 Z" fill="#dee7f8" fill-rule="nonzero" group-id="4,10,28" node-id="1847" stroke="none" target-height="3.4307938" target-width="5.9353943" target-x="85.1993" target-y="76.467"></path><path d="M 91.41 63.31 L 80.98 57.29 L 80.97 58.72 L 91.41 64.75 Z" fill="#2a2a5e" fill-rule="nonzero" group-id="4,11,29" node-id="1855" stroke="none" target-height="7.4667015" target-width="10.443199" target-x="80.9676" target-y="57.2859"></path><path d="M 90.53 63.09 L 90.53 63.74 L 80.91 69.33 C 80.48 69.59 79.77 69.59 79.33 69.33 L 72.39 65.33 C 72.17 65.20 72.06 65.03 72.06 64.87 L 72.06 64.22 C 72.06 64.39 72.17 64.55 72.39 64.68 L 79.33 68.68 C 79.77 68.93 80.48 68.93 80.91 68.68 L 90.53 63.09 Z" fill="#1e72c6" fill-rule="nonzero" group-id="4,11,30,69,137,260" node-id="1866" stroke="none" target-height="6.495102" target-width="18.470802" target-x="72.059" target-y="63.0934"></path><path d="M 90.53 63.09 L 80.91 68.68 C 80.48 68.93 79.77 68.93 79.33 68.68 L 72.39 64.68 C 71.95 64.42 71.95 64.01 72.39 63.76 L 82.00 58.17 L 90.53 63.09 Z" fill="#6b9ef9" fill-rule="nonzero" group-id="4,11,30,69,137,261" node-id="1871" stroke="none" target-height="10.765598" target-width="18.580704" target-x="71.95" target-y="58.1693"></path><path d="M 89.21 62.33 L 78.80 68.38 L 76.76 67.20 L 87.17 61.15 Z" fill="#dee7f8" fill-rule="nonzero" group-id="4,11,30,70" node-id="1878" stroke="none" target-height="7.2262" target-width="12.448105" target-x="76.7586" target-y="61.1499"></path><path d="M 51.50 61.16 C 51.83 60.97 52.37 60.97 52.70 61.16 C 52.86 61.26 52.95 61.38 52.95 61.51 L 52.95 61.13 C 52.95 61.00 52.86 60.87 52.70 60.78 C 52.37 60.59 51.83 60.59 51.50 60.78 C 51.34 60.87 51.25 61.00 51.25 61.12 L 51.25 61.51 C 51.25 61.38 51.34 61.26 51.50 61.16 Z" fill="#83a1cc" fill-rule="nonzero" group-id="4,12,31" node-id="1887" stroke="none" target-height="0.919899" target-width="1.6946983" target-x="51.254" target-y="60.59"></path><path d="M 54.54 63.08 C 54.53 63.23 54.41 63.37 54.24 63.47 L 47.82 67.20 C 47.42 67.43 46.76 67.43 46.35 67.20 L 41.64 64.48 C 41.43 64.36 41.33 64.20 41.33 64.05 L 41.33 64.43 C 41.33 64.59 41.43 64.74 41.64 64.86 L 46.35 67.58 C 46.75 67.82 47.42 67.81 47.82 67.58 L 54.24 63.85 C 54.41 63.75 54.53 63.61 54.54 63.46 L 54.78 60.59 L 54.78 60.21 L 54.54 63.08 Z" fill="#83a1cc" fill-rule="nonzero" group-id="4,12,31" node-id="1889" stroke="none" target-height="7.6096992" target-width="13.4501" target-x="41.3287" target-y="60.2074"></path><path d="M 54.54 63.08 C 54.53 63.23 54.42 63.37 54.24 63.47 L 47.82 67.20 C 47.42 67.43 46.76 67.44 46.35 67.20 L 41.64 64.48 C 41.23 64.24 41.23 63.86 41.63 63.63 L 48.05 59.90 C 48.23 59.79 48.47 59.73 48.73 59.72 L 53.68 59.57 C 53.99 59.56 54.27 59.63 54.47 59.75 C 54.67 59.87 54.79 60.03 54.78 60.21 L 54.54 63.08 Z M 51.51 61.47 C 51.84 61.67 52.37 61.67 52.70 61.47 C 53.03 61.28 53.03 60.97 52.70 60.78 C 52.37 60.59 51.83 60.59 51.50 60.78 C 51.17 60.97 51.18 61.28 51.51 61.47" fill="#b6cbea" fill-rule="nonzero" group-id="4,12,32" node-id="1894" stroke="none" target-height="7.8708" target-width="13.5658" target-x="41.2277" target-y="59.5647"></path><path d="M 51.18 64.36 L 47.61 66.44 C 47.43 66.54 47.14 66.54 46.97 66.44 L 42.95 64.12 C 42.77 64.02 42.77 63.85 42.95 63.75 L 46.52 61.67 C 46.70 61.57 46.98 61.57 47.16 61.67 L 51.18 63.99 C 51.36 64.10 51.36 64.26 51.18 64.36 Z" fill="#ffffff" fill-rule="nonzero" group-id="4,12,33" node-id="1899" stroke="none" target-height="4.971901" target-width="8.584301" target-x="42.7735" target-y="61.5711"></path><path d="M 47.46 62.67 C 47.82 62.88 47.76 63.26 47.32 63.51 C 46.89 63.76 46.24 63.80 45.88 63.59 C 45.52 63.38 45.58 63.01 46.01 62.75 C 46.45 62.50 47.10 62.46 47.46 62.67 Z M 46.19 63.41 C 46.41 63.54 46.80 63.52 47.07 63.36 C 47.33 63.21 47.37 62.98 47.15 62.85 C 46.93 62.72 46.53 62.75 46.27 62.90 C 46.00 63.06 45.97 63.28 46.19 63.41" fill="#6262aa" fill-rule="nonzero" group-id="4,12,34,71" node-id="1906" stroke="none" target-height="1.3372002" target-width="2.3059006" target-x="45.5153" target-y="62.4626"></path><path d="M 49.54 63.87 L 45.01 64.48 L 44.59 64.24 L 49.12 63.63 Z" fill="#6262aa" fill-rule="nonzero" group-id="4,12,34,72" node-id="1911" stroke="none" target-height="0.8498039" target-width="4.9512978" target-x="44.5894" target-y="63.6322"></path><path d="M 48.25 64.52 C 48.61 64.73 48.55 65.11 48.12 65.36 C 47.68 65.62 47.03 65.65 46.67 65.44 C 46.31 65.23 46.37 64.86 46.81 64.60 C 47.24 64.35 47.89 64.31 48.25 64.52 Z M 46.98 65.26 C 47.20 65.39 47.60 65.37 47.86 65.21 C 48.13 65.06 48.16 64.83 47.94 64.70 C 47.72 64.58 47.33 64.60 47.06 64.75 C 46.80 64.91 46.76 65.14 46.98 65.26" fill="#6262aa" fill-rule="nonzero" group-id="4,12,34,73" node-id="1916" stroke="none" target-height="1.3374023" target-width="2.3059006" target-x="46.3089" target-y="64.3143"></path><path d="M 69.97 53.49 C 70.05 53.31 70.11 53.22 70.22 53.12 C 70.34 53.02 70.48 52.85 70.53 52.76 C 70.57 52.66 70.55 52.56 70.61 52.55 C 70.88 52.52 70.79 52.95 70.74 53.05 C 70.70 53.14 70.62 53.20 70.60 53.29 C 70.58 53.37 70.79 53.31 70.96 53.21 C 71.13 53.11 71.79 52.80 71.97 52.75 C 72.14 52.69 72.23 52.74 72.14 52.86 C 72.06 52.98 71.42 53.31 71.29 53.39 C 71.63 53.63 71.70 53.86 71.68 54.13 C 71.68 54.26 71.60 54.39 71.48 54.44 C 71.21 54.56 70.78 54.60 70.57 54.59 C 70.29 54.57 70.05 54.63 69.84 54.73 C 69.68 54.51 69.53 54.28 69.37 54.05 C 69.59 53.94 69.89 53.67 69.97 53.49 Z" fill="#ecb4bf" fill-rule="nonzero" group-id="5,13,35" node-id="1928" stroke="none" target-height="2.2152023" target-width="2.856102" target-x="69.3743" target-y="52.5184"></path><path d="M 58.29 52.40 C 58.33 52.16 58.39 51.95 58.46 51.83 C 58.62 51.55 59.23 50.76 60.10 51.22 C 61.16 51.78 62.83 54.84 63.43 54.96 C 64.67 55.20 68.23 54.39 69.61 53.86 C 70.05 53.90 70.10 54.35 70.26 54.58 C 68.84 56.31 61.47 58.30 61.47 58.30 C 60.71 58.29 59.70 57.11 58.98 55.93 C 58.33 54.86 58.06 53.61 58.29 52.40 Z" fill="#1e72c6" fill-rule="nonzero" group-id="5,13,35" node-id="1930" stroke="none" target-height="7.5320015" target-width="12.196598" target-x="58.0622" target-y="50.7632"></path><path d="M 59.76 79.43 L 61.18 78.96 C 62.15 79.79 62.65 79.52 63.89 79.58 C 65.12 79.65 64.74 80.12 64.74 80.12 C 64.37 80.54 63.55 80.78 63.06 80.90 C 62.83 80.95 62.60 80.96 62.36 80.96 C 62.16 80.96 61.66 81.00 61.46 81.02 C 61.46 81.05 61.47 81.27 61.48 81.30 C 61.49 81.35 59.87 81.73 59.61 81.35 C 59.55 81.26 59.50 80.91 59.49 80.69 C 59.48 80.64 59.48 80.59 59.48 80.56 C 59.47 79.99 59.76 79.43 59.76 79.43 Z" fill="#2a2a5e" fill-rule="nonzero" group-id="5,13,35,74,138,262" node-id="1938" stroke="none" target-height="2.7733994" target-width="5.643097" target-x="59.4747" target-y="78.9564"></path><path d="M 58.62 66.77 C 57.83 64.44 58.81 62.90 59.02 62.51 L 62.96 63.76 C 62.96 63.76 63.28 67.28 61.99 71.70 C 61.82 72.26 61.73 72.83 61.69 73.41 C 61.56 75.07 61.34 78.32 61.40 79.11 C 61.07 79.67 60.44 79.74 59.67 79.59 C 59.67 79.59 58.81 75.74 59.16 73.04 C 59.27 72.16 59.33 71.28 59.27 70.40 C 59.19 69.33 59.02 67.95 58.62 66.77 Z" fill="#3a3a77" fill-rule="nonzero" group-id="5,13,35,74,138,262,291" node-id="1942" stroke="none" target-height="17.2356" target-width="5.4533005" target-x="57.8301" target-y="62.5071"></path><path d="M 62.42 80.90 L 63.83 80.42 C 64.81 81.25 65.30 80.99 66.55 81.04 C 67.77 81.11 67.39 81.58 67.39 81.58 C 67.03 82.01 66.21 82.25 65.72 82.36 C 65.49 82.41 65.25 82.42 65.02 82.42 C 64.82 82.42 64.31 82.46 64.11 82.48 C 64.12 82.51 64.13 82.73 64.14 82.77 C 64.15 82.82 62.52 83.19 62.26 82.81 C 62.21 82.73 62.16 82.37 62.15 82.16 C 62.14 82.10 62.14 82.05 62.14 82.02 C 62.13 81.45 62.42 80.90 62.42 80.90 Z" fill="#2a2a5e" fill-rule="nonzero" group-id="5,13,35,74,138,262,292" node-id="1947" stroke="none" target-height="2.7733002" target-width="5.6431007" target-x="62.1309" target-y="80.4206"></path><path d="M 61.09 67.97 C 60.17 65.79 60.79 63.58 61.00 63.19 L 65.61 65.17 C 65.61 65.17 65.94 68.69 64.64 73.12 C 64.48 73.67 64.39 74.25 64.34 74.82 C 64.22 76.49 63.99 79.74 64.06 80.52 C 63.73 81.08 63.10 81.16 62.32 81.00 C 62.32 81.00 61.48 77.24 61.80 74.55 C 61.92 73.59 61.57 69.12 61.09 67.97 Z" fill="#4c4a8b" fill-rule="nonzero" group-id="5,13,35,74,138,262,292" node-id="1949" stroke="none" target-height="17.970497" target-width="5.7709007" target-x="60.1686" target-y="63.1864"></path><path d="M 60.34 52.03 C 60.96 51.30 60.92 50.34 60.92 50.34 L 61.61 48.48 C 61.61 48.48 64.80 46.80 65.36 47.11 C 65.95 47.45 65.16 50.21 65.16 50.21 C 65.10 50.85 64.82 51.07 64.82 51.07 L 63.45 51.69 L 63.06 52.74 C 63.06 52.74 59.71 52.75 60.34 52.03 Z" fill="#ecb4bf" fill-rule="nonzero" group-id="5,13,35,74,138,262,293" node-id="1954" stroke="none" target-height="5.952198" target-width="6.2382965" target-x="59.707" target-y="46.7989"></path><path d="M 62.53 46.20 C 62.83 46.22 64.15 46.03 66.15 47.20 C 66.33 47.31 66.28 47.58 66.18 47.74 C 65.54 48.80 64.82 49.11 64.82 49.11 C 64.82 49.11 64.68 49.76 64.60 50.38 L 64.14 50.22 C 64.14 50.16 64.14 50.10 64.15 50.04 C 64.19 49.48 64.06 49.28 63.57 49.15 C 63.07 49.02 63.28 50.41 63.28 50.41 C 63.28 50.41 63.21 50.70 61.84 50.92 C 60.48 51.14 60.83 49.45 60.62 47.92 C 60.40 46.38 61.68 46.12 62.53 46.20 Z" fill="#4c4a8b" fill-rule="nonzero" group-id="5,13,35,74,138,262,293" node-id="1956" stroke="none" target-height="5.1105003" target-width="5.9305" target-x="60.4014" target-y="46.0308"></path><path d="M 58.43 54.48 C 57.69 50.34 60.85 51.00 60.85 51.00 C 60.95 51.90 62.38 52.21 63.35 51.95 L 65.19 53.33 C 65.33 53.44 65.45 53.56 65.54 53.70 C 65.69 53.93 65.80 54.30 65.88 54.71 C 66.04 55.58 66.05 56.48 65.95 57.37 C 65.74 59.33 65.72 64.09 65.61 65.17 C 65.61 65.17 59.13 67.98 58.46 63.85 C 58.34 63.11 59.04 57.88 58.43 54.48 Z" fill="#3887e5" fill-rule="nonzero" group-id="5,13,35,74,138,262" node-id="1959" stroke="none" target-height="17.646896" target-width="8.354599" target-x="57.6912" target-y="50.3356"></path><path d="M 62.84 52.74 C 62.84 52.73 61.90 53.64 61.90 53.64 L 61.33 54.08 L 60.52 54.54 L 59.68 54.00 L 59.68 53.29 L 59.81 52.24 L 60.53 51.17 L 60.59 50.96 C 60.75 50.98 60.85 51.00 60.85 51.00 C 60.95 51.90 62.39 52.21 63.35 51.95 L 63.57 52.12 C 63.51 52.20 63.45 52.27 63.43 52.29 C 63.35 52.38 62.84 52.75 62.84 52.74 Z" fill="#dee7f8" fill-rule="nonzero" group-id="5,14" node-id="1968" stroke="none" target-height="3.5720978" target-width="3.8876" target-x="59.6845" target-y="50.9644"></path><path d="M 63.35 51.95 C 63.24 52.01 62.14 52.86 62.03 52.94 C 61.80 53.11 61.59 53.32 61.36 53.49 C 61.13 53.66 60.79 53.93 60.54 53.92 C 60.29 53.92 60.05 53.75 59.99 53.47 C 59.96 53.27 60.08 52.93 60.12 52.72 C 60.25 52.12 60.46 51.47 60.84 51.00 C 60.84 51.00 60.73 50.97 60.55 50.96 C 60.08 51.38 59.68 51.98 59.48 52.30 C 59.20 52.74 59.19 53.28 59.12 53.62 C 59.02 54.16 59.15 54.86 59.47 55.15 C 59.92 55.55 60.53 55.28 61.10 54.99 C 61.49 54.80 62.04 54.39 62.37 54.07 C 62.62 53.83 62.86 53.55 63.02 53.23 C 63.11 53.06 63.59 52.56 63.76 52.26 L 63.35 51.95 Z" fill="#1e72c6" fill-rule="nonzero" group-id="5" node-id="1971" stroke="none" target-height="4.589699" target-width="4.733898" target-x="59.0231" target-y="50.9616"></path><path d="M 67.64 65.46 C 67.78 65.66 68.08 65.92 68.27 65.98 C 68.46 66.03 68.56 66.08 68.67 66.18 C 68.79 66.29 68.97 66.41 69.07 66.44 C 69.17 66.47 69.26 66.43 69.28 66.49 C 69.35 66.76 68.91 66.72 68.81 66.69 C 68.71 66.66 68.63 66.59 68.55 66.58 C 68.47 66.57 68.55 66.76 68.67 66.92 C 68.80 67.08 69.18 67.70 69.26 67.86 C 69.33 68.03 69.30 68.13 69.17 68.06 C 69.04 67.98 68.63 67.39 68.54 67.27 C 68.45 67.16 68.43 67.25 68.44 67.26 C 68.61 67.53 68.91 68.13 68.99 68.37 C 69.07 68.60 68.91 68.58 68.89 68.55 C 68.72 68.31 68.34 67.68 68.23 67.53 C 68.13 67.38 68.15 67.47 68.15 67.49 C 68.22 67.71 68.45 68.16 68.52 68.33 C 68.58 68.51 68.64 68.54 68.46 68.62 C 68.28 68.69 67.93 67.70 67.88 67.59 C 67.83 67.48 67.77 67.45 67.78 67.56 C 67.79 67.68 68.00 68.20 68.01 68.31 C 68.02 68.43 68.03 68.56 67.90 68.46 C 67.76 68.36 67.61 67.82 67.51 67.57 C 67.42 67.33 67.28 66.98 67.26 66.71 C 67.24 66.43 67.15 66.20 67.02 66.00 C 67.23 65.82 67.43 65.64 67.64 65.46 Z" fill="#ecb4bf" fill-rule="nonzero" group-id="5" node-id="1973" stroke="none" target-height="3.2313004" target-width="2.3278046" target-x="67.0209" target-y="65.4567"></path><path d="M 64.26 53.44 C 64.27 53.44 64.28 53.44 64.29 53.44 C 64.96 53.20 65.69 53.58 65.87 54.27 C 66.30 55.95 66.27 58.35 66.42 59.26 C 66.88 61.88 67.16 63.49 67.91 65.69 C 67.89 66.18 67.49 66.41 67.16 66.38 C 66.10 65.10 65.75 63.41 65.07 61.96 C 64.59 60.93 64.05 57.58 63.82 56.08 C 63.76 55.71 63.63 55.35 63.50 55.00 C 63.28 54.40 63.60 53.67 64.26 53.44 Z" fill="#1e72c6" fill-rule="nonzero" group-id="5" node-id="1975" stroke="none" target-height="13.211903" target-width="4.6319046" target-x="63.2782" target-y="53.1964"></path></svg>