<?xml version="1.0" standalone="no"?><!DOCTYPE svg PUBLIC "-//W3C//DTD SVG 1.1//EN" "http://www.w3.org/Graphics/SVG/1.1/DTD/svg11.dtd"><svg t="1710206636778" class="icon" viewBox="0 0 1024 1024" version="1.1" xmlns="http://www.w3.org/2000/svg" p-id="4427" xmlns:xlink="http://www.w3.org/1999/xlink" width="200" height="200"><path d="M512 224z m186.4 445.6c-27.008-9.408-56.192-10.016-83.2-19.392-8.192-2.784-24.384-6.208-27.808-15.616-3.2-9.216-3.2-20-3.808-29.6a452.16 452.16 0 0 1-0.608-22.784c0-4.992 12.8-15.616 15.616-20.192 10.784-18.016 11.808-42.208 13.792-62.592 17.408 4.8 19.616-27.392 22.592-37.184 2.208-6.816 15.616-53.6-5.216-47.2 4.992-8.8 7.008-19.616 8.384-29.408 4-25.6 5.6-53.6-2.208-78.592-16.192-52-66.016-81.184-118.592-82.816-53.408-1.792-107.008 23.808-127.008 75.584-9.6 25.184-8.8 52.608-5.6 79.008 1.408 12 3.392 25.408 9.408 36.192-19.392-5.792-8.992 35.392-6.816 42.592 3.2 10.208 6.016 46.816 24.192 41.792 1.6 16.192 3.392 32.8 7.808 48.608 3.008 10.592 9.184 19.616 16.384 27.808 3.616 4 5.408 4.384 5.184 9.6-0.192 15.616 0.192 32.384-3.808 47.616s-37.408 21.6-50.816 24.384c-36 7.392-69.184 10.784-99.2 33.216-35.008 25.792-53.184 66.016-53.184 109.408h556c0-59.008-35.616-111.008-91.616-130.4-22.4-7.808 22.592 7.808 0 0z m-404.192 57.6c11.2-11.808 25.408-22.208 40.8-28 20.992-8 44.8-7.616 66.592-13.216 18.016-4.608 40.384-11.808 54.4-24.8 12.8-12 14.208-30.4 15.392-47.008 0.992-14.016 0.8-27.808 0.8-41.792 0-9.792-11.392-15.392-16.992-23.2-8.992-12.192-9.408-30.4-11.2-44.992-0.8-6.4-0.992-14.592-6.4-19.008-6.016-4.8-10.4-7.392-13.408-15.008-4-10.4-5.408-21.6-8.608-32.384-2.016-7.008 4.992-13.6 7.808-19.392 5.184-10.592-3.808-27.008-5.6-38.016-5.6-32.8-5.408-68.608 18.208-94.592 47.392-52.416 156-35.808 171.616 37.792 4.8 23.008 1.792 49.792-4.608 72.192-2.784 9.6-6.016 16.608-0.384 26.016 8.384 13.6 4.8 22.4 0.8 37.6-3.2 12.608-7.2 18.208-16.8 26.016-8 6.4-6.784 22.4-8.192 31.616-1.6 11.2-2.592 23.008-9.408 32.384-2.592 3.616-16.8 14.784-16.8 18.592 0 22.016-0.992 44.384 2.784 66.208 5.216 31.008 31.2 38.4 57.216 48.992 26.4 10.208 56.992 6.4 82.592 19.008 26.4 12.992 51.808 36.8 59.392 66.208H270.016c3.808-16.608 12.992-29.216 24.192-41.216 18.4-19.392-11.808 12.608 0 0z m-6.016-83.2c14.016-7.008 29.184-8.608 44.608-10.208 5.6-0.608 8.192-4.384 4-9.792-8-10.208-35.616-12.192-47.2-16.8-7.2-2.784-9.184-5.408-9.792-13.408-0.192-3.616-2.208-19.616 0.608-22.208 2.016-2.016 14.592-1.216 17.408-1.6a141.6 141.6 0 0 0 33.792-8c4.608-1.792 8.992-4 12.992-6.784 4.8-3.616-3.616-12.384-5.792-17.216-6.816-15.008-9.792-31.392-10.816-47.808-2.016-32.192 3.008-64.608-3.008-96.608-8.992-48.992-46.816-73.6-95.008-73.6-29.792 0-59.2 10.208-75.808 36.192-18.4 28.608-17.408 64.192-16.416 96.8 0.608 18.592 1.408 37.408-1.184 56a117.44 117.44 0 0 1-5.792 23.392c-2.208 5.792-13.408 20.192-8.992 23.2 16.608 11.808 44.608 15.808 64.608 14.208 0.608 9.792 2.4 22.4-1.184 31.616-5.6 14.4-47.392 18.208-60 22.4C90.016 635.584 64 664.992 64 703.968H223.008c2.592 0 12.608-18.592 15.392-21.6a172.384 172.384 0 0 1 49.792-38.4c18.016-8.992-29.184 14.784 0 0zM205.6 672H107.808c14.208-23.616 49.792-22.016 73.216-30.4 21.6-7.808 35.392-20.992 37.6-44 0.192-2.592 0.416-58.4-1.792-58.4-17.408-0.608-35.584-0.192-52.992-2.784 13.792-44.608 0.608-90.592 8-135.616 5.408-32.608 26.208-50.592 59.392-50.592 31.808 0 55.392 14.816 62.208 46.816 9.6 46.4-4 93.792 10.816 139.808-11.008 2.784-22.592 3.2-34.016 3.616l-16.992 0.608c-3.584 0.192-2.4 6.4-2.592 9.408-2.016 21.792-10.016 56.192 7.392 73.792-19.2 12-40 28.608-52.416 47.808z m594.016 32H960c0-39.008-26.208-68.608-61.408-80.192-16.192-5.216-47.392-6.784-59.008-20.8-5.792-7.008-2.592-24.8-2.016-33.216 8.8 0.8 18.4-0.608 27.392-1.792 8.192-1.216 16.192-2.784 24-5.6 3.616-1.408 7.2-2.784 10.592-4.8 7.808-4.608 4.192-5.408 0.192-12.192-21.792-36.608-12-83.008-12.992-123.2-0.8-33.408-9.6-70.016-40-88.8-27.392-16.992-68-17.6-97.408-5.6-84.8 34.016-34.784 146.4-63.808 210.784-4.992 10.784-12.192 14.592 0.384 20.992 7.008 3.616 14.592 6.016 22.208 7.808 11.616 2.784 23.616 4.384 35.616 4.8 2.016 0 0.608 25.216 0 27.808-2.208 9.792-23.616 12.608-31.616 14.784-8.192 2.208-21.792 2.784-25.792 11.392-6.016 12.8 19.808 9.6 26.208 10.784 20.608 3.808 38.784 15.2 54.784 28.192 11.808 9.6 27.808 23.2 32.192 38.784z m-0.832-54.208c-10.208-9.408-20.8-18.592-32.608-26.016 17.6-17.6 9.408-51.808 7.392-73.792-1.216-12.608-4-9.408-16.608-9.792-12-0.384-25.6 0.192-36.992-3.616 14.4-44.608 2.592-90.4 10.016-135.808 5.6-34.208 28.992-51.008 63.008-51.008 30.784 0 52 15.392 58.4 46.016 9.792 46.208-5.216 94.016 8.992 140-16.992 2.592-34.592 2.016-51.808 2.592-4.192 0.192-3.808 50.208-3.392 54.592 1.408 23.392 12.192 37.6 34.4 46.592 24.192 9.792 62.016 7.2 76.8 31.808h-89.408c-14.208 0.192-17.792-12.192-28.192-21.6-10.016-9.216 8 7.2 0 0z" p-id="4428"></path></svg>
