<?xml version="1.0" standalone="no"?><!DOCTYPE svg PUBLIC "-//W3C//DTD SVG 1.1//EN" "http://www.w3.org/Graphics/SVG/1.1/DTD/svg11.dtd"><svg t="1710207209994" class="icon" viewBox="0 0 1024 1024" version="1.1" xmlns="http://www.w3.org/2000/svg" p-id="9907" xmlns:xlink="http://www.w3.org/1999/xlink" width="200" height="200"><path d="M844.3 621.7c38-36.4 74.9-73.9 112.5-110.6 34-33.2 45.4-72.6 30.6-117.6-15.1-45.7-51-67.4-96.5-74.7-50.9-8.2-101.9-16-153.1-22.5-24.2-3.1-40.2-14.2-50.7-36.1-21.8-45.7-44.5-90.9-66.6-136.4-21.3-43.8-54.2-71.6-104.8-71-50.2 0.6-83.3 27.9-104.4 72.1-21.8 45.6-44.9 90.7-66.6 136.4-10 21-25.3 31.7-48.4 34.7-50.2 6.6-100.1 15.5-150.3 22-49 6.4-84.7 30.5-101.2 77.1-16.5 46.5-0.7 85.7 34.1 119.1 37.2 35.8 73 73 110.3 108.7 18.4 17.6 23.8 36.9 18.9 61.9-10.9 56.2-19.9 112.8-27.1 154.4-4.8 97.8 75.2 155.8 150.8 122.5 48.8-21.5 95.8-47.6 142.3-73.8 28.5-16.1 53.5-17.9 82.6-0.8 42.8 25.1 87.4 47.3 131.7 69.8 41.9 21.2 83.4 19.6 121.3-9.1 38-28.8 49.7-68 41.2-114.5-9.3-50.7-17.3-101.7-26.7-152.3-4.4-24.2 2.7-42.6 20.1-59.3z m-45.4-53.2c-39.9 35.7-51 78.9-41.7 129.6 8.7 47.9 17 95.9 25.8 143.8 3.7 20.2 1.3 37.9-15.8 51.7-18.4 14.8-35.7 7.9-53.2-1.3-44.8-23.7-89.9-46.8-134.4-71-43.1-23.4-85.2-22.7-128.1 0.7-46.1 25.2-92.5 50-139.6 73.4-34 16.9-65.7-4.1-63.9-40.8 9.1-53.7 17-107.6 27.7-161 9.8-48.7-3.8-88.3-39-122-36-34.3-71.7-69-107.6-103.4-14.3-13.7-26.9-28.3-19.4-50.1 7.4-21.6 23.6-29.7 45.9-32.3 49.3-5.8 98.3-15.2 147.6-20.5 48.4-5.2 81.3-30 102.5-72.5 23-46.2 46.1-92.3 68.5-138.8 8.9-18.6 20.7-32.5 42.8-32.7 22.7-0.2 33.1 15.4 41.9 33.5 22.1 45.6 44.9 90.8 67.1 136.3 21.4 43.8 55.2 68.6 104.6 74.1 51.3 5.7 102.1 14.7 153.3 21.5 19.1 2.5 32.4 11.7 38.2 29.6 5.8 18 0.6 33.3-13.4 46.6-36.9 35-72 71.8-109.8 105.6z" fill="#ffffff" p-id="9908"></path><path d="M671.3 456c0.7 11.2-4.9 20.1-11 28.8-44.2 63.4-88.1 127-132.7 190.1-19.7 27.9-39 30.1-64.3 7.4-36.2-32.5-71.7-65.8-107.3-99-16.8-15.8-26.6-33.4-8.5-54.6 13.4-15.7 35.3-14.4 55.6 3.6 22.8 20.3 46.4 40 67 62.4 16.2 17.5 23 12.8 34.5-4.6 30.9-47 63.8-92.7 96.1-138.8 4.9-7 10.2-13.9 16-20.1 9.6-10.3 21.9-12.1 34.1-6.5 12.9 5.8 21.5 15.8 20.5 31.3z" fill="#ffffff" p-id="9909"></path></svg>
