<?xml version="1.0" standalone="no"?><!DOCTYPE svg PUBLIC "-//W3C//DTD SVG 1.1//EN" "http://www.w3.org/Graphics/SVG/1.1/DTD/svg11.dtd"><svg t="1710207268766" class="icon" viewBox="0 0 1024 1024" version="1.1" xmlns="http://www.w3.org/2000/svg" p-id="10961" xmlns:xlink="http://www.w3.org/1999/xlink" width="200" height="200"><path d="M410.24 496.16H206.24c-40.8 0-73.44-33.12-73.44-73.44V218.24c0-40.8 33.12-73.44 73.44-73.44h204c40.8 0 73.44 33.12 73.44 73.44v204c0 40.8-33.12 73.92-73.44 73.92zM206.24 192.8c-13.92 0-25.44 11.52-25.44 25.44v204c0 13.92 11.52 25.44 25.44 25.44h204c13.92 0 25.44-11.52 25.44-25.44V218.24c0-13.92-11.52-25.44-25.44-25.44H206.24zM826.4 496.16H622.4c-40.8 0-73.44-33.12-73.44-73.44V218.24c0-40.8 33.12-73.44 73.44-73.44h204c40.8 0 73.44 33.12 73.44 73.44v204c0.48 40.8-32.64 73.92-73.44 73.92zM622.4 192.8c-13.92 0-25.44 11.52-25.44 25.44v204c0 13.92 11.52 25.44 25.44 25.44h204c13.92 0 25.44-11.52 25.44-25.44V218.24c0-13.92-11.52-25.44-25.44-25.44H622.4zM410.24 876.8H206.24c-40.8 0-73.44-33.12-73.44-73.44v-204c0-40.8 33.12-73.44 73.44-73.44h204c40.8 0 73.44 33.12 73.44 73.44v204c0 40.32-33.12 73.44-73.44 73.44z m-204-303.36c-13.92 0-25.44 11.52-25.44 25.44v204c0 13.92 11.52 25.44 25.44 25.44h204c13.92 0 25.44-11.52 25.44-25.44v-204c0-13.92-11.52-25.44-25.44-25.44H206.24zM840.8 873.92H608c-31.2 0-56.64-25.44-56.64-56.64v-232.32c0-31.2 25.44-56.64 56.64-56.64h232.32c31.2 0 56.64 25.44 56.64 56.64v232.32c0.48 31.2-24.96 56.64-56.16 56.64z" fill="#ffffff" p-id="10962"></path></svg>