<?xml version="1.0" standalone="no"?><!DOCTYPE svg PUBLIC "-//W3C//DTD SVG 1.1//EN" "http://www.w3.org/Graphics/SVG/1.1/DTD/svg11.dtd"><svg t="1710312557888" class="icon" viewBox="0 0 1024 1024" version="1.1" xmlns="http://www.w3.org/2000/svg" p-id="5833" xmlns:xlink="http://www.w3.org/1999/xlink" width="200" height="200"><path d="M520.37 928a404.92 404.92 0 1 1 158.09-31.9A403.63 403.63 0 0 1 520.37 928z m0-732.23c-179.83 0-326.12 146.29-326.12 326.11S340.54 848 520.37 848s326.11-146.26 326.11-326.09S700.19 195.8 520.37 195.8z" p-id="5834" fill="#ffffff"></path><path d="M200.9 915.72c-38.56 0-62-14.4-75.46-27.87-17.13-17.12-35.31-49.85-24.75-108.46 6.6-36.57 23.45-79.6 50.09-127.9a40 40 0 1 1 70.05 38.65C168.6 784.81 175.47 824.75 182 831.28c3.36 3.35 14.27 6.2 34 3.19 25.19-3.86 58-16.12 95-35.48 84.35-44.16 182-119.68 274.93-212.62C678.25 494 753.49 396.89 797.76 312.88c19.68-37.34 32.19-70.54 36.18-96 3.12-20 0.27-31-3.13-34.4-6.59-6.59-46.93-13.46-142.63 39.64a40 40 0 1 1-38.81-69.95c48.66-27 92-44.12 128.85-50.87 59-10.84 91.95 7.4 109.16 24.61 16.48 16.47 34.29 47.78 25.6 103.34-5.41 34.57-20.37 75.27-44.45 121-47.9 90.91-128.19 194.88-226.06 292.76C544 741.45 439.41 822 348.08 869.86c-45.32 23.74-85.7 38.44-120 43.69a179.73 179.73 0 0 1-27.18 2.17z" p-id="5835" fill="#ffffff"></path><path d="M470.19 503.54a121.13 121.13 0 1 1 121.14-121.13 121.27 121.27 0 0 1-121.14 121.13z m0-162.26a41.13 41.13 0 1 0 41.14 41.13 41.18 41.18 0 0 0-41.14-41.13z" p-id="5836" fill="#ffffff"></path><path d="M401.42 615m-55.78 0a55.78 55.78 0 1 0 111.56 0 55.78 55.78 0 1 0-111.56 0Z" p-id="5837" fill="#ffffff"></path><path d="M699.06 703.41m-27 0a27 27 0 1 0 54 0 27 27 0 1 0-54 0Z" p-id="5838" fill="#ffffff"></path></svg>