<?xml version="1.0" standalone="no"?><!DOCTYPE svg PUBLIC "-//W3C//DTD SVG 1.1//EN" "http://www.w3.org/Graphics/SVG/1.1/DTD/svg11.dtd"><svg t="1710206990467" class="icon" viewBox="0 0 1024 1024" version="1.1" xmlns="http://www.w3.org/2000/svg" p-id="6661" xmlns:xlink="http://www.w3.org/1999/xlink" width="200" height="200"><path d="M848.540849 632.537284l170.407088-132.686998-65.054645-83.552951 42.217521-42.217521L622.3779 0.346901 5.051039 617.673761l192.179974 192.179974 0 82.898035 0.074701 0c3.778046 85.948511 165.794024 130.901329 325.853439 130.901329s322.075393-44.952818 325.853439-130.901329l0.074701 0L849.087295 645.261073l-0.118704 0c0.078795-1.344624 0.118704-2.699482 0.118704-4.064572C849.087295 638.262682 848.90003 635.376958 848.540849 632.537284zM786.728038 641.195477c0 21.420869-89.673345 71.616084-263.567861 71.616084s-263.567861-50.195216-263.567861-71.616084c0-21.420869 89.673345-71.616084 263.567861-71.616084S786.728038 619.774609 786.728038 641.195477zM931.437861 488.950028l-115.405403 89.86675c-4.334725-3.654226-9.045003-7.172353-14.104229-10.552334l107.534132-107.534132L931.437861 488.950028zM622.3779 88.527243l285.552571 285.552571L742.391251 539.619034c-60.7015-21.440311-140.204206-32.399921-219.232097-32.399921-161.959695 0-325.928141 46.02422-325.928141 133.976364 0 1.36509 0.039909 2.719948 0.118704 4.064572l-0.118704 0 0 76.41232L93.232404 617.673761 622.3779 88.527243zM523.159154 961.292819c-173.895539 0-263.567861-50.195216-263.567861-71.616084l0-42.11826c62.437028 34.250058 163.386184 51.861158 263.567861 51.861158s201.131857-17.6111 263.567861-51.861158l0 42.11826C786.728038 911.097604 697.054693 961.292819 523.159154 961.292819zM523.159154 837.060377c-173.895539 0-263.567861-50.195216-263.567861-71.616084l0-42.132586c62.437028 34.250058 163.386184 51.861158 263.567861 51.861158s201.131857-17.6111 263.567861-51.861158l0 42.132586C786.728038 786.865161 697.054693 837.060377 523.159154 837.060377z" fill="#030000" p-id="6662"></path></svg>