<?xml version="1.0" standalone="no"?><!DOCTYPE svg PUBLIC "-//W3C//DTD SVG 1.1//EN" "http://www.w3.org/Graphics/SVG/1.1/DTD/svg11.dtd"><svg t="1710312531510" class="icon" viewBox="0 0 1024 1024" version="1.1" xmlns="http://www.w3.org/2000/svg" p-id="4754" xmlns:xlink="http://www.w3.org/1999/xlink" width="200" height="200"><path d="M809.088038 956.901253 215.589779 956.901253c-3.00922 0-5.978508-0.12901-8.922199-0.504779-2.313997-0.235495-5.022193-0.676793-7.705815-1.221504-3.204783-0.716725-5.953935-1.462118-8.573052-2.352905-2.162461-0.656315-4.865537-1.702733-7.530729-2.904783-2.443007-1.092493-4.925947-2.352905-7.329022-3.750518-2.092836-1.181572-4.451885-2.683622-6.718783-4.300348-2.118434-1.462118-4.32185-3.230381-6.395233-5.062124-1.852222-1.593177-3.775092-3.42492-5.673388-5.41332-1.852222-1.938228-3.598982-4.010587-5.301715-6.148474-1.592153-2.006829-3.139254-4.215365-4.646424-6.524243-1.397613-2.207512-2.728673-4.651544-4.036184-7.16008-1.266555-2.42253-2.311949-4.776458-3.338913-7.200012-1.241982-3.139254-2.137888-5.757347-2.904783-8.441994-0.715701-2.358024-1.436521-5.23721-1.98328-8.226976-0.49966-2.574066-0.940957-5.41332-1.201026-8.355987-0.260069-2.619117-0.436178-5.543354-0.436178-8.492164L132.893054 242.172076c0-2.965193 0.175086-5.888406 0.459728-8.72766 0.235495-2.683622 0.651196-5.517757 1.19693-8.357011 0.501707-2.748127 1.247101-5.672364 2.11741-8.487045 0.611264-2.248468 1.50717-4.820486 2.508537-7.35462 1.241982-2.963145 2.293519-5.302739 3.42492-7.546088 1.462118-2.773725 2.794203-5.171681 4.341304-7.510251 1.357681-2.092836 2.924237-4.341304 4.625946-6.498646 1.638228-2.053928 3.319459-4.036184 5.087722-5.914003 2.158365-2.202393 4.081235-4.080212 6.127997-5.84745 1.723211-1.527648 3.950177-3.275432 6.264174-4.911612 1.943348-1.372016 4.166219-2.813657 6.543697-4.186696 2.468605-1.441641 4.912636-2.663144 7.400695-3.775092 2.529014-1.110923 5.037551-2.092836 7.63619-2.944715 2.749151-0.895906 5.432774-1.637204 8.136874-2.208536 2.748127-0.585667 5.521852-1.046418 8.355987-1.351538 2.794203-0.280547 5.633456-0.436178 8.487045-0.436178l55.513403 0c12.066573 0 21.820173 9.774078 21.820173 21.820173 0 12.043023-9.7536 21.821197-21.820173 21.821197l-55.513403 0c-1.326965 0-2.658025 0.065529-3.969631 0.19454-1.262459 0.131058-2.483963 0.351195-3.705467 0.611264-1.266555 0.284642-2.534134 0.630718-3.710586 1.024916-1.046418 0.351195-2.273041 0.827305-3.494545 1.352562-1.047442 0.456656-2.158365 1.026964-3.230381 1.637204-0.980889 0.585667-2.11229 1.287033-3.158708 2.028331-1.181572 0.832425-2.118434 1.548125-2.99079 2.313997-1.356658 1.137545-2.247444 2.072358-3.144374 3.00922-0.72082 0.785326-1.637204 1.857341-2.508537 2.968264-0.805803 0.981913-1.481572 2.028331-2.202393 3.1198-0.89693 1.352562-1.462118 2.488059-2.097956 3.645057-0.545735 1.110923-1.19693 2.527991-1.80717 3.990109-0.265188 0.719796-0.721844 2.051881-1.136521 3.404443-0.480206 1.61775-0.785326 2.879186-1.026964 4.126287-0.30512 1.526624-0.49966 2.923213-0.630718 4.341304-0.17611 1.657682-0.260069 3.144374-0.260069 4.646424L176.5334 870.841042c0 1.486692 0.084983 2.968264 0.239591 4.410929 0.151536 1.637204 0.370649 3.00922 0.611264 4.360758 0.30512 1.50717 0.585667 2.70922 0.956316 3.90615 0.525257 1.832768 1.006486 3.164852 1.486692 4.451885 0.370649 0.830377 1.001367 2.22799 1.67816 3.55905 0.49966 0.981913 1.090446 2.137888 1.81229 3.204783 0.805803 1.267579 1.526624 2.337547 2.359048 3.359391 0.890786 1.156999 1.741641 2.163485 2.613998 3.099323 0.921503 0.941981 1.81229 1.832768 2.818776 2.710243 1.092493 0.956316 2.027307 1.697614 2.988742 2.377478 1.155975 0.826281 2.158365 1.462118 3.184306 2.028331 1.37304 0.805803 2.444031 1.332084 3.516047 1.81229 1.110923 0.501707 2.157341 0.916384 3.184306 1.241982 1.741641 0.590786 2.963145 0.895906 4.145741 1.155975 0.850855 0.17611 2.158365 0.4157 3.469972 0.545735 1.593177 0.19454 2.789083 0.215017 3.970655 0.215017l593.494163 0c1.221504 0 2.357001-0.020478 3.580552-0.17099 1.676112-0.17611 2.963145-0.4157 4.189768-0.656315 0.936862-0.219113 2.177819-0.49966 3.334818-0.91536 1.441641-0.461776 2.467581-0.850855 3.449494-1.31263 1.370992-0.61024 2.443007-1.155975 3.469972-1.741641 1.261436-0.721844 2.313997-1.397613 3.334818-2.118434 1.072015-0.764848 2.11741-1.611607 3.123896-2.462461 0.696247-0.636861 1.633109-1.50717 2.508537-2.444031 1.266555-1.291128 2.072358-2.293519 2.899664-3.338913 0.590786-0.766895 1.287033-1.702733 1.897273-2.708196 1.092493-1.67816 1.703757-2.749151 2.274065-3.861099 0.585667-1.136521 1.155975-2.332427 1.637204-3.555979 0.651196-1.616726 1.087374-2.879186 1.456999-4.189768 0.350171-1.176452 0.701366-2.508537 0.961435-3.884648 0.330717-1.67816 0.525257-3.1198 0.675769-4.601373 0.154608-1.462118 0.201707-2.944715 0.201707-4.431407L848.059434 242.172076c0-1.50205-0.046075-2.988742-0.201707-4.427311-0.150512-1.486692-0.370649-2.968264-0.651196-4.431407-0.284642-1.506146-0.635837-2.902735-1.024916-4.255297-0.351195-1.090446-0.766895-2.353929-1.287033-3.598982-0.635837-1.657682-1.247101-2.859732-1.832768-4.056662-0.504779-1.006486-1.136521-2.072358-1.81229-3.099323-1.072015-1.721163-1.723211-2.637547-2.423554-3.533453-0.675769-0.831401-1.547102-1.92287-2.527991-2.944715-1.006486-1.052561-1.92287-1.943348-2.884305-2.773725-0.871333-0.761776-1.917751-1.592153-2.988742-2.352905-1.131401-0.811947-2.2884-1.532767-3.510927-2.248468-0.741298-0.4157-1.857341-0.981913-3.033793-1.50717-1.266555-0.565189-2.488059-1.026964-3.73004-1.441641-0.830377-0.260069-2.11741-0.630718-3.42492-0.916384-1.311606-0.279523-2.508537-0.480206-3.73004-0.61024-1.311606-0.131058-2.597615-0.195563-3.975775-0.195563l-55.50726 0c-12.066573 0-21.821197-9.774078-21.821197-21.820173 0-12.043023 9.754624-21.821197 21.821197-21.821197l55.50726 0c2.859732 0 5.607859 0.136178 8.447113 0.441298 2.925261 0.306144 5.758371 0.782254 8.487045 1.37304 2.534134 0.544711 5.173729 1.266555 7.726293 2.072358 2.988742 1.006486 5.497279 1.988399 7.94131 3.078845 2.397956 1.066896 4.840964 2.2884 7.200012 3.639938 2.574066 1.526624 4.777482 2.923213 6.875438 4.431407 2.182939 1.526624 4.2297 3.184306 6.258031 4.93209 2.163485 1.852222 4.126287 3.775092 5.983628 5.73687 1.657682 1.767238 3.335842 3.73004 4.9925 5.783969 2.007853 2.553588 3.690109 4.906493 5.171681 7.394552 1.110923 1.638228 2.534134 4.101713 3.866218 6.655301 1.287033 2.53311 2.41741 5.062124 3.423896 7.63619 0.916384 2.208536 1.853245 4.846083 2.639595 7.550183 0.832425 2.88021 1.526624 5.653934 2.053928 8.402062 0.480206 2.639595 0.916384 5.41332 1.195906 8.226976 0.285666 2.859732 0.4157 5.757347 0.4157 8.72766l0 628.667942c0 2.949834-0.12901 5.867928-0.4157 8.707182-0.279523 2.834134-0.696247 5.627313-1.240958 8.376464-0.461776 2.579185-1.176452 5.34779-1.943348 8.031413-0.850855 2.903759-1.787716 5.587381-2.859732 8.206498-0.850855 2.222871-2.046761 4.775435-3.268265 7.22049-1.332084 2.553588-2.754271 5.062124-4.320826 7.439603-1.072015 1.767238-2.728673 4.101713-4.477482 6.329703-1.852222 2.313997-3.598982 4.386355-5.453251 6.304106-1.506146 1.637204-3.469972 3.515023-5.497279 5.302739-2.267922 1.942324-4.34028 3.624579-6.523219 5.151203-2.229014 1.592153-4.517414 3.054271-6.875438 4.386355-2.267922 1.306487-4.736527 2.548468-7.283971 3.684989-2.359048 1.092493-5.087722 2.137888-7.856327 3.010244-2.203417 0.746418-4.887039 1.461095-7.660764 2.072358-2.944715 0.61024-5.71844 1.072015-8.507523 1.355634C814.996921 956.771219 812.097258 956.901253 809.088038 956.901253L809.088038 956.901253zM809.088038 956.901253" fill="#ffffff" p-id="4755"></path><path d="M373.420759 272.483389c-14.465553 0-29.131789-7.265541-38.274125-19.006516-8.986704-11.521862-11.975447-25.811306-8.355987-40.191876l2.006829-8.095918c3.861099-15.402415 7.200012-28.801072 9.14336-36.832485 4.606492-19.157029 29.131789-41.452288 53.806574-41.452288l24.874444-0.046075 10.604455 0.046075 0.046075-0.17611c2.59352-10.585001 7.589091-30.767969 9.903088-39.126004 5.34779-19.091499 28.454996-39.665595 56.494292-39.665595l23.062154-0.045051 13.789784 0.045051c28.670014 0.065529 51.908278 20.794233 56.93047 39.971739 2.334475 8.707182 7.591139 28.344416 10.364864 39.014399l10.189778 0.020478 18.741328-0.039932c36.851939 0 56.098046 24.785366 60.13423 41.432834l10.95565 45.102464c3.553931 14.661117 0.565189 29.021209-8.402062 40.407917-9.03278 11.455309-23.327343 18.590816-37.332144 18.590816l-22.782632-0.020478c-64.540039-0.090103-242.720882-0.30512-254.697353 0L373.420759 272.483389 373.420759 272.483389zM416.620831 170.539533l-24.810963 0.045051c-3.028674 0.11058-10.143703 5.627313-11.780907 9.097285-1.612631 7.0495-4.996595 20.579215-8.857694 36.09221l-2.027307 8.116396c-0.370649 1.416043-0.154608 2.028331 0.436178 2.748127 1.130377 1.462118 3.099323 2.203417 3.859051 2.203417l0 21.820173 0.046075-21.820173c12.020498-0.325598 190.963117-0.105461 255.898379-0.020478l22.736557 0.020478c0.527305-0.065529 2.268946-0.871333 3.164852-2.092836 0.240615-0.325598 0.656315-0.935838 0.17611-3.00922l-10.995581-45.058437 0 0c-0.045051 0-3.404443-8.095918-17.330404-8.095918l-19.157029 0.045051-15.271357-0.045051c-16.844055 0-31.640326-11.632443-36.006203-28.280935-2.158365-8.421516-8.702062-33.056369-11.410258-43.179594-0.850855-1.701709-7.069978-7.506156-14.921185-7.52561l-13.639272-0.025597-23.062154 0.045051c-7.505132 0-13.574767 5.978508-14.620161 8.271004-2.072358 7.546088-6.874414 27.098339-9.428002 37.332144l-1.19693 4.822534c-4.255297 17.304807-18.987062 28.541003-37.487776 28.541003L416.620831 170.539533 416.620831 170.539533zM416.620831 170.539533" fill="#ffffff" p-id="4756"></path><path d="M659.833182 669.100432 533.878023 669.100432l0-68.019226 125.955159 0c6.11571 0 11.813672-2.327308 16.050539-6.563151 4.026969-4.057686 6.220147-9.397285 6.204788-15.006168 0.015358-5.608883-2.177819-10.948482-6.220147-14.976475-4.221509-4.26656-9.91947-6.592844-16.03518-6.592844L533.564712 557.942568l-0.581571-5.668269 142.423446-142.423446c8.695919-8.651892 8.93551-22.583997 0.53652-30.996297-3.937891-3.997276-9.263155-6.175096-15.006168-6.175096-6.011273 0-11.709235 2.357001-16.050539 6.682946L512.293345 511.909386 379.684933 379.361383c-4.296253-4.325946-9.978856-6.682946-15.990129-6.682946-5.727655 0-11.052919 2.177819-14.99081 6.145403-3.997276 3.967583-6.190454 9.308207-6.204788 15.065554 0 5.996938 2.386693 11.665207 6.712639 15.960436l141.497847 140.275319 0 7.816395L364.739174 557.941544c-6.100351 0-11.783979 2.327308-16.020846 6.592844-4.026969 4.057686-6.235505 9.367592-6.220147 14.976475 0 11.903774 9.994215 21.569319 22.28502 21.569319l125.925466 0 0 68.019226L364.739174 669.099409c-6.086017 0-11.769644 2.327308-16.020846 6.592844-4.026969 4.057686-6.235505 9.367592-6.220147 14.976475 0 11.903774 9.994215 21.569319 22.28502 21.569319l125.925466 0 0 88.93223c0 12.261113 9.680904 22.225634 21.584678 22.225634 11.903774 0 21.584678-9.964522 21.584678-22.225634l0-88.93223 125.955159 0c6.11571 0 11.813672-2.327308 16.050539-6.592844 4.026969-4.026969 6.220147-9.367592 6.204788-14.976475 0.015358-5.608883-2.193178-10.91879-6.220147-14.976475C671.631495 671.426716 665.933533 669.100432 659.833182 669.100432z" fill="#ffffff" p-id="4757"></path></svg>